<ttFont>
<head>
    <!-- Most of this table will be recalculated by the compiler -->
    <tableVersion value="1.0"/>
    <fontRevision value="0.79999"/>
    <checkSumAdjustment value="0x442e3215"/>
    <magicNumber value="0x5f0f3cf5"/>
    <flags value="00000000 00001011"/>
    <unitsPerEm value="1024"/>
    <created value="Sat May  3 09:55:28 2014"/>
    <modified value="Sat May  3 10:10:00 2014"/>
    <xMin value="-406"/>
    <yMin value="-258"/>
    <xMax value="1080"/>
    <yMax value="1013"/>
    <macStyle value="00000000 00000011"/>
    <lowestRecPPEM value="8"/>
    <fontDirectionHint value="2"/>
    <indexToLocFormat value="0"/>
    <glyphDataFormat value="0"/>
  </head>
    <TTGlyph name=".notdef" xMin="34" yMin="0" xMax="306" yMax="682">
      <contour>
        <pt x="34" y="0" on="1"/>
        <pt x="34" y="682" on="1"/>
        <pt x="306" y="682" on="1"/>
        <pt x="306" y="0" on="1"/>
      </contour>
      <contour>
        <pt x="68" y="34" on="1"/>
        <pt x="272" y="34" on="1"/>
        <pt x="272" y="648" on="1"/>
        <pt x="68" y="648" on="1"/>
      </contour>
    </TTGlyph>
    <TTGlyph name="A" xMin="-62" yMin="-4" xMax="584" yMax="662">
      <contour>
        <pt x="61" y="134" on="1"/>
        <pt x="355" y="624" on="1"/>
        <pt x="362" y="635" on="0"/>
        <pt x="389" y="662" on="0"/>
        <pt x="396" y="662" on="1"/>
        <pt x="412" y="662" on="0"/>
        <pt x="414" y="655" on="1"/>
        <pt x="507" y="148" on="1"/>
        <pt x="510" y="131" on="0"/>
        <pt x="517" y="85" on="0"/>
        <pt x="519" y="76" on="1"/>
        <pt x="522" y="62" on="0"/>
        <pt x="540" y="43" on="0"/>
        <pt x="564" y="35" on="0"/>
        <pt x="579" y="33" on="0"/>
        <pt x="584" y="33" on="1"/>
        <pt x="586" y="27" on="0"/>
        <pt x="581" y="-1" on="0"/>
        <pt x="578" y="-4" on="1"/>
        <pt x="569" y="-4" on="0"/>
        <pt x="479" y="4" on="0"/>
        <pt x="455" y="4" on="1"/>
        <pt x="449" y="4" on="0"/>
        <pt x="313" y="-4" on="1"/>
        <pt x="310" y="0" on="0"/>
        <pt x="317" y="33" on="0"/>
        <pt x="321" y="33" on="1"/>
        <pt x="356" y="33" on="0"/>
        <pt x="379" y="51" on="1"/>
        <pt x="390" y="59" on="0"/>
        <pt x="391" y="68" on="1"/>
        <pt x="392" y="72" on="0"/>
        <pt x="378" y="148" on="0"/>
        <pt x="371" y="184" on="1"/>
        <pt x="364" y="220" on="1"/>
        <pt x="362" y="224" on="0"/>
        <pt x="359" y="224" on="1"/>
        <pt x="342" y="225" on="0"/>
        <pt x="270" y="225" on="1"/>
        <pt x="206" y="225" on="0"/>
        <pt x="173" y="224" on="1"/>
        <pt x="168" y="224" on="0"/>
        <pt x="165" y="219" on="1"/>
        <pt x="131" y="163" on="0"/>
        <pt x="115" y="135" on="1"/>
        <pt x="84" y="79" on="0"/>
        <pt x="80" y="55" on="0"/>
        <pt x="111" y="38" on="0"/>
        <pt x="140" y="33" on="0"/>
        <pt x="147" y="33" on="1"/>
        <pt x="150" y="28" on="0"/>
        <pt x="143" y="-1" on="0"/>
        <pt x="140" y="-4" on="1"/>
        <pt x="76" y="4" on="0"/>
        <pt x="41" y="4" on="1"/>
        <pt x="5" y="4" on="0"/>
        <pt x="-61" y="-4" on="1"/>
        <pt x="-63" y="-1" on="0"/>
        <pt x="-60" y="24" on="0"/>
        <pt x="-56" y="32" on="1"/>
        <pt x="-46" y="32" on="0"/>
        <pt x="7" y="53" on="0"/>
        <pt x="15" y="64" on="1"/>
        <pt x="33" y="88" on="0"/>
      </contour>
      <contour>
        <pt x="315" y="476" on="1"/>
        <pt x="197" y="280" on="1"/>
        <pt x="197" y="276" on="0"/>
        <pt x="199" y="276" on="1"/>
        <pt x="226" y="273" on="0"/>
        <pt x="275" y="273" on="1"/>
        <pt x="321" y="273" on="0"/>
        <pt x="350" y="275" on="1"/>
        <pt x="354" y="280" on="1"/>
      </contour>
    </TTGlyph>
    <TTGlyph name="AE" xMin="-66" yMin="-4" xMax="829" yMax="664">
      <contour>
        <pt x="507" y="657" on="1"/>
        <pt x="529" y="657" on="0"/>
        <pt x="794" y="664" on="0"/>
        <pt x="811" y="664" on="1"/>
        <pt x="813" y="620" on="0"/>
        <pt x="822" y="516" on="1"/>
        <pt x="817" y="511" on="0"/>
        <pt x="800" y="511" on="1"/>
        <pt x="788" y="511" on="0"/>
        <pt x="786" y="519" on="1"/>
        <pt x="774" y="568" on="0"/>
        <pt x="735" y="620" on="0"/>
        <pt x="696" y="620" on="1"/>
        <pt x="619" y="620" on="1"/>
        <pt x="578" y="620" on="0"/>
        <pt x="571" y="608" on="1"/>
        <pt x="565" y="596" on="0"/>
        <pt x="560" y="547" on="1"/>
        <pt x="542" y="360" on="1"/>
        <pt x="542" y="349" on="0"/>
        <pt x="581" y="349" on="1"/>
        <pt x="630" y="349" on="1"/>
        <pt x="671" y="349" on="0"/>
        <pt x="704" y="375" on="0"/>
        <pt x="720" y="419" on="1"/>
        <pt x="723" y="427" on="0"/>
        <pt x="731" y="427" on="1"/>
        <pt x="745" y="427" on="0"/>
        <pt x="748" y="422" on="1"/>
        <pt x="729" y="230" on="1"/>
        <pt x="725" y="226" on="0"/>
        <pt x="712" y="226" on="1"/>
        <pt x="700" y="226" on="0"/>
        <pt x="700" y="234" on="1"/>
        <pt x="694" y="285" on="0"/>
        <pt x="673" y="295" on="1"/>
        <pt x="659" y="302" on="0"/>
        <pt x="604" y="302" on="1"/>
        <pt x="536" y="302" on="0"/>
        <pt x="535" y="288" on="1"/>
        <pt x="519" y="141" on="1"/>
        <pt x="511" y="90" on="0"/>
        <pt x="519" y="62" on="1"/>
        <pt x="525" y="42" on="0"/>
        <pt x="577" y="42" on="1"/>
        <pt x="639" y="42" on="1"/>
        <pt x="695" y="42" on="0"/>
        <pt x="729" y="75" on="1"/>
        <pt x="755" y="100" on="0"/>
        <pt x="788" y="170" on="1"/>
        <pt x="791" y="176" on="0"/>
        <pt x="802" y="176" on="1"/>
        <pt x="825" y="176" on="0"/>
        <pt x="829" y="170" on="1"/>
        <pt x="771" y="34" on="0"/>
        <pt x="762" y="-2" on="1"/>
        <pt x="436" y="-2" on="1"/>
        <pt x="408" y="-2" on="0"/>
        <pt x="350" y="-2" on="0"/>
        <pt x="312" y="-3" on="0"/>
        <pt x="308" y="-3" on="1"/>
        <pt x="305" y="2" on="0"/>
        <pt x="307" y="29" on="0"/>
        <pt x="311" y="34" on="1"/>
        <pt x="367" y="39" on="0"/>
        <pt x="373" y="51" on="1"/>
        <pt x="382" y="71" on="0"/>
        <pt x="389" y="145" on="1"/>
        <pt x="401" y="265" on="1"/>
        <pt x="397" y="269" on="1"/>
        <pt x="380" y="270" on="0"/>
        <pt x="317" y="270" on="1"/>
        <pt x="264" y="270" on="0"/>
        <pt x="231" y="269" on="1"/>
        <pt x="224" y="269" on="0"/>
        <pt x="222" y="264" on="1"/>
        <pt x="151" y="163" on="0"/>
        <pt x="132" y="135" on="1"/>
        <pt x="97" y="80" on="0"/>
        <pt x="93" y="67" on="1"/>
        <pt x="89" y="50" on="0"/>
        <pt x="140" y="33" on="0"/>
        <pt x="155" y="33" on="1"/>
        <pt x="157" y="28" on="0"/>
        <pt x="155" y="-1" on="0"/>
        <pt x="152" y="-4" on="1"/>
        <pt x="88" y="4" on="0"/>
        <pt x="40" y="4" on="1"/>
        <pt x="4" y="4" on="0"/>
        <pt x="-62" y="-4" on="1"/>
        <pt x="-65" y="0" on="0"/>
        <pt x="-66" y="23" on="0"/>
        <pt x="-61" y="32" on="1"/>
        <pt x="-51" y="32" on="0"/>
        <pt x="4" y="53" on="0"/>
        <pt x="13" y="64" on="1"/>
        <pt x="25" y="78" on="0"/>
        <pt x="65" y="134" on="1"/>
        <pt x="381" y="590" on="1"/>
        <pt x="389" y="603" on="0"/>
        <pt x="389" y="608" on="1"/>
        <pt x="389" y="615" on="0"/>
        <pt x="370" y="623" on="0"/>
        <pt x="364" y="623" on="1"/>
        <pt x="361" y="629" on="0"/>
        <pt x="366" y="655" on="0"/>
        <pt x="369" y="660" on="1"/>
        <pt x="410" y="657" on="0"/>
      </contour>
      <contour>
        <pt x="431" y="567" on="1"/>
        <pt x="260" y="325" on="1"/>
        <pt x="260" y="321" on="0"/>
        <pt x="262" y="321" on="1"/>
        <pt x="289" y="318" on="0"/>
        <pt x="326" y="318" on="1"/>
        <pt x="373" y="318" on="0"/>
        <pt x="402" y="320" on="1"/>
        <pt x="407" y="325" on="1"/>
        <pt x="427" y="513" on="1"/>
        <pt x="428" y="527" on="0"/>
      </contour>
    </TTGlyph>
    <TTGlyph name="Aacute" xMin="-61" yMin="-4" xMax="589" yMax="846">
      <component glyphName="acutecomb.cap" x="224" y="-3" flags="0x1004"/>
      <component glyphName="A" x="0" y="0" flags="0x1204"/>
    </TTGlyph>
    <TTGlyph name="Abreve" xMin="-61" yMin="-4" xMax="584" yMax="849">
      <component glyphName="uni0306.cap" x="160" y="23" flags="0x1004"/>
      <component glyphName="A" x="0" y="0" flags="0x1204"/>
    </TTGlyph>
    <TTGlyph name="Acircumflex" xMin="-61" yMin="-4" xMax="584" yMax="870">
      <component glyphName="uni0302.cap" x="98" y="26" flags="0x1004"/>
      <component glyphName="A" x="0" y="0" flags="0x1204"/>
    </TTGlyph>
    <TTGlyph name="Acircumflextilde" xMin="-61" yMin="-4" xMax="592" yMax="911">
      <component glyphName="tildecomb.cap" x="106" y="224" scalex="0.9705" scaley="0.83749" flags="0x1004"/>
      <component glyphName="uni0302.cap" x="95" y="-17" flags="0x1004"/>
      <component glyphName="A" x="0" y="0" flags="0x1204"/>
    </TTGlyph>
    <TTGlyph name="Adieresis" xMin="-61" yMin="-4" xMax="590" yMax="867">
      <component glyphName="uni0308.cap" x="121" y="12" flags="0x1004"/>
      <component glyphName="A" x="0" y="0" flags="0x1204"/>
    </TTGlyph>
    <TTGlyph name="Agrave" xMin="-61" yMin="-4" xMax="584" yMax="846">
      <component glyphName="gravecomb.cap" x="10" y="-3" flags="0x1004"/>
      <component glyphName="A" x="0" y="0" flags="0x1204"/>
    </TTGlyph>
    <TTGlyph name="Ahookabove" xMin="-61" yMin="-4" xMax="584" yMax="889">
      <component glyphName="hookabovecomb.cap" x="224" y="215" flags="0x1004"/>
      <component glyphName="A" x="0" y="0" flags="0x1204"/>
    </TTGlyph>
    <TTGlyph name="Amacron" xMin="-61" yMin="-4" xMax="584" yMax="774">
      <component glyphName="uni0304.cap" x="119" y="174" flags="0x1004"/>
      <component glyphName="A" x="0" y="0" flags="0x1204"/>
    </TTGlyph>
    <TTGlyph name="Aogonek" xMin="-62" yMin="-218" xMax="584" yMax="662">
      <contour>
        <pt x="455" y="4" on="1"/>
        <pt x="406" y="4" on="0"/>
        <pt x="309" y="-76" on="0"/>
        <pt x="309" y="-122" on="1"/>
        <pt x="309" y="-156" on="0"/>
        <pt x="345" y="-156" on="1"/>
        <pt x="360" y="-156" on="0"/>
        <pt x="387" y="-146" on="0"/>
        <pt x="402" y="-135" on="0"/>
        <pt x="410" y="-128" on="1"/>
        <pt x="419" y="-120" on="1"/>
        <pt x="424" y="-121" on="0"/>
        <pt x="424" y="-143" on="0"/>
        <pt x="422" y="-146" on="1"/>
        <pt x="404" y="-176" on="0"/>
        <pt x="339" y="-218" on="0"/>
        <pt x="308" y="-218" on="1"/>
        <pt x="281" y="-218" on="0"/>
        <pt x="248" y="-182" on="0"/>
        <pt x="248" y="-160" on="1"/>
        <pt x="248" y="-148" on="0"/>
        <pt x="253" y="-124" on="0"/>
        <pt x="257" y="-107" on="0"/>
        <pt x="272" y="-82" on="0"/>
        <pt x="277" y="-72" on="0"/>
        <pt x="300" y="-45" on="0"/>
        <pt x="304" y="-39" on="0"/>
        <pt x="333" y="-9" on="0"/>
        <pt x="334" y="-7" on="1"/>
        <pt x="338" y="-3" on="0"/>
        <pt x="369" y="28" on="0"/>
        <pt x="378" y="40" on="0"/>
        <pt x="390" y="67" on="0"/>
        <pt x="390" y="81" on="1"/>
        <pt x="364" y="220" on="1"/>
        <pt x="362" y="224" on="0"/>
        <pt x="359" y="224" on="1"/>
        <pt x="342" y="225" on="0"/>
        <pt x="270" y="225" on="1"/>
        <pt x="206" y="225" on="0"/>
        <pt x="173" y="224" on="1"/>
        <pt x="168" y="224" on="0"/>
        <pt x="165" y="219" on="1"/>
        <pt x="131" y="163" on="0"/>
        <pt x="115" y="135" on="1"/>
        <pt x="84" y="79" on="0"/>
        <pt x="80" y="55" on="0"/>
        <pt x="111" y="38" on="0"/>
        <pt x="140" y="33" on="0"/>
        <pt x="147" y="33" on="1"/>
        <pt x="150" y="28" on="0"/>
        <pt x="143" y="-1" on="0"/>
        <pt x="140" y="-4" on="1"/>
        <pt x="76" y="4" on="0"/>
        <pt x="41" y="4" on="1"/>
        <pt x="5" y="4" on="0"/>
        <pt x="-61" y="-4" on="1"/>
        <pt x="-63" y="-1" on="0"/>
        <pt x="-60" y="24" on="0"/>
        <pt x="-56" y="32" on="1"/>
        <pt x="-46" y="32" on="0"/>
        <pt x="7" y="53" on="0"/>
        <pt x="15" y="64" on="1"/>
        <pt x="33" y="88" on="0"/>
        <pt x="61" y="134" on="1"/>
        <pt x="355" y="624" on="1"/>
        <pt x="362" y="635" on="0"/>
        <pt x="389" y="662" on="0"/>
        <pt x="396" y="662" on="1"/>
        <pt x="412" y="662" on="0"/>
        <pt x="414" y="655" on="1"/>
        <pt x="507" y="148" on="1"/>
        <pt x="510" y="131" on="0"/>
        <pt x="517" y="85" on="0"/>
        <pt x="519" y="76" on="1"/>
        <pt x="522" y="62" on="0"/>
        <pt x="540" y="43" on="0"/>
        <pt x="564" y="35" on="0"/>
        <pt x="579" y="33" on="0"/>
        <pt x="584" y="33" on="1"/>
        <pt x="586" y="27" on="0"/>
        <pt x="581" y="-1" on="0"/>
        <pt x="578" y="-4" on="1"/>
        <pt x="569" y="-4" on="0"/>
        <pt x="479" y="4" on="0"/>
      </contour>
      <contour>
        <pt x="315" y="476" on="1"/>
        <pt x="197" y="280" on="1"/>
        <pt x="197" y="276" on="0"/>
        <pt x="199" y="276" on="1"/>
        <pt x="226" y="273" on="0"/>
        <pt x="275" y="273" on="1"/>
        <pt x="321" y="273" on="0"/>
        <pt x="350" y="275" on="1"/>
        <pt x="354" y="280" on="1"/>
      </contour>
    </TTGlyph>
    <TTGlyph name="Aring" xMin="-61" yMin="-4" xMax="584" yMax="857">
      <component glyphName="uni030A.cap" x="114" y="0" flags="0x1004"/>
      <component glyphName="A" x="0" y="0" flags="0x1204"/>
    </TTGlyph>
    <TTGlyph name="Atilde" xMin="-61" yMin="-4" xMax="584" yMax="820">
      <component glyphName="tildecomb.cap" x="71" y="0" flags="0x1004"/>
      <component glyphName="A" x="0" y="0" flags="0x1204"/>
    </TTGlyph>
    <TTGlyph name="B" xMin="-8" yMin="-3" xMax="553" yMax="660">
      <contour>
        <pt x="262" y="371" on="1"/>
        <pt x="310" y="371" on="1"/>
        <pt x="345" y="371" on="0"/>
        <pt x="401" y="432" on="0"/>
        <pt x="412" y="487" on="1"/>
        <pt x="437" y="620" on="0"/>
        <pt x="361" y="620" on="1"/>
        <pt x="320" y="620" on="0"/>
        <pt x="312" y="608" on="1"/>
        <pt x="307" y="599" on="0"/>
        <pt x="296" y="547" on="1"/>
      </contour>
      <contour>
        <pt x="254" y="332" on="1"/>
        <pt x="211" y="109" on="1"/>
        <pt x="203" y="61" on="0"/>
        <pt x="207" y="51" on="1"/>
        <pt x="212" y="39" on="0"/>
        <pt x="263" y="39" on="1"/>
        <pt x="301" y="39" on="0"/>
        <pt x="374" y="106" on="0"/>
        <pt x="388" y="176" on="1"/>
        <pt x="394" y="215" on="0"/>
        <pt x="390" y="284" on="0"/>
        <pt x="344" y="332" on="0"/>
        <pt x="302" y="332" on="1"/>
      </contour>
      <contour>
        <pt x="396" y="660" on="1"/>
        <pt x="430" y="660" on="0"/>
        <pt x="490" y="643" on="0"/>
        <pt x="540" y="607" on="0"/>
        <pt x="561" y="544" on="0"/>
        <pt x="553" y="502" on="1"/>
        <pt x="546" y="466" on="0"/>
        <pt x="491" y="402" on="0"/>
        <pt x="445" y="373" on="0"/>
        <pt x="426" y="366" on="1"/>
        <pt x="420" y="363" on="0"/>
        <pt x="420" y="360" on="1"/>
        <pt x="465" y="354" on="0"/>
        <pt x="550" y="261" on="0"/>
        <pt x="537" y="192" on="1"/>
        <pt x="527" y="144" on="0"/>
        <pt x="458" y="59" on="0"/>
        <pt x="408" y="30" on="1"/>
        <pt x="379" y="14" on="0"/>
        <pt x="304" y="-2" on="0"/>
        <pt x="254" y="-4" on="0"/>
        <pt x="208" y="-3" on="1"/>
        <pt x="-8" y="-3" on="1"/>
        <pt x="-10" y="2" on="0"/>
        <pt x="-5" y="29" on="0"/>
        <pt x="-1" y="34" on="1"/>
        <pt x="55" y="39" on="0"/>
        <pt x="62" y="51" on="1"/>
        <pt x="73" y="72" on="0"/>
        <pt x="87" y="145" on="1"/>
        <pt x="159" y="513" on="1"/>
        <pt x="173" y="590" on="0"/>
        <pt x="170" y="607" on="1"/>
        <pt x="168" y="618" on="0"/>
        <pt x="113" y="623" on="1"/>
        <pt x="111" y="628" on="0"/>
        <pt x="117" y="655" on="0"/>
        <pt x="121" y="660" on="1"/>
        <pt x="162" y="657" on="0"/>
        <pt x="253" y="657" on="1"/>
        <pt x="271" y="657" on="0"/>
        <pt x="367" y="660" on="0"/>
      </contour>
    </TTGlyph>
    <TTGlyph name="C" xMin="52" yMin="-7" xMax="638" yMax="667">
      <contour>
        <pt x="443" y="624" on="1"/>
        <pt x="342" y="624" on="0"/>
        <pt x="196" y="422" on="0"/>
        <pt x="196" y="268" on="1"/>
        <pt x="196" y="230" on="0"/>
        <pt x="213" y="155" on="0"/>
        <pt x="249" y="82" on="0"/>
        <pt x="319" y="37" on="0"/>
        <pt x="365" y="37" on="1"/>
        <pt x="433" y="37" on="0"/>
        <pt x="485" y="80" on="1"/>
        <pt x="506" y="97" on="0"/>
        <pt x="549" y="157" on="0"/>
        <pt x="571" y="197" on="0"/>
        <pt x="574" y="204" on="1"/>
        <pt x="595" y="204" on="0"/>
        <pt x="605" y="192" on="1"/>
        <pt x="603" y="180" on="0"/>
        <pt x="546" y="45" on="0"/>
        <pt x="537" y="40" on="1"/>
        <pt x="452" y="-7" on="0"/>
        <pt x="337" y="-7" on="1"/>
        <pt x="267" y="-7" on="0"/>
        <pt x="155" y="43" on="0"/>
        <pt x="87" y="126" on="0"/>
        <pt x="52" y="224" on="0"/>
        <pt x="52" y="276" on="1"/>
        <pt x="52" y="366" on="0"/>
        <pt x="124" y="518" on="0"/>
        <pt x="239" y="614" on="0"/>
        <pt x="375" y="667" on="0"/>
        <pt x="443" y="667" on="1"/>
        <pt x="510" y="667" on="0"/>
        <pt x="638" y="638" on="1"/>
        <pt x="638" y="630" on="0"/>
        <pt x="627" y="503" on="0"/>
        <pt x="625" y="494" on="1"/>
        <pt x="624" y="489" on="0"/>
        <pt x="611" y="480" on="0"/>
        <pt x="603" y="480" on="1"/>
        <pt x="594" y="480" on="0"/>
        <pt x="591" y="484" on="1"/>
        <pt x="590" y="502" on="0"/>
        <pt x="576" y="544" on="0"/>
        <pt x="546" y="592" on="0"/>
        <pt x="484" y="624" on="0"/>
      </contour>
    </TTGlyph>
    <TTGlyph name="Cacute" xMin="52" yMin="-7" xMax="638" yMax="846">
      <component glyphName="acutecomb.cap" x="266" y="-3" flags="0x1004"/>
      <component glyphName="C" x="0" y="0" flags="0x1204"/>
    </TTGlyph>
    <TTGlyph name="Ccaron" xMin="52" yMin="-7" xMax="638" yMax="867">
      <component glyphName="uni030C.cap" x="64" y="-3" flags="0x1004"/>
      <component glyphName="C" x="0" y="0" flags="0x1204"/>
    </TTGlyph>
    <TTGlyph name="Ccedilla" xMin="52" yMin="-171" xMax="638" yMax="667">
      <component glyphName="uni0327.cap" x="143" y="1" flags="0x1004"/>
      <component glyphName="C" x="0" y="0" flags="0x1204"/>
    </TTGlyph>
    <TTGlyph name="Ccircumflex" xMin="52" yMin="-7" xMax="638" yMax="870">
      <component glyphName="uni0302.cap" x="138" y="26" flags="0x1004"/>
      <component glyphName="C" x="0" y="0" flags="0x1204"/>
    </TTGlyph>
    <TTGlyph name="Cdotaccent" xMin="52" yMin="-7" xMax="638" yMax="868">
      <component glyphName="uni0307.cap" x="160" y="2" flags="0x1004"/>
      <component glyphName="C" x="0" y="0" flags="0x1204"/>
    </TTGlyph>
    <TTGlyph name="D" xMin="-8" yMin="-3" xMax="686" yMax="660">
      <contour>
        <pt x="296" y="547" on="1"/>
        <pt x="217" y="141" on="1"/>
        <pt x="206" y="76" on="0"/>
        <pt x="209" y="62" on="1"/>
        <pt x="211" y="52" on="0"/>
        <pt x="244" y="39" on="0"/>
        <pt x="263" y="39" on="1"/>
        <pt x="378" y="39" on="0"/>
        <pt x="510" y="169" on="0"/>
        <pt x="538" y="314" on="1"/>
        <pt x="566" y="458" on="0"/>
        <pt x="467" y="620" on="0"/>
        <pt x="361" y="620" on="1"/>
        <pt x="320" y="620" on="0"/>
        <pt x="312" y="608" on="1"/>
        <pt x="307" y="599" on="0"/>
      </contour>
      <contour>
        <pt x="396" y="660" on="1"/>
        <pt x="557" y="660" on="0"/>
        <pt x="716" y="471" on="0"/>
        <pt x="686" y="317" on="1"/>
        <pt x="670" y="232" on="0"/>
        <pt x="589" y="106" on="0"/>
        <pt x="473" y="32" on="0"/>
        <pt x="338" y="-3" on="0"/>
        <pt x="260" y="-3" on="1"/>
        <pt x="-8" y="-3" on="1"/>
        <pt x="-10" y="2" on="0"/>
        <pt x="-5" y="29" on="0"/>
        <pt x="-1" y="34" on="1"/>
        <pt x="55" y="39" on="0"/>
        <pt x="62" y="51" on="1"/>
        <pt x="73" y="72" on="0"/>
        <pt x="87" y="145" on="1"/>
        <pt x="159" y="513" on="1"/>
        <pt x="173" y="590" on="0"/>
        <pt x="170" y="607" on="1"/>
        <pt x="168" y="618" on="0"/>
        <pt x="113" y="623" on="1"/>
        <pt x="111" y="628" on="0"/>
        <pt x="117" y="655" on="0"/>
        <pt x="121" y="660" on="1"/>
        <pt x="162" y="657" on="0"/>
        <pt x="253" y="657" on="1"/>
        <pt x="275" y="657" on="0"/>
        <pt x="378" y="660" on="0"/>
      </contour>
    </TTGlyph>
    <TTGlyph name="Dcaron" xMin="-8" yMin="-3" xMax="686" yMax="867">
      <component glyphName="uni030C.cap" x="-4" y="-3" flags="0x1004"/>
      <component glyphName="D" x="0" y="0" flags="0x1204"/>
    </TTGlyph>
    <TTGlyph name="Dcroat" xMin="-7" yMin="-3" xMax="687" yMax="660">
      <component glyphName="Eth" x="0" y="0" flags="0x1204"/>
    </TTGlyph>
    <TTGlyph name="E" xMin="-8" yMin="-3" xMax="557" yMax="664">
      <contour>
        <pt x="253" y="657" on="1"/>
        <pt x="275" y="657" on="0"/>
        <pt x="540" y="664" on="0"/>
        <pt x="557" y="664" on="1"/>
        <pt x="555" y="631" on="0"/>
        <pt x="555" y="516" on="1"/>
        <pt x="550" y="511" on="0"/>
        <pt x="532" y="511" on="1"/>
        <pt x="521" y="511" on="0"/>
        <pt x="519" y="519" on="1"/>
        <pt x="511" y="568" on="0"/>
        <pt x="477" y="620" on="0"/>
        <pt x="438" y="620" on="1"/>
        <pt x="361" y="620" on="1"/>
        <pt x="320" y="620" on="0"/>
        <pt x="312" y="608" on="1"/>
        <pt x="307" y="599" on="0"/>
        <pt x="296" y="547" on="1"/>
        <pt x="261" y="368" on="1"/>
        <pt x="259" y="357" on="0"/>
        <pt x="299" y="357" on="1"/>
        <pt x="348" y="357" on="1"/>
        <pt x="389" y="357" on="0"/>
        <pt x="424" y="383" on="0"/>
        <pt x="444" y="427" on="1"/>
        <pt x="447" y="435" on="0"/>
        <pt x="456" y="435" on="1"/>
        <pt x="470" y="435" on="0"/>
        <pt x="473" y="430" on="1"/>
        <pt x="436" y="238" on="1"/>
        <pt x="432" y="234" on="0"/>
        <pt x="418" y="234" on="1"/>
        <pt x="407" y="234" on="0"/>
        <pt x="407" y="242" on="1"/>
        <pt x="405" y="294" on="0"/>
        <pt x="386" y="303" on="1"/>
        <pt x="372" y="310" on="0"/>
        <pt x="317" y="310" on="1"/>
        <pt x="249" y="310" on="0"/>
        <pt x="247" y="296" on="1"/>
        <pt x="217" y="141" on="1"/>
        <pt x="206" y="76" on="0"/>
        <pt x="209" y="62" on="1"/>
        <pt x="213" y="42" on="0"/>
        <pt x="265" y="42" on="1"/>
        <pt x="327" y="42" on="1"/>
        <pt x="383" y="42" on="0"/>
        <pt x="420" y="75" on="1"/>
        <pt x="450" y="101" on="0"/>
        <pt x="488" y="170" on="1"/>
        <pt x="491" y="176" on="0"/>
        <pt x="503" y="176" on="1"/>
        <pt x="525" y="176" on="0"/>
        <pt x="529" y="170" on="1"/>
        <pt x="458" y="33" on="0"/>
        <pt x="446" y="-2" on="1"/>
        <pt x="120" y="-2" on="1"/>
        <pt x="92" y="-2" on="0"/>
        <pt x="34" y="-2" on="0"/>
        <pt x="-4" y="-3" on="0"/>
        <pt x="-8" y="-3" on="1"/>
        <pt x="-10" y="2" on="0"/>
        <pt x="-5" y="29" on="0"/>
        <pt x="-1" y="34" on="1"/>
        <pt x="55" y="39" on="0"/>
        <pt x="62" y="51" on="1"/>
        <pt x="73" y="72" on="0"/>
        <pt x="87" y="145" on="1"/>
        <pt x="159" y="513" on="1"/>
        <pt x="173" y="590" on="0"/>
        <pt x="170" y="607" on="1"/>
        <pt x="168" y="618" on="0"/>
        <pt x="113" y="623" on="1"/>
        <pt x="111" y="628" on="0"/>
        <pt x="117" y="655" on="0"/>
        <pt x="121" y="660" on="1"/>
        <pt x="162" y="657" on="0"/>
      </contour>
    </TTGlyph>
    <TTGlyph name="Eacute" xMin="-8" yMin="-3" xMax="557" yMax="833">
      <component glyphName="acutecomb.cap" x="161" y="-16" flags="0x1004"/>
      <component glyphName="E" x="0" y="0" flags="0x1204"/>
    </TTGlyph>
    <TTGlyph name="Ebreve" xMin="-8" yMin="-3" xMax="557" yMax="849">
      <component glyphName="uni0306.cap" x="89" y="23" flags="0x1004"/>
      <component glyphName="E" x="0" y="0" flags="0x1204"/>
    </TTGlyph>
    <TTGlyph name="Ecaron" xMin="-8" yMin="-3" xMax="557" yMax="867">
      <component glyphName="uni030C.cap" x="-20" y="-3" flags="0x1004"/>
      <component glyphName="E" x="0" y="0" flags="0x1204"/>
    </TTGlyph>
    <TTGlyph name="Ecircumflex" xMin="-8" yMin="-3" xMax="557" yMax="870">
      <component glyphName="uni0302.cap" x="50" y="26" flags="0x1004"/>
      <component glyphName="E" x="0" y="0" flags="0x1204"/>
    </TTGlyph>
    <TTGlyph name="Edieresis" xMin="-8" yMin="-3" xMax="557" yMax="867">
      <component glyphName="uni0308.cap" x="83" y="12" flags="0x1004"/>
      <component glyphName="E" x="0" y="0" flags="0x1204"/>
    </TTGlyph>
    <TTGlyph name="Edotaccent" xMin="-8" yMin="-3" xMax="557" yMax="868">
      <component glyphName="uni0307.cap" x="82" y="2" flags="0x1004"/>
      <component glyphName="E" x="0" y="0" flags="0x1204"/>
    </TTGlyph>
    <TTGlyph name="Edotbelow" xMin="-8" yMin="-208" xMax="557" yMax="664">
      <component glyphName="uni0323.cap" x="116" y="-28" flags="0x1004"/>
      <component glyphName="E" x="0" y="0" flags="0x1204"/>
    </TTGlyph>
    <TTGlyph name="Egrave" xMin="-8" yMin="-3" xMax="557" yMax="833">
      <component glyphName="gravecomb.cap" x="21" y="-16" flags="0x1004"/>
      <component glyphName="E" x="0" y="0" flags="0x1204"/>
    </TTGlyph>
    <TTGlyph name="Emacron" xMin="-8" yMin="-3" xMax="557" yMax="774">
      <component glyphName="uni0304.cap" x="70" y="174" flags="0x1004"/>
      <component glyphName="E" x="0" y="0" flags="0x1204"/>
    </TTGlyph>
    <TTGlyph name="Eng" xMin="-18" yMin="-218" xMax="770" yMax="663">
      <contour>
        <pt x="479" y="69" on="1"/>
        <pt x="226" y="519" on="1"/>
        <pt x="156" y="157" on="1"/>
        <pt x="143" y="89" on="0"/>
        <pt x="147" y="60" on="1"/>
        <pt x="149" y="48" on="0"/>
        <pt x="205" y="34" on="0"/>
        <pt x="219" y="34" on="1"/>
        <pt x="225" y="20" on="0"/>
        <pt x="213" y="-4" on="1"/>
        <pt x="203" y="-3" on="0"/>
        <pt x="121" y="4" on="0"/>
        <pt x="73" y="4" on="0"/>
        <pt x="-1" y="-3" on="0"/>
        <pt x="-18" y="-4" on="1"/>
        <pt x="-19" y="0" on="0"/>
        <pt x="-16" y="18" on="0"/>
        <pt x="-11" y="33" on="0"/>
        <pt x="-10" y="33" on="1"/>
        <pt x="4" y="33" on="0"/>
        <pt x="62" y="47" on="0"/>
        <pt x="69" y="59" on="1"/>
        <pt x="87" y="89" on="0"/>
        <pt x="100" y="160" on="1"/>
        <pt x="112" y="226" on="0"/>
        <pt x="156" y="448" on="0"/>
        <pt x="169" y="514" on="1"/>
        <pt x="180" y="577" on="0"/>
        <pt x="169" y="604" on="1"/>
        <pt x="165" y="613" on="0"/>
        <pt x="124" y="625" on="0"/>
        <pt x="112" y="625" on="1"/>
        <pt x="110" y="626" on="0"/>
        <pt x="110" y="641" on="0"/>
        <pt x="114" y="660" on="0"/>
        <pt x="117" y="662" on="1"/>
        <pt x="215" y="655" on="0"/>
        <pt x="221" y="655" on="1"/>
        <pt x="270" y="655" on="0"/>
        <pt x="324" y="662" on="1"/>
        <pt x="331" y="635" on="0"/>
        <pt x="382" y="531" on="0"/>
        <pt x="432" y="441" on="0"/>
        <pt x="521" y="286" on="0"/>
        <pt x="542" y="248" on="1"/>
        <pt x="544" y="254" on="0"/>
        <pt x="552" y="289" on="1"/>
        <pt x="588" y="476" on="1"/>
        <pt x="608" y="585" on="0"/>
        <pt x="603" y="604" on="1"/>
        <pt x="600" y="616" on="0"/>
        <pt x="549" y="626" on="0"/>
        <pt x="532" y="626" on="1"/>
        <pt x="531" y="627" on="0"/>
        <pt x="532" y="640" on="0"/>
        <pt x="536" y="659" on="0"/>
        <pt x="539" y="663" on="1"/>
        <pt x="555" y="662" on="0"/>
        <pt x="627" y="655" on="0"/>
        <pt x="675" y="655" on="0"/>
        <pt x="759" y="662" on="0"/>
        <pt x="770" y="663" on="1"/>
        <pt x="771" y="657" on="0"/>
        <pt x="765" y="632" on="0"/>
        <pt x="760" y="625" on="1"/>
        <pt x="692" y="625" on="0"/>
        <pt x="679" y="602" on="1"/>
        <pt x="674" y="592" on="0"/>
        <pt x="650" y="506" on="0"/>
        <pt x="645" y="479" on="1"/>
        <pt x="579" y="139" on="1"/>
        <pt x="566" y="74" on="0"/>
        <pt x="504" y="-42" on="0"/>
        <pt x="432" y="-119" on="0"/>
        <pt x="350" y="-181" on="0"/>
        <pt x="291" y="-212" on="0"/>
        <pt x="270" y="-218" on="1"/>
        <pt x="259" y="-211" on="0"/>
        <pt x="259" y="-200" on="1"/>
        <pt x="259" y="-196" on="0"/>
        <pt x="261" y="-194" on="1"/>
        <pt x="425" y="-106" on="0"/>
      </contour>
    </TTGlyph>
    <TTGlyph name="Eogonek" xMin="-8" yMin="-218" xMax="557" yMax="664">
      <contour>
        <pt x="232" y="-160" on="1"/>
        <pt x="232" y="-115" on="0"/>
        <pt x="301" y="-23" on="0"/>
        <pt x="353" y="-1" on="1"/>
        <pt x="320" y="-1" on="0"/>
        <pt x="161" y="-2" on="0"/>
        <pt x="124" y="-2" on="1"/>
        <pt x="95" y="-2" on="0"/>
        <pt x="34" y="-2" on="0"/>
        <pt x="-5" y="-3" on="0"/>
        <pt x="-8" y="-3" on="1"/>
        <pt x="-10" y="2" on="0"/>
        <pt x="-5" y="29" on="0"/>
        <pt x="-1" y="34" on="1"/>
        <pt x="55" y="39" on="0"/>
        <pt x="62" y="51" on="1"/>
        <pt x="73" y="72" on="0"/>
        <pt x="87" y="145" on="1"/>
        <pt x="159" y="513" on="1"/>
        <pt x="173" y="590" on="0"/>
        <pt x="170" y="607" on="1"/>
        <pt x="168" y="618" on="0"/>
        <pt x="113" y="623" on="1"/>
        <pt x="111" y="628" on="0"/>
        <pt x="117" y="655" on="0"/>
        <pt x="121" y="660" on="1"/>
        <pt x="162" y="657" on="0"/>
        <pt x="253" y="657" on="1"/>
        <pt x="275" y="657" on="0"/>
        <pt x="540" y="664" on="0"/>
        <pt x="557" y="664" on="1"/>
        <pt x="555" y="631" on="0"/>
        <pt x="555" y="516" on="1"/>
        <pt x="550" y="511" on="0"/>
        <pt x="532" y="511" on="1"/>
        <pt x="521" y="511" on="0"/>
        <pt x="519" y="519" on="1"/>
        <pt x="511" y="568" on="0"/>
        <pt x="477" y="620" on="0"/>
        <pt x="438" y="620" on="1"/>
        <pt x="361" y="620" on="1"/>
        <pt x="320" y="620" on="0"/>
        <pt x="312" y="608" on="1"/>
        <pt x="307" y="599" on="0"/>
        <pt x="296" y="547" on="1"/>
        <pt x="261" y="368" on="1"/>
        <pt x="259" y="357" on="0"/>
        <pt x="299" y="357" on="1"/>
        <pt x="348" y="357" on="1"/>
        <pt x="389" y="357" on="0"/>
        <pt x="424" y="383" on="0"/>
        <pt x="444" y="427" on="1"/>
        <pt x="447" y="435" on="0"/>
        <pt x="456" y="435" on="1"/>
        <pt x="470" y="435" on="0"/>
        <pt x="473" y="430" on="1"/>
        <pt x="436" y="238" on="1"/>
        <pt x="432" y="234" on="0"/>
        <pt x="418" y="234" on="1"/>
        <pt x="407" y="234" on="0"/>
        <pt x="407" y="242" on="1"/>
        <pt x="405" y="294" on="0"/>
        <pt x="386" y="303" on="1"/>
        <pt x="372" y="310" on="0"/>
        <pt x="317" y="310" on="1"/>
        <pt x="249" y="310" on="0"/>
        <pt x="247" y="296" on="1"/>
        <pt x="217" y="141" on="1"/>
        <pt x="206" y="76" on="0"/>
        <pt x="209" y="62" on="1"/>
        <pt x="213" y="42" on="0"/>
        <pt x="265" y="42" on="1"/>
        <pt x="327" y="42" on="1"/>
        <pt x="383" y="42" on="0"/>
        <pt x="420" y="75" on="1"/>
        <pt x="450" y="101" on="0"/>
        <pt x="488" y="170" on="1"/>
        <pt x="491" y="176" on="0"/>
        <pt x="503" y="176" on="1"/>
        <pt x="525" y="176" on="0"/>
        <pt x="529" y="170" on="1"/>
        <pt x="458" y="33" on="0"/>
        <pt x="446" y="-2" on="1"/>
        <pt x="393" y="-2" on="0"/>
        <pt x="293" y="-82" on="0"/>
        <pt x="293" y="-122" on="1"/>
        <pt x="293" y="-156" on="0"/>
        <pt x="329" y="-156" on="1"/>
        <pt x="344" y="-156" on="0"/>
        <pt x="371" y="-146" on="0"/>
        <pt x="386" y="-135" on="0"/>
        <pt x="394" y="-128" on="1"/>
        <pt x="403" y="-120" on="1"/>
        <pt x="408" y="-121" on="0"/>
        <pt x="408" y="-143" on="0"/>
        <pt x="406" y="-146" on="1"/>
        <pt x="388" y="-176" on="0"/>
        <pt x="323" y="-218" on="0"/>
        <pt x="292" y="-218" on="1"/>
        <pt x="265" y="-218" on="0"/>
        <pt x="232" y="-182" on="0"/>
      </contour>
    </TTGlyph>
    <TTGlyph name="Eth" xMin="-7" yMin="-3" xMax="687" yMax="660">
      <contour>
        <pt x="60" y="343" on="1"/>
        <pt x="60" y="343" on="0"/>
        <pt x="390" y="343" on="1"/>
        <pt x="397" y="343" on="0"/>
        <pt x="395" y="335" on="1"/>
        <pt x="391" y="313" on="0"/>
        <pt x="384" y="304" on="1"/>
        <pt x="384" y="304" on="0"/>
        <pt x="53" y="304" on="1"/>
        <pt x="47" y="304" on="0"/>
        <pt x="50" y="315" on="1"/>
        <pt x="54" y="338" on="0"/>
      </contour>
      <contour>
        <pt x="297" y="547" on="1"/>
        <pt x="218" y="141" on="1"/>
        <pt x="207" y="76" on="0"/>
        <pt x="210" y="62" on="1"/>
        <pt x="212" y="52" on="0"/>
        <pt x="245" y="39" on="0"/>
        <pt x="264" y="39" on="1"/>
        <pt x="379" y="39" on="0"/>
        <pt x="511" y="169" on="0"/>
        <pt x="539" y="314" on="1"/>
        <pt x="567" y="458" on="0"/>
        <pt x="468" y="620" on="0"/>
        <pt x="362" y="620" on="1"/>
        <pt x="321" y="620" on="0"/>
        <pt x="313" y="608" on="1"/>
        <pt x="308" y="599" on="0"/>
      </contour>
      <contour>
        <pt x="397" y="660" on="1"/>
        <pt x="558" y="660" on="0"/>
        <pt x="717" y="471" on="0"/>
        <pt x="687" y="317" on="1"/>
        <pt x="671" y="232" on="0"/>
        <pt x="590" y="106" on="0"/>
        <pt x="474" y="32" on="0"/>
        <pt x="339" y="-3" on="0"/>
        <pt x="261" y="-3" on="1"/>
        <pt x="-7" y="-3" on="1"/>
        <pt x="-9" y="2" on="0"/>
        <pt x="-4" y="29" on="0"/>
        <pt x="0" y="34" on="1"/>
        <pt x="56" y="39" on="0"/>
        <pt x="63" y="51" on="1"/>
        <pt x="74" y="72" on="0"/>
        <pt x="88" y="145" on="1"/>
        <pt x="160" y="513" on="1"/>
        <pt x="174" y="590" on="0"/>
        <pt x="171" y="607" on="1"/>
        <pt x="169" y="618" on="0"/>
        <pt x="114" y="623" on="1"/>
        <pt x="112" y="628" on="0"/>
        <pt x="118" y="655" on="0"/>
        <pt x="122" y="660" on="1"/>
        <pt x="163" y="657" on="0"/>
        <pt x="254" y="657" on="1"/>
        <pt x="276" y="657" on="0"/>
        <pt x="379" y="660" on="0"/>
      </contour>
    </TTGlyph>
    <TTGlyph name="Euro" xMin="22" yMin="-7" xMax="646" yMax="667">
      <contour>
        <pt x="26" y="250" on="1"/>
        <pt x="22" y="250" on="0"/>
        <pt x="22" y="258" on="1"/>
        <pt x="22" y="264" on="0"/>
        <pt x="30" y="289" on="0"/>
        <pt x="35" y="293" on="1"/>
        <pt x="71" y="293" on="1"/>
        <pt x="73" y="323" on="0"/>
        <pt x="78" y="351" on="1"/>
        <pt x="41" y="351" on="1"/>
        <pt x="37" y="351" on="0"/>
        <pt x="37" y="359" on="1"/>
        <pt x="37" y="365" on="0"/>
        <pt x="45" y="390" on="0"/>
        <pt x="50" y="394" on="1"/>
        <pt x="88" y="394" on="1"/>
        <pt x="114" y="478" on="0"/>
        <pt x="237" y="606" on="0"/>
        <pt x="381" y="667" on="0"/>
        <pt x="451" y="667" on="1"/>
        <pt x="518" y="667" on="0"/>
        <pt x="646" y="638" on="1"/>
        <pt x="646" y="630" on="0"/>
        <pt x="635" y="503" on="0"/>
        <pt x="633" y="494" on="1"/>
        <pt x="632" y="489" on="0"/>
        <pt x="619" y="480" on="0"/>
        <pt x="611" y="480" on="1"/>
        <pt x="602" y="480" on="0"/>
        <pt x="599" y="484" on="1"/>
        <pt x="598" y="502" on="0"/>
        <pt x="584" y="544" on="0"/>
        <pt x="554" y="592" on="0"/>
        <pt x="492" y="624" on="0"/>
        <pt x="451" y="624" on="1"/>
        <pt x="376" y="624" on="0"/>
        <pt x="254" y="499" on="0"/>
        <pt x="229" y="394" on="1"/>
        <pt x="388" y="394" on="1"/>
        <pt x="391" y="394" on="0"/>
        <pt x="391" y="386" on="1"/>
        <pt x="391" y="363" on="0"/>
        <pt x="379" y="351" on="1"/>
        <pt x="221" y="351" on="1"/>
        <pt x="217" y="323" on="0"/>
        <pt x="216" y="293" on="1"/>
        <pt x="373" y="293" on="1"/>
        <pt x="376" y="293" on="0"/>
        <pt x="376" y="285" on="1"/>
        <pt x="376" y="262" on="0"/>
        <pt x="364" y="250" on="1"/>
        <pt x="215" y="250" on="1"/>
        <pt x="217" y="213" on="0"/>
        <pt x="236" y="143" on="0"/>
        <pt x="270" y="77" on="0"/>
        <pt x="330" y="37" on="0"/>
        <pt x="369" y="37" on="1"/>
        <pt x="440" y="37" on="0"/>
        <pt x="493" y="81" on="1"/>
        <pt x="514" y="98" on="0"/>
        <pt x="555" y="158" on="0"/>
        <pt x="575" y="196" on="0"/>
        <pt x="578" y="204" on="1"/>
        <pt x="599" y="204" on="0"/>
        <pt x="609" y="192" on="1"/>
        <pt x="607" y="180" on="0"/>
        <pt x="550" y="45" on="0"/>
        <pt x="541" y="40" on="1"/>
        <pt x="456" y="-7" on="0"/>
        <pt x="341" y="-7" on="1"/>
        <pt x="280" y="-7" on="0"/>
        <pt x="179" y="37" on="0"/>
        <pt x="114" y="111" on="0"/>
        <pt x="76" y="201" on="0"/>
        <pt x="72" y="250" on="1"/>
      </contour>
    </TTGlyph>
    <TTGlyph name="F" xMin="-9" yMin="-4" xMax="557" yMax="664">
      <contour>
        <pt x="253" y="657" on="1"/>
        <pt x="275" y="657" on="0"/>
        <pt x="540" y="664" on="0"/>
        <pt x="557" y="664" on="1"/>
        <pt x="555" y="631" on="0"/>
        <pt x="555" y="516" on="1"/>
        <pt x="550" y="511" on="0"/>
        <pt x="532" y="511" on="1"/>
        <pt x="521" y="511" on="0"/>
        <pt x="519" y="519" on="1"/>
        <pt x="511" y="568" on="0"/>
        <pt x="477" y="620" on="0"/>
        <pt x="438" y="620" on="1"/>
        <pt x="361" y="620" on="1"/>
        <pt x="320" y="620" on="0"/>
        <pt x="312" y="608" on="1"/>
        <pt x="307" y="599" on="0"/>
        <pt x="296" y="547" on="1"/>
        <pt x="260" y="364" on="1"/>
        <pt x="258" y="353" on="0"/>
        <pt x="298" y="353" on="1"/>
        <pt x="347" y="353" on="1"/>
        <pt x="388" y="353" on="0"/>
        <pt x="423" y="379" on="0"/>
        <pt x="443" y="423" on="1"/>
        <pt x="446" y="431" on="0"/>
        <pt x="455" y="431" on="1"/>
        <pt x="469" y="431" on="0"/>
        <pt x="472" y="426" on="1"/>
        <pt x="435" y="234" on="1"/>
        <pt x="431" y="230" on="0"/>
        <pt x="417" y="230" on="1"/>
        <pt x="406" y="230" on="0"/>
        <pt x="406" y="238" on="1"/>
        <pt x="404" y="290" on="0"/>
        <pt x="385" y="299" on="1"/>
        <pt x="371" y="306" on="0"/>
        <pt x="316" y="306" on="1"/>
        <pt x="248" y="306" on="0"/>
        <pt x="246" y="292" on="1"/>
        <pt x="218" y="145" on="1"/>
        <pt x="204" y="68" on="0"/>
        <pt x="207" y="51" on="1"/>
        <pt x="209" y="38" on="0"/>
        <pt x="271" y="33" on="1"/>
        <pt x="273" y="28" on="0"/>
        <pt x="268" y="1" on="0"/>
        <pt x="264" y="-4" on="1"/>
        <pt x="203" y="3" on="0"/>
        <pt x="124" y="3" on="1"/>
        <pt x="56" y="3" on="0"/>
        <pt x="-9" y="-4" on="1"/>
        <pt x="-11" y="1" on="0"/>
        <pt x="-5" y="28" on="0"/>
        <pt x="-1" y="33" on="1"/>
        <pt x="55" y="38" on="0"/>
        <pt x="62" y="51" on="1"/>
        <pt x="73" y="72" on="0"/>
        <pt x="87" y="145" on="1"/>
        <pt x="159" y="513" on="1"/>
        <pt x="173" y="590" on="0"/>
        <pt x="170" y="607" on="1"/>
        <pt x="168" y="618" on="0"/>
        <pt x="113" y="623" on="1"/>
        <pt x="111" y="628" on="0"/>
        <pt x="117" y="655" on="0"/>
        <pt x="121" y="660" on="1"/>
        <pt x="162" y="657" on="0"/>
      </contour>
    </TTGlyph>
    <TTGlyph name="G" xMin="52" yMin="-7" xMax="663" yMax="667">
      <contour>
        <pt x="443" y="667" on="1"/>
        <pt x="510" y="667" on="0"/>
        <pt x="638" y="638" on="1"/>
        <pt x="638" y="630" on="0"/>
        <pt x="627" y="503" on="0"/>
        <pt x="625" y="494" on="1"/>
        <pt x="624" y="489" on="0"/>
        <pt x="611" y="480" on="0"/>
        <pt x="603" y="480" on="1"/>
        <pt x="594" y="480" on="0"/>
        <pt x="591" y="484" on="1"/>
        <pt x="590" y="502" on="0"/>
        <pt x="576" y="544" on="0"/>
        <pt x="545" y="592" on="0"/>
        <pt x="484" y="624" on="0"/>
        <pt x="443" y="624" on="1"/>
        <pt x="342" y="624" on="0"/>
        <pt x="196" y="422" on="0"/>
        <pt x="196" y="268" on="1"/>
        <pt x="196" y="230" on="0"/>
        <pt x="213" y="155" on="0"/>
        <pt x="249" y="82" on="0"/>
        <pt x="319" y="37" on="0"/>
        <pt x="365" y="37" on="1"/>
        <pt x="404" y="37" on="0"/>
        <pt x="422" y="50" on="1"/>
        <pt x="429" y="56" on="0"/>
        <pt x="432" y="67" on="1"/>
        <pt x="433" y="73" on="0"/>
        <pt x="441" y="116" on="0"/>
        <pt x="452" y="177" on="0"/>
        <pt x="456" y="196" on="1"/>
        <pt x="462" y="226" on="0"/>
        <pt x="461" y="247" on="1"/>
        <pt x="459" y="274" on="0"/>
        <pt x="400" y="274" on="1"/>
        <pt x="398" y="275" on="0"/>
        <pt x="399" y="290" on="0"/>
        <pt x="404" y="309" on="0"/>
        <pt x="407" y="311" on="1"/>
        <pt x="548" y="305" on="0"/>
        <pt x="553" y="305" on="1"/>
        <pt x="570" y="305" on="0"/>
        <pt x="607" y="307" on="0"/>
        <pt x="650" y="310" on="0"/>
        <pt x="663" y="311" on="1"/>
        <pt x="664" y="302" on="0"/>
        <pt x="657" y="274" on="0"/>
        <pt x="655" y="274" on="1"/>
        <pt x="630" y="274" on="0"/>
        <pt x="608" y="261" on="1"/>
        <pt x="596" y="253" on="0"/>
        <pt x="589" y="218" on="1"/>
        <pt x="570" y="116" on="0"/>
        <pt x="566" y="98" on="1"/>
        <pt x="565" y="93" on="0"/>
        <pt x="566" y="71" on="0"/>
        <pt x="566" y="69" on="1"/>
        <pt x="565" y="61" on="0"/>
        <pt x="540" y="41" on="0"/>
        <pt x="529" y="36" on="1"/>
        <pt x="441" y="-7" on="0"/>
        <pt x="337" y="-7" on="1"/>
        <pt x="267" y="-7" on="0"/>
        <pt x="155" y="43" on="0"/>
        <pt x="87" y="126" on="0"/>
        <pt x="52" y="224" on="0"/>
        <pt x="52" y="276" on="1"/>
        <pt x="52" y="366" on="0"/>
        <pt x="124" y="518" on="0"/>
        <pt x="239" y="614" on="0"/>
        <pt x="375" y="667" on="0"/>
      </contour>
    </TTGlyph>
    <TTGlyph name="Gbreve" xMin="52" yMin="-7" xMax="663" yMax="849">
      <component glyphName="uni0306.cap" x="182" y="23" flags="0x1004"/>
      <component glyphName="G" x="0" y="0" flags="0x1204"/>
    </TTGlyph>
    <TTGlyph name="Gcaron" xMin="52" yMin="-7" xMax="663" yMax="867">
      <component glyphName="uni030C.cap" x="47" y="-3" flags="0x1004"/>
      <component glyphName="G" x="0" y="0" flags="0x1204"/>
    </TTGlyph>
    <TTGlyph name="Gcircumflex" xMin="52" yMin="-7" xMax="663" yMax="867">
      <component glyphName="uni0302.cap" x="145" y="23" flags="0x1004"/>
      <component glyphName="G" x="0" y="0" flags="0x1204"/>
    </TTGlyph>
    <TTGlyph name="Gcommaaccent" xMin="52" yMin="-218" xMax="663" yMax="667">
      <component glyphName="uni0326" x="583" y="0" flags="0x1004"/>
      <component glyphName="G" x="0" y="0" flags="0x1204"/>
    </TTGlyph>
    <TTGlyph name="Gdotaccent" xMin="52" yMin="-7" xMax="663" yMax="868">
      <component glyphName="uni0307.cap" x="147" y="2" flags="0x1004"/>
      <component glyphName="G" x="0" y="0" flags="0x1204"/>
    </TTGlyph>
    <TTGlyph name="H" xMin="-9" yMin="-4" xMax="739" yMax="662">
      <contour>
        <pt x="253" y="655" on="1"/>
        <pt x="320" y="655" on="0"/>
        <pt x="385" y="662" on="1"/>
        <pt x="387" y="657" on="0"/>
        <pt x="382" y="630" on="0"/>
        <pt x="378" y="625" on="1"/>
        <pt x="322" y="620" on="0"/>
        <pt x="315" y="607" on="1"/>
        <pt x="302" y="584" on="0"/>
        <pt x="289" y="513" on="1"/>
        <pt x="262" y="371" on="1"/>
        <pt x="263" y="368" on="1"/>
        <pt x="371" y="365" on="0"/>
        <pt x="375" y="365" on="1"/>
        <pt x="382" y="365" on="0"/>
        <pt x="484" y="368" on="1"/>
        <pt x="487" y="370" on="0"/>
        <pt x="487" y="372" on="1"/>
        <pt x="513" y="513" on="1"/>
        <pt x="527" y="590" on="0"/>
        <pt x="524" y="607" on="1"/>
        <pt x="522" y="621" on="0"/>
        <pt x="468" y="625" on="1"/>
        <pt x="466" y="630" on="0"/>
        <pt x="471" y="657" on="0"/>
        <pt x="475" y="662" on="1"/>
        <pt x="536" y="655" on="0"/>
        <pt x="607" y="655" on="1"/>
        <pt x="674" y="655" on="0"/>
        <pt x="739" y="662" on="1"/>
        <pt x="741" y="657" on="0"/>
        <pt x="736" y="630" on="0"/>
        <pt x="732" y="625" on="1"/>
        <pt x="676" y="620" on="0"/>
        <pt x="669" y="607" on="1"/>
        <pt x="656" y="584" on="0"/>
        <pt x="643" y="513" on="1"/>
        <pt x="572" y="145" on="1"/>
        <pt x="558" y="68" on="0"/>
        <pt x="561" y="51" on="1"/>
        <pt x="563" y="37" on="0"/>
        <pt x="617" y="33" on="1"/>
        <pt x="619" y="28" on="0"/>
        <pt x="614" y="1" on="0"/>
        <pt x="610" y="-4" on="1"/>
        <pt x="549" y="3" on="0"/>
        <pt x="478" y="3" on="1"/>
        <pt x="411" y="3" on="0"/>
        <pt x="346" y="-4" on="1"/>
        <pt x="344" y="1" on="0"/>
        <pt x="349" y="28" on="0"/>
        <pt x="353" y="33" on="1"/>
        <pt x="409" y="38" on="0"/>
        <pt x="416" y="51" on="1"/>
        <pt x="429" y="74" on="0"/>
        <pt x="442" y="145" on="1"/>
        <pt x="474" y="310" on="1"/>
        <pt x="473" y="315" on="1"/>
        <pt x="405" y="317" on="0"/>
        <pt x="365" y="317" on="1"/>
        <pt x="257" y="317" on="0"/>
        <pt x="251" y="313" on="1"/>
        <pt x="249" y="309" on="1"/>
        <pt x="218" y="145" on="1"/>
        <pt x="204" y="68" on="0"/>
        <pt x="207" y="51" on="1"/>
        <pt x="209" y="37" on="0"/>
        <pt x="263" y="33" on="1"/>
        <pt x="265" y="28" on="0"/>
        <pt x="260" y="1" on="0"/>
        <pt x="256" y="-4" on="1"/>
        <pt x="195" y="3" on="0"/>
        <pt x="124" y="3" on="1"/>
        <pt x="56" y="3" on="0"/>
        <pt x="-9" y="-4" on="1"/>
        <pt x="-11" y="1" on="0"/>
        <pt x="-5" y="28" on="0"/>
        <pt x="-1" y="33" on="1"/>
        <pt x="55" y="38" on="0"/>
        <pt x="62" y="51" on="1"/>
        <pt x="73" y="72" on="0"/>
        <pt x="87" y="145" on="1"/>
        <pt x="159" y="513" on="1"/>
        <pt x="173" y="590" on="0"/>
        <pt x="170" y="607" on="1"/>
        <pt x="168" y="621" on="0"/>
        <pt x="114" y="625" on="1"/>
        <pt x="112" y="630" on="0"/>
        <pt x="117" y="657" on="0"/>
        <pt x="121" y="662" on="1"/>
        <pt x="182" y="655" on="0"/>
      </contour>
    </TTGlyph>
    <TTGlyph name="Hbar" xMin="-9" yMin="-4" xMax="739" yMax="662">
      <contour>
        <pt x="107" y="516" on="1"/>
        <pt x="107" y="516" on="0"/>
        <pt x="698" y="516" on="1"/>
        <pt x="703" y="516" on="0"/>
        <pt x="701" y="508" on="1"/>
        <pt x="697" y="488" on="0"/>
        <pt x="690" y="477" on="1"/>
        <pt x="690" y="477" on="0"/>
        <pt x="98" y="477" on="1"/>
        <pt x="96" y="477" on="0"/>
        <pt x="95" y="485" on="0"/>
        <pt x="96" y="488" on="1"/>
        <pt x="100" y="508" on="0"/>
      </contour>
      <contour>
        <pt x="253" y="655" on="1"/>
        <pt x="320" y="655" on="0"/>
        <pt x="385" y="662" on="1"/>
        <pt x="387" y="657" on="0"/>
        <pt x="382" y="630" on="0"/>
        <pt x="378" y="625" on="1"/>
        <pt x="322" y="620" on="0"/>
        <pt x="315" y="607" on="1"/>
        <pt x="302" y="584" on="0"/>
        <pt x="289" y="513" on="1"/>
        <pt x="262" y="371" on="1"/>
        <pt x="263" y="368" on="1"/>
        <pt x="371" y="365" on="0"/>
        <pt x="375" y="365" on="1"/>
        <pt x="382" y="365" on="0"/>
        <pt x="484" y="368" on="1"/>
        <pt x="487" y="370" on="0"/>
        <pt x="487" y="372" on="1"/>
        <pt x="513" y="513" on="1"/>
        <pt x="527" y="590" on="0"/>
        <pt x="524" y="607" on="1"/>
        <pt x="522" y="621" on="0"/>
        <pt x="468" y="625" on="1"/>
        <pt x="466" y="630" on="0"/>
        <pt x="471" y="657" on="0"/>
        <pt x="475" y="662" on="1"/>
        <pt x="536" y="655" on="0"/>
        <pt x="607" y="655" on="1"/>
        <pt x="674" y="655" on="0"/>
        <pt x="739" y="662" on="1"/>
        <pt x="741" y="657" on="0"/>
        <pt x="736" y="630" on="0"/>
        <pt x="732" y="625" on="1"/>
        <pt x="676" y="620" on="0"/>
        <pt x="669" y="607" on="1"/>
        <pt x="656" y="584" on="0"/>
        <pt x="643" y="513" on="1"/>
        <pt x="572" y="145" on="1"/>
        <pt x="558" y="68" on="0"/>
        <pt x="561" y="51" on="1"/>
        <pt x="563" y="37" on="0"/>
        <pt x="617" y="33" on="1"/>
        <pt x="619" y="28" on="0"/>
        <pt x="614" y="1" on="0"/>
        <pt x="610" y="-4" on="1"/>
        <pt x="549" y="3" on="0"/>
        <pt x="478" y="3" on="1"/>
        <pt x="411" y="3" on="0"/>
        <pt x="346" y="-4" on="1"/>
        <pt x="344" y="1" on="0"/>
        <pt x="349" y="28" on="0"/>
        <pt x="353" y="33" on="1"/>
        <pt x="409" y="38" on="0"/>
        <pt x="416" y="51" on="1"/>
        <pt x="429" y="74" on="0"/>
        <pt x="442" y="145" on="1"/>
        <pt x="474" y="310" on="1"/>
        <pt x="473" y="315" on="1"/>
        <pt x="405" y="317" on="0"/>
        <pt x="365" y="317" on="1"/>
        <pt x="257" y="317" on="0"/>
        <pt x="251" y="313" on="1"/>
        <pt x="249" y="309" on="1"/>
        <pt x="218" y="145" on="1"/>
        <pt x="204" y="68" on="0"/>
        <pt x="207" y="51" on="1"/>
        <pt x="209" y="37" on="0"/>
        <pt x="263" y="33" on="1"/>
        <pt x="265" y="28" on="0"/>
        <pt x="260" y="1" on="0"/>
        <pt x="256" y="-4" on="1"/>
        <pt x="195" y="3" on="0"/>
        <pt x="124" y="3" on="1"/>
        <pt x="56" y="3" on="0"/>
        <pt x="-9" y="-4" on="1"/>
        <pt x="-11" y="1" on="0"/>
        <pt x="-5" y="28" on="0"/>
        <pt x="-1" y="33" on="1"/>
        <pt x="55" y="38" on="0"/>
        <pt x="62" y="51" on="1"/>
        <pt x="73" y="72" on="0"/>
        <pt x="87" y="145" on="1"/>
        <pt x="159" y="513" on="1"/>
        <pt x="173" y="590" on="0"/>
        <pt x="170" y="607" on="1"/>
        <pt x="168" y="621" on="0"/>
        <pt x="114" y="625" on="1"/>
        <pt x="112" y="630" on="0"/>
        <pt x="117" y="657" on="0"/>
        <pt x="121" y="662" on="1"/>
        <pt x="182" y="655" on="0"/>
      </contour>
    </TTGlyph>
    <TTGlyph name="Hcircumflex" xMin="-9" yMin="-4" xMax="739" yMax="870">
      <component glyphName="uni0302.cap" x="127" y="26" flags="0x1004"/>
      <component glyphName="H" x="0" y="0" flags="0x1204"/>
    </TTGlyph>
    <TTGlyph name="I" xMin="-9" yMin="-4" xMax="385" yMax="662">
      <contour>
        <pt x="253" y="655" on="1"/>
        <pt x="320" y="655" on="0"/>
        <pt x="385" y="662" on="1"/>
        <pt x="387" y="657" on="0"/>
        <pt x="382" y="630" on="0"/>
        <pt x="378" y="625" on="1"/>
        <pt x="322" y="620" on="0"/>
        <pt x="315" y="607" on="1"/>
        <pt x="302" y="584" on="0"/>
        <pt x="289" y="513" on="1"/>
        <pt x="218" y="145" on="1"/>
        <pt x="204" y="68" on="0"/>
        <pt x="207" y="51" on="1"/>
        <pt x="209" y="37" on="0"/>
        <pt x="263" y="33" on="1"/>
        <pt x="265" y="28" on="0"/>
        <pt x="260" y="1" on="0"/>
        <pt x="256" y="-4" on="1"/>
        <pt x="195" y="3" on="0"/>
        <pt x="124" y="3" on="1"/>
        <pt x="56" y="3" on="0"/>
        <pt x="-9" y="-4" on="1"/>
        <pt x="-11" y="1" on="0"/>
        <pt x="-5" y="28" on="0"/>
        <pt x="-1" y="33" on="1"/>
        <pt x="55" y="38" on="0"/>
        <pt x="62" y="51" on="1"/>
        <pt x="73" y="72" on="0"/>
        <pt x="87" y="145" on="1"/>
        <pt x="159" y="513" on="1"/>
        <pt x="173" y="590" on="0"/>
        <pt x="170" y="607" on="1"/>
        <pt x="168" y="621" on="0"/>
        <pt x="114" y="625" on="1"/>
        <pt x="112" y="630" on="0"/>
        <pt x="117" y="657" on="0"/>
        <pt x="121" y="662" on="1"/>
        <pt x="182" y="655" on="0"/>
      </contour>
    </TTGlyph>
    <TTGlyph name="IJ" xMin="-9" yMin="-218" xMax="631" yMax="662">
      <component glyphName="J" x="252" y="0" flags="0x1004"/>
      <component glyphName="I" x="0" y="0" flags="0x1004"/>
    </TTGlyph>
    <TTGlyph name="Iacute" xMin="-9" yMin="-4" xMax="393" yMax="833">
      <component glyphName="acutecomb.cap" x="28" y="-16" flags="0x1004"/>
      <component glyphName="I" x="0" y="0" flags="0x1204"/>
    </TTGlyph>
    <TTGlyph name="Ibreve" xMin="-9" yMin="-4" xMax="388" yMax="849">
      <component glyphName="uni0306.cap" x="1" y="23" flags="0x1004"/>
      <component glyphName="I" x="0" y="0" flags="0x1204"/>
    </TTGlyph>
    <TTGlyph name="Icircumflex" xMin="-9" yMin="-4" xMax="394" yMax="870">
      <component glyphName="uni0302.cap" x="-47" y="26" flags="0x1004"/>
      <component glyphName="I" x="0" y="0" flags="0x1204"/>
    </TTGlyph>
    <TTGlyph name="Idieresis" xMin="-9" yMin="-4" xMax="445" yMax="867">
      <component glyphName="uni0308.cap" x="-24" y="12" flags="0x1004"/>
      <component glyphName="I" x="0" y="0" flags="0x1204"/>
    </TTGlyph>
    <TTGlyph name="Idotaccent" xMin="-9" yMin="-4" xMax="385" yMax="868">
      <component glyphName="uni0307.cap" x="-21" y="2" flags="0x1004"/>
      <component glyphName="I" x="0" y="0" flags="0x1204"/>
    </TTGlyph>
    <TTGlyph name="Igrave" xMin="-9" yMin="-4" xMax="385" yMax="833">
      <component glyphName="gravecomb.cap" x="-71" y="-16" flags="0x1004"/>
      <component glyphName="I" x="0" y="0" flags="0x1204"/>
    </TTGlyph>
    <TTGlyph name="Imacron" xMin="-9" yMin="-4" xMax="399" yMax="771">
      <component glyphName="uni0304.cap" x="-23" y="171" flags="0x1004"/>
      <component glyphName="I" x="0" y="0" flags="0x1204"/>
    </TTGlyph>
    <TTGlyph name="Iogonek" xMin="-9" yMin="-218" xMax="385" yMax="662">
      <contour>
        <pt x="263" y="33" on="1"/>
        <pt x="265" y="28" on="0"/>
        <pt x="260" y="1" on="0"/>
        <pt x="256" y="-4" on="1"/>
        <pt x="208" y="-4" on="0"/>
        <pt x="192" y="-6" on="1"/>
        <pt x="152" y="-11" on="0"/>
        <pt x="73" y="-84" on="0"/>
        <pt x="73" y="-122" on="1"/>
        <pt x="73" y="-156" on="0"/>
        <pt x="109" y="-156" on="1"/>
        <pt x="124" y="-156" on="0"/>
        <pt x="151" y="-146" on="0"/>
        <pt x="166" y="-135" on="0"/>
        <pt x="174" y="-128" on="1"/>
        <pt x="183" y="-120" on="1"/>
        <pt x="188" y="-121" on="0"/>
        <pt x="188" y="-143" on="0"/>
        <pt x="186" y="-146" on="1"/>
        <pt x="168" y="-176" on="0"/>
        <pt x="103" y="-218" on="0"/>
        <pt x="72" y="-218" on="1"/>
        <pt x="45" y="-218" on="0"/>
        <pt x="12" y="-182" on="0"/>
        <pt x="12" y="-160" on="1"/>
        <pt x="12" y="-108" on="0"/>
        <pt x="91" y="-15" on="0"/>
        <pt x="129" y="4" on="1"/>
        <pt x="59" y="4" on="0"/>
        <pt x="-9" y="-4" on="1"/>
        <pt x="-11" y="1" on="0"/>
        <pt x="-5" y="28" on="0"/>
        <pt x="-1" y="33" on="1"/>
        <pt x="55" y="38" on="0"/>
        <pt x="62" y="51" on="1"/>
        <pt x="73" y="72" on="0"/>
        <pt x="87" y="145" on="1"/>
        <pt x="159" y="513" on="1"/>
        <pt x="173" y="590" on="0"/>
        <pt x="170" y="607" on="1"/>
        <pt x="168" y="621" on="0"/>
        <pt x="114" y="625" on="1"/>
        <pt x="112" y="630" on="0"/>
        <pt x="117" y="657" on="0"/>
        <pt x="121" y="662" on="1"/>
        <pt x="182" y="655" on="0"/>
        <pt x="253" y="655" on="1"/>
        <pt x="320" y="655" on="0"/>
        <pt x="385" y="662" on="1"/>
        <pt x="387" y="657" on="0"/>
        <pt x="382" y="630" on="0"/>
        <pt x="378" y="625" on="1"/>
        <pt x="322" y="620" on="0"/>
        <pt x="315" y="607" on="1"/>
        <pt x="302" y="584" on="0"/>
        <pt x="289" y="513" on="1"/>
        <pt x="218" y="145" on="1"/>
        <pt x="204" y="68" on="0"/>
        <pt x="207" y="51" on="1"/>
        <pt x="209" y="37" on="0"/>
      </contour>
    </TTGlyph>
    <TTGlyph name="Itilde" xMin="-9" yMin="-4" xMax="422" yMax="820">
      <component glyphName="tildecomb.cap" x="-78" y="0" flags="0x1004"/>
      <component glyphName="I" x="0" y="0" flags="0x1204"/>
    </TTGlyph>
    <TTGlyph name="J" xMin="-109" yMin="-218" xMax="379" yMax="662">
      <contour>
        <pt x="247" y="655" on="1"/>
        <pt x="314" y="655" on="0"/>
        <pt x="379" y="662" on="1"/>
        <pt x="381" y="657" on="0"/>
        <pt x="376" y="630" on="0"/>
        <pt x="372" y="625" on="1"/>
        <pt x="316" y="620" on="0"/>
        <pt x="309" y="607" on="1"/>
        <pt x="296" y="584" on="0"/>
        <pt x="283" y="513" on="1"/>
        <pt x="211" y="143" on="1"/>
        <pt x="196" y="63" on="0"/>
        <pt x="111" y="-75" on="0"/>
        <pt x="11" y="-160" on="0"/>
        <pt x="-71" y="-210" on="0"/>
        <pt x="-98" y="-218" on="1"/>
        <pt x="-109" y="-211" on="0"/>
        <pt x="-109" y="-200" on="1"/>
        <pt x="-109" y="-196" on="0"/>
        <pt x="-107" y="-194" on="1"/>
        <pt x="-32" y="-153" on="0"/>
        <pt x="55" y="6" on="0"/>
        <pt x="80" y="135" on="1"/>
        <pt x="153" y="513" on="1"/>
        <pt x="167" y="590" on="0"/>
        <pt x="164" y="607" on="1"/>
        <pt x="162" y="621" on="0"/>
        <pt x="108" y="625" on="1"/>
        <pt x="106" y="630" on="0"/>
        <pt x="111" y="657" on="0"/>
        <pt x="115" y="662" on="1"/>
        <pt x="176" y="655" on="0"/>
      </contour>
    </TTGlyph>
    <TTGlyph name="Jcircumflex" xMin="-109" yMin="-218" xMax="391" yMax="867">
      <component glyphName="uni0302.cap" x="-50" y="23" flags="0x1004"/>
      <component glyphName="J" x="0" y="0" flags="0x1204"/>
    </TTGlyph>
    <TTGlyph name="K" xMin="-9" yMin="-6" xMax="727" yMax="662">
      <contour>
        <pt x="521" y="141" on="1"/>
        <pt x="596" y="29" on="0"/>
        <pt x="660" y="29" on="1"/>
        <pt x="665" y="18" on="0"/>
        <pt x="655" y="-2" on="1"/>
        <pt x="601" y="-6" on="0"/>
        <pt x="590" y="-6" on="1"/>
        <pt x="517" y="-6" on="0"/>
        <pt x="438" y="37" on="0"/>
        <pt x="401" y="92" on="1"/>
        <pt x="400" y="93" on="0"/>
        <pt x="267" y="302" on="1"/>
        <pt x="264" y="306" on="0"/>
        <pt x="252" y="306" on="0"/>
        <pt x="248" y="300" on="1"/>
        <pt x="218" y="145" on="1"/>
        <pt x="204" y="68" on="0"/>
        <pt x="207" y="51" on="1"/>
        <pt x="209" y="37" on="0"/>
        <pt x="263" y="33" on="1"/>
        <pt x="265" y="28" on="0"/>
        <pt x="260" y="1" on="0"/>
        <pt x="256" y="-4" on="1"/>
        <pt x="195" y="3" on="0"/>
        <pt x="124" y="3" on="1"/>
        <pt x="56" y="3" on="0"/>
        <pt x="-9" y="-4" on="1"/>
        <pt x="-11" y="1" on="0"/>
        <pt x="-5" y="28" on="0"/>
        <pt x="-1" y="33" on="1"/>
        <pt x="55" y="38" on="0"/>
        <pt x="62" y="51" on="1"/>
        <pt x="73" y="72" on="0"/>
        <pt x="87" y="145" on="1"/>
        <pt x="159" y="513" on="1"/>
        <pt x="173" y="590" on="0"/>
        <pt x="170" y="607" on="1"/>
        <pt x="168" y="621" on="0"/>
        <pt x="114" y="625" on="1"/>
        <pt x="112" y="630" on="0"/>
        <pt x="117" y="657" on="0"/>
        <pt x="121" y="662" on="1"/>
        <pt x="182" y="655" on="0"/>
        <pt x="253" y="655" on="1"/>
        <pt x="320" y="655" on="0"/>
        <pt x="385" y="662" on="1"/>
        <pt x="387" y="657" on="0"/>
        <pt x="382" y="630" on="0"/>
        <pt x="378" y="625" on="1"/>
        <pt x="322" y="620" on="0"/>
        <pt x="315" y="607" on="1"/>
        <pt x="302" y="584" on="0"/>
        <pt x="289" y="513" on="1"/>
        <pt x="255" y="337" on="1"/>
        <pt x="329" y="391" on="0"/>
        <pt x="369" y="428" on="1"/>
        <pt x="481" y="528" on="0"/>
        <pt x="518" y="570" on="1"/>
        <pt x="531" y="584" on="0"/>
        <pt x="534" y="603" on="1"/>
        <pt x="538" y="626" on="0"/>
        <pt x="486" y="626" on="1"/>
        <pt x="480" y="642" on="0"/>
        <pt x="491" y="662" on="1"/>
        <pt x="610" y="655" on="0"/>
        <pt x="611" y="655" on="1"/>
        <pt x="666" y="655" on="0"/>
        <pt x="727" y="662" on="1"/>
        <pt x="730" y="638" on="0"/>
        <pt x="719" y="627" on="1"/>
        <pt x="644" y="619" on="0"/>
        <pt x="605" y="583" on="1"/>
        <pt x="465" y="455" on="0"/>
        <pt x="380" y="376" on="1"/>
        <pt x="371" y="367" on="0"/>
        <pt x="375" y="360" on="1"/>
        <pt x="388" y="338" on="0"/>
      </contour>
    </TTGlyph>
    <TTGlyph name="Kcommaaccent" xMin="-9" yMin="-218" xMax="727" yMax="662">
      <component glyphName="uni0326" x="578" y="0" flags="0x1004"/>
      <component glyphName="K" x="0" y="0" flags="0x1204"/>
    </TTGlyph>
    <TTGlyph name="L" xMin="-8" yMin="-3" xMax="529" yMax="662">
      <contour>
        <pt x="217" y="141" on="1"/>
        <pt x="206" y="76" on="0"/>
        <pt x="209" y="62" on="1"/>
        <pt x="213" y="42" on="0"/>
        <pt x="265" y="42" on="1"/>
        <pt x="327" y="42" on="1"/>
        <pt x="383" y="42" on="0"/>
        <pt x="420" y="75" on="1"/>
        <pt x="450" y="101" on="0"/>
        <pt x="488" y="170" on="1"/>
        <pt x="491" y="176" on="0"/>
        <pt x="503" y="176" on="1"/>
        <pt x="525" y="176" on="0"/>
        <pt x="529" y="170" on="1"/>
        <pt x="458" y="33" on="0"/>
        <pt x="446" y="-2" on="1"/>
        <pt x="446" y="-2" on="0"/>
        <pt x="124" y="-2" on="1"/>
        <pt x="95" y="-2" on="0"/>
        <pt x="35" y="-2" on="0"/>
        <pt x="-4" y="-3" on="0"/>
        <pt x="-8" y="-3" on="1"/>
        <pt x="-10" y="2" on="0"/>
        <pt x="-5" y="29" on="0"/>
        <pt x="-1" y="34" on="1"/>
        <pt x="55" y="39" on="0"/>
        <pt x="62" y="51" on="1"/>
        <pt x="73" y="72" on="0"/>
        <pt x="87" y="145" on="1"/>
        <pt x="159" y="513" on="1"/>
        <pt x="173" y="590" on="0"/>
        <pt x="170" y="607" on="1"/>
        <pt x="168" y="621" on="0"/>
        <pt x="114" y="625" on="1"/>
        <pt x="112" y="630" on="0"/>
        <pt x="117" y="657" on="0"/>
        <pt x="121" y="662" on="1"/>
        <pt x="182" y="655" on="0"/>
        <pt x="253" y="655" on="1"/>
        <pt x="320" y="655" on="0"/>
        <pt x="385" y="662" on="1"/>
        <pt x="387" y="657" on="0"/>
        <pt x="382" y="630" on="0"/>
        <pt x="378" y="625" on="1"/>
        <pt x="322" y="620" on="0"/>
        <pt x="315" y="607" on="1"/>
        <pt x="302" y="584" on="0"/>
        <pt x="289" y="513" on="1"/>
      </contour>
    </TTGlyph>
    <TTGlyph name="Lacute" xMin="-8" yMin="-3" xMax="529" yMax="833">
      <component glyphName="acutecomb.cap" x="30" y="-16" flags="0x1004"/>
      <component glyphName="L" x="0" y="0" flags="0x1204"/>
    </TTGlyph>
    <TTGlyph name="Lcaron" xMin="-8" yMin="-3" xMax="618" yMax="695">
      <component glyphName="uni0315" x="377" y="14" flags="0x1004"/>
      <component glyphName="L" x="0" y="0" flags="0x1004"/>
    </TTGlyph>
    <TTGlyph name="Lcommaaccent" xMin="-8" yMin="-218" xMax="529" yMax="662">
      <component glyphName="uni0326" x="482" y="0" flags="0x1004"/>
      <component glyphName="L" x="0" y="0" flags="0x1204"/>
    </TTGlyph>
    <TTGlyph name="Ldot" xMin="-8" yMin="-3" xMax="538" yMax="662">
      <component glyphName="uni0307" x="725" y="-230" flags="0x1004"/>
      <component glyphName="L" x="0" y="0" flags="0x1204"/>
    </TTGlyph>
    <TTGlyph name="Lslash" xMin="-7" yMin="-3" xMax="530" yMax="662">
      <contour>
        <pt x="51" y="210" on="1"/>
        <pt x="424" y="450" on="1"/>
        <pt x="428" y="445" on="0"/>
        <pt x="439" y="418" on="0"/>
        <pt x="436" y="416" on="1"/>
        <pt x="63" y="178" on="1"/>
        <pt x="45" y="205" on="0"/>
      </contour>
      <contour>
        <pt x="218" y="141" on="1"/>
        <pt x="207" y="76" on="0"/>
        <pt x="210" y="62" on="1"/>
        <pt x="214" y="42" on="0"/>
        <pt x="266" y="42" on="1"/>
        <pt x="328" y="42" on="1"/>
        <pt x="384" y="42" on="0"/>
        <pt x="421" y="75" on="1"/>
        <pt x="451" y="101" on="0"/>
        <pt x="489" y="170" on="1"/>
        <pt x="492" y="176" on="0"/>
        <pt x="504" y="176" on="1"/>
        <pt x="526" y="176" on="0"/>
        <pt x="530" y="170" on="1"/>
        <pt x="459" y="33" on="0"/>
        <pt x="447" y="-2" on="1"/>
        <pt x="125" y="-2" on="1"/>
        <pt x="96" y="-2" on="0"/>
        <pt x="36" y="-2" on="0"/>
        <pt x="-3" y="-3" on="0"/>
        <pt x="-7" y="-3" on="1"/>
        <pt x="-9" y="2" on="0"/>
        <pt x="-4" y="29" on="0"/>
        <pt x="0" y="34" on="1"/>
        <pt x="56" y="39" on="0"/>
        <pt x="63" y="51" on="1"/>
        <pt x="74" y="72" on="0"/>
        <pt x="88" y="145" on="1"/>
        <pt x="160" y="513" on="1"/>
        <pt x="174" y="590" on="0"/>
        <pt x="171" y="607" on="1"/>
        <pt x="169" y="621" on="0"/>
        <pt x="115" y="625" on="1"/>
        <pt x="113" y="630" on="0"/>
        <pt x="118" y="657" on="0"/>
        <pt x="122" y="662" on="1"/>
        <pt x="183" y="655" on="0"/>
        <pt x="254" y="655" on="1"/>
        <pt x="321" y="655" on="0"/>
        <pt x="386" y="662" on="1"/>
        <pt x="388" y="657" on="0"/>
        <pt x="383" y="630" on="0"/>
        <pt x="379" y="625" on="1"/>
        <pt x="323" y="620" on="0"/>
        <pt x="316" y="607" on="1"/>
        <pt x="303" y="584" on="0"/>
        <pt x="290" y="513" on="1"/>
      </contour>
    </TTGlyph>
    <TTGlyph name="M" xMin="-27" yMin="-4" xMax="875" yMax="662">
      <contour>
        <pt x="242" y="656" on="1"/>
        <pt x="260" y="656" on="0"/>
        <pt x="328" y="661" on="0"/>
        <pt x="340" y="662" on="1"/>
        <pt x="364" y="559" on="0"/>
        <pt x="434" y="238" on="1"/>
        <pt x="436" y="236" on="0"/>
        <pt x="438" y="236" on="0"/>
        <pt x="442" y="241" on="0"/>
        <pt x="442" y="242" on="1"/>
        <pt x="548" y="426" on="0"/>
        <pt x="611" y="546" on="1"/>
        <pt x="663" y="658" on="1"/>
        <pt x="687" y="655" on="0"/>
        <pt x="763" y="655" on="1"/>
        <pt x="781" y="655" on="0"/>
        <pt x="861" y="661" on="0"/>
        <pt x="873" y="662" on="1"/>
        <pt x="876" y="659" on="0"/>
        <pt x="874" y="630" on="0"/>
        <pt x="870" y="624" on="1"/>
        <pt x="836" y="624" on="0"/>
        <pt x="819" y="613" on="1"/>
        <pt x="803" y="603" on="0"/>
        <pt x="798" y="572" on="1"/>
        <pt x="796" y="562" on="0"/>
        <pt x="741" y="228" on="0"/>
        <pt x="730" y="152" on="1"/>
        <pt x="719" y="79" on="0"/>
        <pt x="723" y="51" on="1"/>
        <pt x="725" y="42" on="0"/>
        <pt x="766" y="33" on="0"/>
        <pt x="778" y="33" on="1"/>
        <pt x="782" y="14" on="0"/>
        <pt x="773" y="-4" on="1"/>
        <pt x="765" y="-4" on="0"/>
        <pt x="672" y="4" on="0"/>
        <pt x="648" y="4" on="1"/>
        <pt x="623" y="4" on="0"/>
        <pt x="509" y="-4" on="0"/>
        <pt x="500" y="-4" on="1"/>
        <pt x="498" y="-1" on="0"/>
        <pt x="503" y="27" on="0"/>
        <pt x="506" y="33" on="1"/>
        <pt x="520" y="33" on="0"/>
        <pt x="567" y="43" on="0"/>
        <pt x="574" y="52" on="1"/>
        <pt x="585" y="67" on="0"/>
        <pt x="589" y="87" on="1"/>
        <pt x="590" y="91" on="0"/>
        <pt x="593" y="113" on="0"/>
        <pt x="598" y="141" on="0"/>
        <pt x="599" y="148" on="1"/>
        <pt x="658" y="497" on="1"/>
        <pt x="660" y="502" on="0"/>
        <pt x="661" y="520" on="0"/>
        <pt x="657" y="523" on="1"/>
        <pt x="655" y="523" on="0"/>
        <pt x="651" y="516" on="1"/>
        <pt x="394" y="40" on="1"/>
        <pt x="388" y="29" on="0"/>
        <pt x="357" y="-2" on="0"/>
        <pt x="346" y="-2" on="1"/>
        <pt x="344" y="-2" on="0"/>
        <pt x="338" y="0" on="1"/>
        <pt x="232" y="523" on="1"/>
        <pt x="210" y="424" on="0"/>
        <pt x="164" y="216" on="0"/>
        <pt x="145" y="134" on="1"/>
        <pt x="135" y="90" on="0"/>
        <pt x="135" y="65" on="1"/>
        <pt x="136" y="52" on="0"/>
        <pt x="197" y="33" on="0"/>
        <pt x="210" y="33" on="1"/>
        <pt x="213" y="14" on="0"/>
        <pt x="204" y="-4" on="1"/>
        <pt x="193" y="-3" on="0"/>
        <pt x="115" y="4" on="0"/>
        <pt x="67" y="4" on="0"/>
        <pt x="-11" y="-3" on="0"/>
        <pt x="-27" y="-4" on="1"/>
        <pt x="-31" y="11" on="0"/>
        <pt x="-21" y="32" on="1"/>
        <pt x="-6" y="32" on="0"/>
        <pt x="55" y="51" on="0"/>
        <pt x="75" y="85" on="0"/>
        <pt x="93" y="156" on="1"/>
        <pt x="105" y="208" on="0"/>
        <pt x="149" y="395" on="0"/>
        <pt x="189" y="570" on="0"/>
        <pt x="192" y="581" on="1"/>
        <pt x="194" y="596" on="0"/>
        <pt x="191" y="603" on="1"/>
        <pt x="187" y="611" on="0"/>
        <pt x="148" y="625" on="0"/>
        <pt x="135" y="625" on="1"/>
        <pt x="132" y="630" on="0"/>
        <pt x="140" y="660" on="0"/>
        <pt x="142" y="662" on="1"/>
        <pt x="156" y="661" on="0"/>
        <pt x="218" y="656" on="0"/>
      </contour>
    </TTGlyph>
    <TTGlyph name="N" xMin="-18" yMin="-5" xMax="770" yMax="663">
      <contour>
        <pt x="221" y="655" on="1"/>
        <pt x="270" y="655" on="0"/>
        <pt x="324" y="662" on="1"/>
        <pt x="331" y="635" on="0"/>
        <pt x="382" y="531" on="0"/>
        <pt x="432" y="441" on="0"/>
        <pt x="521" y="286" on="0"/>
        <pt x="542" y="248" on="1"/>
        <pt x="544" y="254" on="0"/>
        <pt x="552" y="289" on="1"/>
        <pt x="588" y="476" on="1"/>
        <pt x="608" y="585" on="0"/>
        <pt x="603" y="604" on="1"/>
        <pt x="600" y="616" on="0"/>
        <pt x="549" y="626" on="0"/>
        <pt x="532" y="626" on="1"/>
        <pt x="531" y="627" on="0"/>
        <pt x="532" y="640" on="0"/>
        <pt x="536" y="659" on="0"/>
        <pt x="539" y="663" on="1"/>
        <pt x="555" y="662" on="0"/>
        <pt x="627" y="655" on="0"/>
        <pt x="675" y="655" on="0"/>
        <pt x="759" y="662" on="0"/>
        <pt x="770" y="663" on="1"/>
        <pt x="771" y="657" on="0"/>
        <pt x="765" y="632" on="0"/>
        <pt x="760" y="625" on="1"/>
        <pt x="692" y="625" on="0"/>
        <pt x="679" y="602" on="1"/>
        <pt x="674" y="592" on="0"/>
        <pt x="650" y="506" on="0"/>
        <pt x="645" y="479" on="1"/>
        <pt x="579" y="139" on="1"/>
        <pt x="571" y="98" on="0"/>
        <pt x="556" y="-1" on="1"/>
        <pt x="552" y="-5" on="0"/>
        <pt x="532" y="-5" on="1"/>
        <pt x="520" y="-5" on="0"/>
        <pt x="508" y="18" on="1"/>
        <pt x="226" y="519" on="1"/>
        <pt x="156" y="157" on="1"/>
        <pt x="143" y="89" on="0"/>
        <pt x="147" y="60" on="1"/>
        <pt x="149" y="48" on="0"/>
        <pt x="205" y="34" on="0"/>
        <pt x="219" y="34" on="1"/>
        <pt x="225" y="20" on="0"/>
        <pt x="213" y="-4" on="1"/>
        <pt x="203" y="-3" on="0"/>
        <pt x="121" y="4" on="0"/>
        <pt x="73" y="4" on="0"/>
        <pt x="-1" y="-3" on="0"/>
        <pt x="-18" y="-4" on="1"/>
        <pt x="-19" y="0" on="0"/>
        <pt x="-16" y="18" on="0"/>
        <pt x="-11" y="33" on="0"/>
        <pt x="-10" y="33" on="1"/>
        <pt x="4" y="33" on="0"/>
        <pt x="62" y="47" on="0"/>
        <pt x="69" y="59" on="1"/>
        <pt x="87" y="89" on="0"/>
        <pt x="100" y="160" on="1"/>
        <pt x="112" y="226" on="0"/>
        <pt x="156" y="448" on="0"/>
        <pt x="169" y="514" on="1"/>
        <pt x="181" y="577" on="0"/>
        <pt x="169" y="604" on="1"/>
        <pt x="165" y="613" on="0"/>
        <pt x="124" y="625" on="0"/>
        <pt x="112" y="625" on="1"/>
        <pt x="110" y="626" on="0"/>
        <pt x="110" y="641" on="0"/>
        <pt x="114" y="660" on="0"/>
        <pt x="117" y="662" on="1"/>
        <pt x="215" y="655" on="0"/>
      </contour>
    </TTGlyph>
    <TTGlyph name="Nacute" xMin="-18" yMin="-5" xMax="770" yMax="846">
      <component glyphName="acutecomb.cap" x="264" y="-3" flags="0x1004"/>
      <component glyphName="N" x="0" y="0" flags="0x1204"/>
    </TTGlyph>
    <TTGlyph name="Ncaron" xMin="-18" yMin="-5" xMax="770" yMax="867">
      <component glyphName="uni030C.cap" x="56" y="-3" flags="0x1004"/>
      <component glyphName="N" x="0" y="0" flags="0x1204"/>
    </TTGlyph>
    <TTGlyph name="Ncommaaccent" xMin="-18" yMin="-218" xMax="770" yMax="663">
      <component glyphName="uni0326" x="552" y="0" flags="0x1004"/>
      <component glyphName="N" x="0" y="0" flags="0x1204"/>
    </TTGlyph>
    <TTGlyph name="Ntilde" xMin="-18" yMin="-5" xMax="770" yMax="820">
      <component glyphName="tildecomb.cap" x="92" y="0" flags="0x1004"/>
      <component glyphName="N" x="0" y="0" flags="0x1204"/>
    </TTGlyph>
    <TTGlyph name="O" xMin="49" yMin="-10" xMax="679" yMax="667">
      <contour>
        <pt x="402" y="624" on="1"/>
        <pt x="337" y="624" on="0"/>
        <pt x="238" y="500" on="0"/>
        <pt x="193" y="331" on="0"/>
        <pt x="193" y="244" on="1"/>
        <pt x="193" y="151" on="0"/>
        <pt x="259" y="33" on="0"/>
        <pt x="326" y="33" on="1"/>
        <pt x="390" y="33" on="0"/>
        <pt x="489" y="155" on="0"/>
        <pt x="535" y="324" on="0"/>
        <pt x="535" y="410" on="1"/>
        <pt x="535" y="502" on="0"/>
        <pt x="466" y="624" on="0"/>
      </contour>
      <contour>
        <pt x="424" y="667" on="1"/>
        <pt x="540" y="667" on="0"/>
        <pt x="679" y="498" on="0"/>
        <pt x="679" y="393" on="1"/>
        <pt x="679" y="301" on="0"/>
        <pt x="606" y="144" on="0"/>
        <pt x="492" y="45" on="0"/>
        <pt x="359" y="-10" on="0"/>
        <pt x="295" y="-10" on="1"/>
        <pt x="191" y="-10" on="0"/>
        <pt x="49" y="150" on="0"/>
        <pt x="49" y="261" on="1"/>
        <pt x="49" y="350" on="0"/>
        <pt x="120" y="507" on="0"/>
        <pt x="230" y="609" on="0"/>
        <pt x="361" y="667" on="0"/>
      </contour>
    </TTGlyph>
    <TTGlyph name="OE" xMin="51" yMin="-10" xMax="963" yMax="667">
      <contour>
        <pt x="421" y="624" on="1"/>
        <pt x="356" y="624" on="0"/>
        <pt x="249" y="501" on="0"/>
        <pt x="195" y="329" on="0"/>
        <pt x="195" y="244" on="1"/>
        <pt x="195" y="151" on="0"/>
        <pt x="259" y="33" on="0"/>
        <pt x="324" y="33" on="1"/>
        <pt x="472" y="33" on="0"/>
        <pt x="492" y="139" on="1"/>
        <pt x="535" y="360" on="0"/>
        <pt x="557" y="472" on="1"/>
        <pt x="571" y="545" on="0"/>
        <pt x="526" y="589" on="1"/>
        <pt x="490" y="624" on="0"/>
      </contour>
      <contour>
        <pt x="549" y="-2" on="1"/>
        <pt x="498" y="-2" on="0"/>
        <pt x="427" y="-6" on="1"/>
        <pt x="353" y="-10" on="0"/>
        <pt x="297" y="-10" on="1"/>
        <pt x="193" y="-10" on="0"/>
        <pt x="51" y="150" on="0"/>
        <pt x="51" y="261" on="1"/>
        <pt x="51" y="443" on="0"/>
        <pt x="277" y="667" on="0"/>
        <pt x="443" y="667" on="1"/>
        <pt x="496" y="667" on="0"/>
        <pt x="606" y="657" on="0"/>
        <pt x="637" y="657" on="1"/>
        <pt x="660" y="657" on="0"/>
        <pt x="951" y="664" on="0"/>
        <pt x="963" y="664" on="1"/>
        <pt x="961" y="628" on="0"/>
        <pt x="961" y="610" on="1"/>
        <pt x="961" y="516" on="1"/>
        <pt x="956" y="511" on="0"/>
        <pt x="938" y="511" on="1"/>
        <pt x="927" y="511" on="0"/>
        <pt x="925" y="519" on="1"/>
        <pt x="917" y="568" on="0"/>
        <pt x="883" y="620" on="0"/>
        <pt x="844" y="620" on="1"/>
        <pt x="767" y="620" on="1"/>
        <pt x="726" y="620" on="0"/>
        <pt x="718" y="608" on="1"/>
        <pt x="713" y="599" on="0"/>
        <pt x="702" y="547" on="1"/>
        <pt x="667" y="368" on="1"/>
        <pt x="665" y="357" on="0"/>
        <pt x="705" y="357" on="1"/>
        <pt x="754" y="357" on="1"/>
        <pt x="795" y="357" on="0"/>
        <pt x="830" y="383" on="0"/>
        <pt x="850" y="427" on="1"/>
        <pt x="853" y="435" on="0"/>
        <pt x="862" y="435" on="1"/>
        <pt x="876" y="435" on="0"/>
        <pt x="879" y="430" on="1"/>
        <pt x="842" y="238" on="1"/>
        <pt x="838" y="234" on="0"/>
        <pt x="824" y="234" on="1"/>
        <pt x="813" y="234" on="0"/>
        <pt x="813" y="242" on="1"/>
        <pt x="811" y="294" on="0"/>
        <pt x="792" y="303" on="1"/>
        <pt x="778" y="310" on="0"/>
        <pt x="723" y="310" on="1"/>
        <pt x="655" y="310" on="0"/>
        <pt x="653" y="296" on="1"/>
        <pt x="623" y="141" on="1"/>
        <pt x="612" y="76" on="0"/>
        <pt x="615" y="62" on="1"/>
        <pt x="619" y="42" on="0"/>
        <pt x="671" y="42" on="1"/>
        <pt x="733" y="42" on="1"/>
        <pt x="789" y="42" on="0"/>
        <pt x="826" y="75" on="1"/>
        <pt x="856" y="101" on="0"/>
        <pt x="894" y="170" on="1"/>
        <pt x="897" y="176" on="0"/>
        <pt x="909" y="176" on="1"/>
        <pt x="931" y="176" on="0"/>
        <pt x="935" y="170" on="1"/>
        <pt x="864" y="33" on="0"/>
        <pt x="852" y="-2" on="1"/>
      </contour>
    </TTGlyph>
    <TTGlyph name="Oacute" xMin="49" yMin="-10" xMax="679" yMax="833">
      <component glyphName="acutecomb.cap" x="215" y="-16" flags="0x1004"/>
      <component glyphName="O" x="0" y="0" flags="0x1204"/>
    </TTGlyph>
    <TTGlyph name="Obreve" xMin="49" yMin="-10" xMax="679" yMax="849">
      <component glyphName="uni0306.cap" x="171" y="23" flags="0x1004"/>
      <component glyphName="O" x="0" y="0" flags="0x1204"/>
    </TTGlyph>
    <TTGlyph name="Ocircumflex" xMin="49" yMin="-10" xMax="679" yMax="870">
      <component glyphName="uni0302.cap" x="106" y="26" flags="0x1004"/>
      <component glyphName="O" x="0" y="0" flags="0x1204"/>
    </TTGlyph>
    <TTGlyph name="Odieresis" xMin="49" yMin="-10" xMax="679" yMax="867">
      <component glyphName="uni0308.cap" x="142" y="12" flags="0x1004"/>
      <component glyphName="O" x="0" y="0" flags="0x1204"/>
    </TTGlyph>
    <TTGlyph name="Ograve" xMin="49" yMin="-10" xMax="679" yMax="833">
      <component glyphName="gravecomb.cap" x="48" y="-16" flags="0x1004"/>
      <component glyphName="O" x="0" y="0" flags="0x1204"/>
    </TTGlyph>
    <TTGlyph name="Ohorn" xMin="49" yMin="-10" xMax="757" yMax="712">
      <contour>
        <pt x="402" y="624" on="1"/>
        <pt x="337" y="624" on="0"/>
        <pt x="238" y="500" on="0"/>
        <pt x="193" y="331" on="0"/>
        <pt x="193" y="244" on="1"/>
        <pt x="193" y="151" on="0"/>
        <pt x="259" y="33" on="0"/>
        <pt x="326" y="33" on="1"/>
        <pt x="390" y="33" on="0"/>
        <pt x="489" y="155" on="0"/>
        <pt x="535" y="324" on="0"/>
        <pt x="535" y="410" on="1"/>
        <pt x="535" y="502" on="0"/>
        <pt x="466" y="624" on="0"/>
      </contour>
      <contour>
        <pt x="572" y="618" on="1"/>
        <pt x="622" y="595" on="0"/>
        <pt x="643" y="596" on="1"/>
        <pt x="659" y="597" on="0"/>
        <pt x="682" y="611" on="0"/>
        <pt x="684" y="621" on="1"/>
        <pt x="685" y="631" on="0"/>
        <pt x="663" y="660" on="0"/>
        <pt x="666" y="677" on="1"/>
        <pt x="670" y="701" on="0"/>
        <pt x="728" y="723" on="0"/>
        <pt x="748" y="709" on="1"/>
        <pt x="757" y="685" on="0"/>
        <pt x="757" y="678" on="1"/>
        <pt x="758" y="628" on="0"/>
        <pt x="675" y="559" on="0"/>
        <pt x="629" y="556" on="1"/>
        <pt x="679" y="482" on="0"/>
        <pt x="679" y="393" on="1"/>
        <pt x="679" y="301" on="0"/>
        <pt x="606" y="144" on="0"/>
        <pt x="492" y="45" on="0"/>
        <pt x="359" y="-10" on="0"/>
        <pt x="295" y="-10" on="1"/>
        <pt x="191" y="-10" on="0"/>
        <pt x="49" y="150" on="0"/>
        <pt x="49" y="261" on="1"/>
        <pt x="49" y="350" on="0"/>
        <pt x="120" y="507" on="0"/>
        <pt x="230" y="609" on="0"/>
        <pt x="361" y="667" on="0"/>
        <pt x="424" y="667" on="1"/>
        <pt x="508" y="667" on="0"/>
      </contour>
    </TTGlyph>
    <TTGlyph name="Ohungarumlaut" xMin="49" yMin="-10" xMax="706" yMax="833">
      <component glyphName="uni030B.cap" x="151" y="-16" flags="0x1004"/>
      <component glyphName="O" x="0" y="0" flags="0x1204"/>
    </TTGlyph>
    <TTGlyph name="Omacron" xMin="49" yMin="-10" xMax="679" yMax="771">
      <component glyphName="uni0304.cap" x="147" y="171" flags="0x1004"/>
      <component glyphName="O" x="0" y="0" flags="0x1204"/>
    </TTGlyph>
    <TTGlyph name="Oslash" xMin="49" yMin="-13" xMax="679" yMax="669">
      <contour>
        <pt x="104" y="-13" on="1"/>
        <pt x="97" y="-10" on="0"/>
        <pt x="77" y="8" on="0"/>
        <pt x="80" y="12" on="1"/>
        <pt x="596" y="669" on="1"/>
        <pt x="603" y="667" on="0"/>
        <pt x="624" y="649" on="0"/>
        <pt x="621" y="645" on="1"/>
      </contour>
      <contour>
        <pt x="402" y="624" on="1"/>
        <pt x="337" y="624" on="0"/>
        <pt x="238" y="500" on="0"/>
        <pt x="193" y="331" on="0"/>
        <pt x="193" y="244" on="1"/>
        <pt x="193" y="151" on="0"/>
        <pt x="259" y="33" on="0"/>
        <pt x="326" y="33" on="1"/>
        <pt x="390" y="33" on="0"/>
        <pt x="489" y="155" on="0"/>
        <pt x="535" y="324" on="0"/>
        <pt x="535" y="410" on="1"/>
        <pt x="535" y="502" on="0"/>
        <pt x="466" y="624" on="0"/>
      </contour>
      <contour>
        <pt x="424" y="667" on="1"/>
        <pt x="540" y="667" on="0"/>
        <pt x="679" y="498" on="0"/>
        <pt x="679" y="393" on="1"/>
        <pt x="679" y="301" on="0"/>
        <pt x="606" y="144" on="0"/>
        <pt x="492" y="45" on="0"/>
        <pt x="359" y="-10" on="0"/>
        <pt x="295" y="-10" on="1"/>
        <pt x="191" y="-10" on="0"/>
        <pt x="49" y="150" on="0"/>
        <pt x="49" y="261" on="1"/>
        <pt x="49" y="350" on="0"/>
        <pt x="120" y="507" on="0"/>
        <pt x="230" y="609" on="0"/>
        <pt x="361" y="667" on="0"/>
      </contour>
    </TTGlyph>
    <TTGlyph name="Otilde" xMin="49" yMin="-10" xMax="679" yMax="820">
      <component glyphName="tildecomb.cap" x="85" y="0" flags="0x1004"/>
      <component glyphName="O" x="0" y="0" flags="0x1204"/>
    </TTGlyph>
    <TTGlyph name="P" xMin="-9" yMin="-4" xMax="573" yMax="660">
      <contour>
        <pt x="573" y="465" on="1"/>
        <pt x="557" y="381" on="0"/>
        <pt x="413" y="286" on="0"/>
        <pt x="334" y="286" on="1"/>
        <pt x="308" y="286" on="0"/>
        <pt x="287" y="301" on="1"/>
        <pt x="284" y="303" on="0"/>
        <pt x="277" y="320" on="0"/>
        <pt x="277" y="324" on="1"/>
        <pt x="277" y="331" on="0"/>
        <pt x="282" y="331" on="1"/>
        <pt x="294" y="327" on="0"/>
        <pt x="312" y="327" on="1"/>
        <pt x="347" y="327" on="0"/>
        <pt x="422" y="403" on="0"/>
        <pt x="432" y="451" on="1"/>
        <pt x="445" y="520" on="0"/>
        <pt x="406" y="620" on="0"/>
        <pt x="361" y="620" on="1"/>
        <pt x="320" y="620" on="0"/>
        <pt x="312" y="608" on="1"/>
        <pt x="307" y="599" on="0"/>
        <pt x="296" y="547" on="1"/>
        <pt x="218" y="145" on="1"/>
        <pt x="204" y="68" on="0"/>
        <pt x="207" y="51" on="1"/>
        <pt x="209" y="37" on="0"/>
        <pt x="263" y="33" on="1"/>
        <pt x="265" y="28" on="0"/>
        <pt x="260" y="1" on="0"/>
        <pt x="256" y="-4" on="1"/>
        <pt x="195" y="3" on="0"/>
        <pt x="124" y="3" on="1"/>
        <pt x="56" y="3" on="0"/>
        <pt x="-9" y="-4" on="1"/>
        <pt x="-11" y="1" on="0"/>
        <pt x="-5" y="28" on="0"/>
        <pt x="-1" y="33" on="1"/>
        <pt x="55" y="38" on="0"/>
        <pt x="62" y="51" on="1"/>
        <pt x="73" y="72" on="0"/>
        <pt x="87" y="145" on="1"/>
        <pt x="159" y="513" on="1"/>
        <pt x="173" y="590" on="0"/>
        <pt x="170" y="607" on="1"/>
        <pt x="168" y="618" on="0"/>
        <pt x="113" y="623" on="1"/>
        <pt x="111" y="628" on="0"/>
        <pt x="117" y="655" on="0"/>
        <pt x="121" y="660" on="1"/>
        <pt x="162" y="657" on="0"/>
        <pt x="253" y="657" on="1"/>
        <pt x="270" y="657" on="0"/>
        <pt x="368" y="660" on="0"/>
        <pt x="397" y="660" on="1"/>
        <pt x="484" y="660" on="0"/>
        <pt x="589" y="545" on="0"/>
      </contour>
    </TTGlyph>
    <TTGlyph name="Q" xMin="50" yMin="-140" xMax="693" yMax="667">
      <contour>
        <pt x="425" y="667" on="1"/>
        <pt x="541" y="667" on="0"/>
        <pt x="680" y="498" on="0"/>
        <pt x="680" y="393" on="1"/>
        <pt x="680" y="246" on="0"/>
        <pt x="518" y="50" on="0"/>
        <pt x="406" y="10" on="1"/>
        <pt x="419" y="3" on="0"/>
        <pt x="478" y="-34" on="0"/>
        <pt x="503" y="-46" on="0"/>
        <pt x="550" y="-66" on="0"/>
        <pt x="595" y="-73" on="0"/>
        <pt x="623" y="-73" on="1"/>
        <pt x="650" y="-73" on="0"/>
        <pt x="674" y="-66" on="1"/>
        <pt x="686" y="-66" on="0"/>
        <pt x="693" y="-76" on="1"/>
        <pt x="676" y="-90" on="0"/>
        <pt x="572" y="-140" on="0"/>
        <pt x="535" y="-140" on="1"/>
        <pt x="488" y="-140" on="0"/>
        <pt x="396" y="-98" on="0"/>
        <pt x="278" y="-26" on="0"/>
        <pt x="234" y="-8" on="1"/>
        <pt x="147" y="28" on="0"/>
        <pt x="50" y="171" on="0"/>
        <pt x="50" y="261" on="1"/>
        <pt x="50" y="350" on="0"/>
        <pt x="121" y="507" on="0"/>
        <pt x="231" y="609" on="0"/>
        <pt x="362" y="667" on="0"/>
      </contour>
      <contour>
        <pt x="403" y="624" on="1"/>
        <pt x="338" y="624" on="0"/>
        <pt x="239" y="500" on="0"/>
        <pt x="194" y="331" on="0"/>
        <pt x="194" y="244" on="1"/>
        <pt x="194" y="151" on="0"/>
        <pt x="260" y="33" on="0"/>
        <pt x="327" y="33" on="1"/>
        <pt x="391" y="33" on="0"/>
        <pt x="490" y="155" on="0"/>
        <pt x="536" y="324" on="0"/>
        <pt x="536" y="410" on="1"/>
        <pt x="536" y="502" on="0"/>
        <pt x="467" y="624" on="0"/>
      </contour>
    </TTGlyph>
    <TTGlyph name="R" xMin="-9" yMin="-8" xMax="637" yMax="660">
      <contour>
        <pt x="253" y="657" on="1"/>
        <pt x="270" y="657" on="0"/>
        <pt x="368" y="660" on="0"/>
        <pt x="397" y="660" on="1"/>
        <pt x="486" y="660" on="0"/>
        <pt x="579" y="549" on="0"/>
        <pt x="561" y="458" on="1"/>
        <pt x="553" y="418" on="0"/>
        <pt x="484" y="352" on="0"/>
        <pt x="421" y="322" on="0"/>
        <pt x="396" y="316" on="1"/>
        <pt x="409" y="291" on="0"/>
        <pt x="441" y="224" on="0"/>
        <pt x="454" y="198" on="0"/>
        <pt x="479" y="155" on="0"/>
        <pt x="495" y="130" on="1"/>
        <pt x="520" y="91" on="0"/>
        <pt x="585" y="41" on="0"/>
        <pt x="625" y="28" on="0"/>
        <pt x="636" y="28" on="1"/>
        <pt x="638" y="22" on="0"/>
        <pt x="635" y="-2" on="0"/>
        <pt x="634" y="-4" on="1"/>
        <pt x="580" y="-8" on="0"/>
        <pt x="575" y="-8" on="1"/>
        <pt x="531" y="-8" on="0"/>
        <pt x="461" y="9" on="0"/>
        <pt x="422" y="30" on="0"/>
        <pt x="389" y="65" on="0"/>
        <pt x="378" y="83" on="0"/>
        <pt x="370" y="99" on="1"/>
        <pt x="275" y="284" on="1"/>
        <pt x="268" y="299" on="0"/>
        <pt x="261" y="299" on="1"/>
        <pt x="248" y="299" on="1"/>
        <pt x="218" y="145" on="1"/>
        <pt x="204" y="68" on="0"/>
        <pt x="207" y="51" on="1"/>
        <pt x="209" y="37" on="0"/>
        <pt x="263" y="33" on="1"/>
        <pt x="265" y="28" on="0"/>
        <pt x="260" y="1" on="0"/>
        <pt x="256" y="-4" on="1"/>
        <pt x="195" y="3" on="0"/>
        <pt x="124" y="3" on="1"/>
        <pt x="56" y="3" on="0"/>
        <pt x="-9" y="-4" on="1"/>
        <pt x="-11" y="1" on="0"/>
        <pt x="-5" y="28" on="0"/>
        <pt x="-1" y="33" on="1"/>
        <pt x="55" y="38" on="0"/>
        <pt x="62" y="51" on="1"/>
        <pt x="73" y="72" on="0"/>
        <pt x="87" y="145" on="1"/>
        <pt x="159" y="513" on="1"/>
        <pt x="173" y="590" on="0"/>
        <pt x="170" y="607" on="1"/>
        <pt x="168" y="618" on="0"/>
        <pt x="113" y="623" on="1"/>
        <pt x="111" y="628" on="0"/>
        <pt x="117" y="655" on="0"/>
        <pt x="121" y="660" on="1"/>
        <pt x="162" y="657" on="0"/>
      </contour>
      <contour>
        <pt x="255" y="338" on="1"/>
        <pt x="298" y="338" on="1"/>
        <pt x="340" y="338" on="0"/>
        <pt x="406" y="393" on="0"/>
        <pt x="421" y="448" on="1"/>
        <pt x="429" y="486" on="0"/>
        <pt x="433" y="563" on="0"/>
        <pt x="397" y="620" on="0"/>
        <pt x="361" y="620" on="1"/>
        <pt x="320" y="620" on="0"/>
        <pt x="312" y="608" on="1"/>
        <pt x="307" y="599" on="0"/>
        <pt x="296" y="547" on="1"/>
      </contour>
    </TTGlyph>
    <TTGlyph name="Racute" xMin="-9" yMin="-8" xMax="636" yMax="833">
      <component glyphName="acutecomb.cap" x="132" y="-16" flags="0x1004"/>
      <component glyphName="R" x="0" y="0" flags="0x1204"/>
    </TTGlyph>
    <TTGlyph name="Rcaron" xMin="-9" yMin="-8" xMax="636" yMax="867">
      <component glyphName="uni030C.cap" x="-31" y="-3" flags="0x1004"/>
      <component glyphName="R" x="0" y="0" flags="0x1204"/>
    </TTGlyph>
    <TTGlyph name="Rcommaaccent" xMin="-9" yMin="-218" xMax="636" yMax="660">
      <component glyphName="uni0326" x="511" y="0" flags="0x1004"/>
      <component glyphName="R" x="0" y="0" flags="0x1204"/>
    </TTGlyph>
    <TTGlyph name="S" xMin="22" yMin="-10" xMax="483" yMax="670">
      <contour>
        <pt x="332" y="670" on="1"/>
        <pt x="351" y="670" on="0"/>
        <pt x="394" y="664" on="0"/>
        <pt x="420" y="658" on="0"/>
        <pt x="472" y="645" on="0"/>
        <pt x="483" y="642" on="1"/>
        <pt x="475" y="569" on="0"/>
        <pt x="461" y="476" on="1"/>
        <pt x="455" y="470" on="0"/>
        <pt x="449" y="470" on="1"/>
        <pt x="423" y="470" on="0"/>
        <pt x="423" y="477" on="1"/>
        <pt x="425" y="508" on="0"/>
        <pt x="408" y="574" on="0"/>
        <pt x="361" y="628" on="0"/>
        <pt x="328" y="628" on="1"/>
        <pt x="296" y="628" on="0"/>
        <pt x="241" y="587" on="0"/>
        <pt x="232" y="541" on="1"/>
        <pt x="226" y="512" on="0"/>
        <pt x="263" y="447" on="0"/>
        <pt x="302" y="409" on="0"/>
        <pt x="336" y="381" on="1"/>
        <pt x="339" y="379" on="0"/>
        <pt x="365" y="357" on="0"/>
        <pt x="373" y="350" on="0"/>
        <pt x="396" y="329" on="0"/>
        <pt x="404" y="318" on="0"/>
        <pt x="421" y="295" on="0"/>
        <pt x="427" y="277" on="0"/>
        <pt x="437" y="250" on="0"/>
        <pt x="438" y="225" on="0"/>
        <pt x="436" y="192" on="0"/>
        <pt x="433" y="175" on="1"/>
        <pt x="418" y="95" on="0"/>
        <pt x="274" y="-10" on="0"/>
        <pt x="194" y="-10" on="1"/>
        <pt x="120" y="-10" on="0"/>
        <pt x="22" y="16" on="1"/>
        <pt x="20" y="96" on="0"/>
        <pt x="33" y="186" on="1"/>
        <pt x="36" y="190" on="0"/>
        <pt x="59" y="200" on="0"/>
        <pt x="63" y="200" on="1"/>
        <pt x="73" y="200" on="0"/>
        <pt x="73" y="192" on="1"/>
        <pt x="71" y="142" on="0"/>
        <pt x="136" y="32" on="0"/>
        <pt x="193" y="32" on="1"/>
        <pt x="232" y="32" on="0"/>
        <pt x="292" y="79" on="0"/>
        <pt x="302" y="129" on="1"/>
        <pt x="306" y="152" on="0"/>
        <pt x="293" y="196" on="0"/>
        <pt x="256" y="239" on="0"/>
        <pt x="230" y="264" on="0"/>
        <pt x="208" y="282" on="1"/>
        <pt x="200" y="289" on="0"/>
        <pt x="196" y="292" on="1"/>
        <pt x="139" y="340" on="0"/>
        <pt x="122" y="365" on="1"/>
        <pt x="85" y="417" on="0"/>
        <pt x="99" y="489" on="1"/>
        <pt x="114" y="564" on="0"/>
        <pt x="257" y="670" on="0"/>
      </contour>
    </TTGlyph>
    <TTGlyph name="Sacute" xMin="22" yMin="-10" xMax="528" yMax="849">
      <component glyphName="acutecomb.cap" x="163" y="0" flags="0x1004"/>
      <component glyphName="S" x="0" y="0" flags="0x1204"/>
    </TTGlyph>
    <TTGlyph name="Scaron" xMin="22" yMin="-10" xMax="494" yMax="870">
      <component glyphName="uni030C.cap" x="-45" y="0" flags="0x1004"/>
      <component glyphName="S" x="0" y="0" flags="0x1204"/>
    </TTGlyph>
    <TTGlyph name="Scedilla" xMin="22" yMin="-174" xMax="483" yMax="670">
      <component glyphName="uni0327.cap" x="8" y="-2" flags="0x1004"/>
      <component glyphName="S" x="0" y="0" flags="0x1204"/>
    </TTGlyph>
    <TTGlyph name="Scircumflex" xMin="22" yMin="-10" xMax="483" yMax="870">
      <component glyphName="uni0302.cap" x="34" y="26" flags="0x1004"/>
      <component glyphName="S" x="0" y="0" flags="0x1204"/>
    </TTGlyph>
    <TTGlyph name="Scommaaccent" xMin="22" yMin="-218" xMax="483" yMax="670">
      <component glyphName="uni0326" x="418" y="0" flags="0x1004"/>
      <component glyphName="S" x="0" y="0" flags="0x1204"/>
    </TTGlyph>
    <TTGlyph name="T" xMin="54" yMin="-4" xMax="639" yMax="676">
      <contour>
        <pt x="364" y="657" on="1"/>
        <pt x="528" y="657" on="1"/>
        <pt x="568" y="657" on="0"/>
        <pt x="626" y="676" on="0"/>
        <pt x="628" y="676" on="1"/>
        <pt x="634" y="676" on="0"/>
        <pt x="639" y="673" on="1"/>
        <pt x="628" y="489" on="1"/>
        <pt x="621" y="482" on="0"/>
        <pt x="600" y="482" on="1"/>
        <pt x="592" y="482" on="0"/>
        <pt x="592" y="487" on="1"/>
        <pt x="594" y="537" on="0"/>
        <pt x="551" y="613" on="0"/>
        <pt x="517" y="613" on="1"/>
        <pt x="430" y="613" on="1"/>
        <pt x="339" y="145" on="1"/>
        <pt x="325" y="68" on="0"/>
        <pt x="328" y="51" on="1"/>
        <pt x="330" y="37" on="0"/>
        <pt x="384" y="33" on="1"/>
        <pt x="386" y="28" on="0"/>
        <pt x="381" y="1" on="0"/>
        <pt x="377" y="-4" on="1"/>
        <pt x="316" y="3" on="0"/>
        <pt x="246" y="3" on="1"/>
        <pt x="178" y="3" on="0"/>
        <pt x="113" y="-4" on="1"/>
        <pt x="111" y="1" on="0"/>
        <pt x="116" y="28" on="0"/>
        <pt x="120" y="33" on="1"/>
        <pt x="176" y="38" on="0"/>
        <pt x="183" y="51" on="1"/>
        <pt x="196" y="74" on="0"/>
        <pt x="209" y="145" on="1"/>
        <pt x="300" y="613" on="1"/>
        <pt x="213" y="613" on="1"/>
        <pt x="179" y="613" on="0"/>
        <pt x="106" y="537" on="0"/>
        <pt x="89" y="487" on="1"/>
        <pt x="86" y="482" on="0"/>
        <pt x="79" y="482" on="1"/>
        <pt x="59" y="482" on="0"/>
        <pt x="54" y="489" on="1"/>
        <pt x="114" y="673" on="1"/>
        <pt x="120" y="676" on="0"/>
        <pt x="126" y="676" on="1"/>
        <pt x="128" y="676" on="0"/>
        <pt x="179" y="657" on="0"/>
        <pt x="219" y="657" on="1"/>
      </contour>
    </TTGlyph>
    <TTGlyph name="T_h" xMin="54" yMin="-8" xMax="1000" yMax="701">
      <contour>
        <pt x="639" y="533" on="1"/>
        <pt x="647" y="573" on="0"/>
        <pt x="615" y="613" on="0"/>
        <pt x="585" y="613" on="1"/>
        <pt x="430" y="613" on="1"/>
        <pt x="339" y="145" on="1"/>
        <pt x="325" y="68" on="0"/>
        <pt x="328" y="51" on="1"/>
        <pt x="330" y="37" on="0"/>
        <pt x="384" y="33" on="1"/>
        <pt x="386" y="28" on="0"/>
        <pt x="381" y="1" on="0"/>
        <pt x="377" y="-4" on="1"/>
        <pt x="316" y="3" on="0"/>
        <pt x="246" y="3" on="1"/>
        <pt x="178" y="3" on="0"/>
        <pt x="113" y="-4" on="1"/>
        <pt x="111" y="1" on="0"/>
        <pt x="116" y="28" on="0"/>
        <pt x="120" y="33" on="1"/>
        <pt x="176" y="38" on="0"/>
        <pt x="183" y="51" on="1"/>
        <pt x="196" y="74" on="0"/>
        <pt x="209" y="145" on="1"/>
        <pt x="300" y="613" on="1"/>
        <pt x="213" y="613" on="1"/>
        <pt x="179" y="613" on="0"/>
        <pt x="106" y="537" on="0"/>
        <pt x="89" y="487" on="1"/>
        <pt x="86" y="482" on="0"/>
        <pt x="79" y="482" on="1"/>
        <pt x="59" y="482" on="0"/>
        <pt x="54" y="489" on="1"/>
        <pt x="114" y="673" on="1"/>
        <pt x="120" y="676" on="0"/>
        <pt x="126" y="676" on="1"/>
        <pt x="128" y="676" on="0"/>
        <pt x="179" y="657" on="0"/>
        <pt x="219" y="657" on="1"/>
        <pt x="364" y="657" on="1"/>
        <pt x="466" y="657" on="0"/>
        <pt x="585" y="660" on="0"/>
        <pt x="743" y="681" on="0"/>
        <pt x="795" y="701" on="1"/>
        <pt x="801" y="697" on="0"/>
        <pt x="801" y="682" on="1"/>
        <pt x="801" y="678" on="0"/>
        <pt x="769" y="609" on="0"/>
        <pt x="768" y="602" on="1"/>
        <pt x="713" y="323" on="0"/>
        <pt x="711" y="314" on="1"/>
        <pt x="703" y="274" on="1"/>
        <pt x="728" y="330" on="0"/>
        <pt x="837" y="449" on="0"/>
        <pt x="872" y="449" on="1"/>
        <pt x="912" y="449" on="0"/>
        <pt x="944" y="407" on="0"/>
        <pt x="944" y="362" on="1"/>
        <pt x="944" y="337" on="0"/>
        <pt x="924" y="233" on="1"/>
        <pt x="905" y="132" on="1"/>
        <pt x="901" y="116" on="0"/>
        <pt x="901" y="99" on="1"/>
        <pt x="901" y="78" on="0"/>
        <pt x="929" y="78" on="0"/>
        <pt x="981" y="130" on="0"/>
        <pt x="986" y="139" on="1"/>
        <pt x="991" y="139" on="0"/>
        <pt x="1000" y="118" on="0"/>
        <pt x="1000" y="112" on="1"/>
        <pt x="984" y="82" on="0"/>
        <pt x="877" y="-8" on="0"/>
        <pt x="841" y="-8" on="1"/>
        <pt x="814" y="-8" on="0"/>
        <pt x="778" y="27" on="0"/>
        <pt x="778" y="63" on="1"/>
        <pt x="778" y="87" on="0"/>
        <pt x="787" y="123" on="1"/>
        <pt x="810" y="242" on="1"/>
        <pt x="822" y="290" on="0"/>
        <pt x="822" y="318" on="1"/>
        <pt x="822" y="339" on="0"/>
        <pt x="806" y="339" on="1"/>
        <pt x="782" y="339" on="0"/>
        <pt x="691" y="181" on="0"/>
        <pt x="671" y="91" on="1"/>
        <pt x="651" y="0" on="1"/>
        <pt x="631" y="-6" on="0"/>
        <pt x="595" y="-6" on="1"/>
        <pt x="560" y="-6" on="0"/>
        <pt x="536" y="0" on="1"/>
      </contour>
    </TTGlyph>
    <TTGlyph name="Tbar" xMin="54" yMin="-4" xMax="639" yMax="676">
      <contour>
        <pt x="151" y="343" on="1"/>
        <pt x="151" y="343" on="0"/>
        <pt x="481" y="343" on="1"/>
        <pt x="488" y="343" on="0"/>
        <pt x="486" y="335" on="1"/>
        <pt x="482" y="313" on="0"/>
        <pt x="475" y="304" on="1"/>
        <pt x="475" y="304" on="0"/>
        <pt x="144" y="304" on="1"/>
        <pt x="138" y="304" on="0"/>
        <pt x="141" y="315" on="1"/>
        <pt x="146" y="338" on="0"/>
      </contour>
      <contour>
        <pt x="364" y="657" on="1"/>
        <pt x="528" y="657" on="1"/>
        <pt x="568" y="657" on="0"/>
        <pt x="626" y="676" on="0"/>
        <pt x="628" y="676" on="1"/>
        <pt x="634" y="676" on="0"/>
        <pt x="639" y="673" on="1"/>
        <pt x="628" y="489" on="1"/>
        <pt x="621" y="482" on="0"/>
        <pt x="600" y="482" on="1"/>
        <pt x="592" y="482" on="0"/>
        <pt x="592" y="487" on="1"/>
        <pt x="594" y="537" on="0"/>
        <pt x="551" y="613" on="0"/>
        <pt x="517" y="613" on="1"/>
        <pt x="430" y="613" on="1"/>
        <pt x="339" y="145" on="1"/>
        <pt x="325" y="68" on="0"/>
        <pt x="328" y="51" on="1"/>
        <pt x="330" y="37" on="0"/>
        <pt x="384" y="33" on="1"/>
        <pt x="386" y="28" on="0"/>
        <pt x="381" y="1" on="0"/>
        <pt x="377" y="-4" on="1"/>
        <pt x="316" y="3" on="0"/>
        <pt x="246" y="3" on="1"/>
        <pt x="178" y="3" on="0"/>
        <pt x="113" y="-4" on="1"/>
        <pt x="111" y="1" on="0"/>
        <pt x="116" y="28" on="0"/>
        <pt x="120" y="33" on="1"/>
        <pt x="176" y="38" on="0"/>
        <pt x="183" y="51" on="1"/>
        <pt x="196" y="74" on="0"/>
        <pt x="209" y="145" on="1"/>
        <pt x="300" y="613" on="1"/>
        <pt x="213" y="613" on="1"/>
        <pt x="179" y="613" on="0"/>
        <pt x="106" y="537" on="0"/>
        <pt x="89" y="487" on="1"/>
        <pt x="86" y="482" on="0"/>
        <pt x="79" y="482" on="1"/>
        <pt x="59" y="482" on="0"/>
        <pt x="54" y="489" on="1"/>
        <pt x="114" y="673" on="1"/>
        <pt x="120" y="676" on="0"/>
        <pt x="126" y="676" on="1"/>
        <pt x="128" y="676" on="0"/>
        <pt x="179" y="657" on="0"/>
        <pt x="219" y="657" on="1"/>
      </contour>
    </TTGlyph>
    <TTGlyph name="Tcaron" xMin="54" yMin="-4" xMax="639" yMax="876">
      <component glyphName="uni030C.cap" x="0" y="6" flags="0x1004"/>
      <component glyphName="T" x="0" y="0" flags="0x1204"/>
    </TTGlyph>
    <TTGlyph name="Tcommaaccent" xMin="53" yMin="-164" xMax="638" yMax="676">
      <component glyphName="uni0327.cap" x="62" y="8" flags="0x1004"/>
      <component glyphName="T" x="-1" y="0" flags="0x1204"/>
    </TTGlyph>
    <TTGlyph name="Thorn" xMin="-9" yMin="-4" xMax="544" yMax="664">
      <contour>
        <pt x="364" y="513" on="1"/>
        <pt x="453" y="513" on="0"/>
        <pt x="560" y="397" on="0"/>
        <pt x="544" y="317" on="1"/>
        <pt x="528" y="233" on="0"/>
        <pt x="383" y="135" on="0"/>
        <pt x="305" y="135" on="1"/>
        <pt x="268" y="135" on="0"/>
        <pt x="254" y="154" on="1"/>
        <pt x="249" y="161" on="0"/>
        <pt x="249" y="176" on="1"/>
        <pt x="249" y="183" on="0"/>
        <pt x="253" y="183" on="1"/>
        <pt x="265" y="179" on="0"/>
        <pt x="283" y="179" on="1"/>
        <pt x="318" y="179" on="0"/>
        <pt x="393" y="255" on="0"/>
        <pt x="403" y="303" on="1"/>
        <pt x="416" y="372" on="0"/>
        <pt x="377" y="472" on="0"/>
        <pt x="332" y="472" on="1"/>
        <pt x="296" y="472" on="0"/>
        <pt x="284" y="456" on="1"/>
        <pt x="277" y="446" on="0"/>
        <pt x="267" y="399" on="1"/>
        <pt x="218" y="145" on="1"/>
        <pt x="204" y="68" on="0"/>
        <pt x="207" y="51" on="1"/>
        <pt x="209" y="37" on="0"/>
        <pt x="263" y="33" on="1"/>
        <pt x="265" y="28" on="0"/>
        <pt x="260" y="1" on="0"/>
        <pt x="256" y="-4" on="1"/>
        <pt x="195" y="3" on="0"/>
        <pt x="124" y="3" on="1"/>
        <pt x="56" y="3" on="0"/>
        <pt x="-9" y="-4" on="1"/>
        <pt x="-11" y="1" on="0"/>
        <pt x="-5" y="28" on="0"/>
        <pt x="-1" y="33" on="1"/>
        <pt x="55" y="38" on="0"/>
        <pt x="62" y="51" on="1"/>
        <pt x="73" y="72" on="0"/>
        <pt x="87" y="145" on="1"/>
        <pt x="159" y="513" on="1"/>
        <pt x="173" y="590" on="0"/>
        <pt x="170" y="607" on="1"/>
        <pt x="168" y="618" on="0"/>
        <pt x="113" y="623" on="1"/>
        <pt x="111" y="628" on="0"/>
        <pt x="117" y="655" on="0"/>
        <pt x="121" y="660" on="1"/>
        <pt x="162" y="657" on="0"/>
        <pt x="253" y="657" on="1"/>
        <pt x="320" y="657" on="0"/>
        <pt x="385" y="664" on="1"/>
        <pt x="387" y="659" on="0"/>
        <pt x="382" y="632" on="0"/>
        <pt x="378" y="627" on="1"/>
        <pt x="322" y="622" on="0"/>
        <pt x="315" y="609" on="1"/>
        <pt x="303" y="588" on="0"/>
        <pt x="291" y="520" on="1"/>
        <pt x="291" y="509" on="0"/>
        <pt x="293" y="509" on="1"/>
        <pt x="294" y="509" on="0"/>
        <pt x="297" y="510" on="0"/>
        <pt x="298" y="510" on="1"/>
        <pt x="312" y="513" on="0"/>
      </contour>
    </TTGlyph>
    <TTGlyph name="U" xMin="95" yMin="-9" xMax="757" yMax="662">
      <contour>
        <pt x="234" y="655" on="1"/>
        <pt x="301" y="655" on="0"/>
        <pt x="366" y="662" on="1"/>
        <pt x="368" y="657" on="0"/>
        <pt x="363" y="630" on="0"/>
        <pt x="359" y="625" on="1"/>
        <pt x="303" y="620" on="0"/>
        <pt x="296" y="607" on="1"/>
        <pt x="283" y="584" on="0"/>
        <pt x="270" y="513" on="1"/>
        <pt x="235" y="330" on="1"/>
        <pt x="213" y="216" on="0"/>
        <pt x="225" y="159" on="1"/>
        <pt x="245" y="63" on="0"/>
        <pt x="348" y="63" on="1"/>
        <pt x="410" y="63" on="0"/>
        <pt x="522" y="187" on="0"/>
        <pt x="546" y="309" on="1"/>
        <pt x="579" y="479" on="1"/>
        <pt x="596" y="571" on="0"/>
        <pt x="590" y="601" on="1"/>
        <pt x="586" y="620" on="0"/>
        <pt x="525" y="625" on="1"/>
        <pt x="523" y="630" on="0"/>
        <pt x="528" y="657" on="0"/>
        <pt x="532" y="662" on="1"/>
        <pt x="607" y="655" on="0"/>
        <pt x="647" y="655" on="1"/>
        <pt x="671" y="655" on="0"/>
        <pt x="745" y="661" on="0"/>
        <pt x="757" y="662" on="1"/>
        <pt x="759" y="657" on="0"/>
        <pt x="754" y="630" on="0"/>
        <pt x="750" y="625" on="1"/>
        <pt x="685" y="620" on="0"/>
        <pt x="674" y="601" on="1"/>
        <pt x="652" y="561" on="0"/>
        <pt x="637" y="480" on="1"/>
        <pt x="599" y="286" on="1"/>
        <pt x="571" y="141" on="0"/>
        <pt x="395" y="-9" on="0"/>
        <pt x="287" y="-9" on="1"/>
        <pt x="156" y="-9" on="0"/>
        <pt x="108" y="79" on="1"/>
        <pt x="70" y="149" on="0"/>
        <pt x="99" y="301" on="1"/>
        <pt x="140" y="513" on="1"/>
        <pt x="154" y="590" on="0"/>
        <pt x="151" y="607" on="1"/>
        <pt x="149" y="621" on="0"/>
        <pt x="95" y="625" on="1"/>
        <pt x="93" y="630" on="0"/>
        <pt x="98" y="657" on="0"/>
        <pt x="102" y="662" on="1"/>
        <pt x="163" y="655" on="0"/>
      </contour>
    </TTGlyph>
    <TTGlyph name="Uacute" xMin="95" yMin="-9" xMax="757" yMax="833">
      <component glyphName="acutecomb.cap" x="270" y="-16" flags="0x1004"/>
      <component glyphName="U" x="0" y="0" flags="0x1204"/>
    </TTGlyph>
    <TTGlyph name="Ubreve" xMin="95" yMin="-9" xMax="757" yMax="849">
      <component glyphName="uni0306.cap" x="194" y="23" flags="0x1004"/>
      <component glyphName="U" x="0" y="0" flags="0x1204"/>
    </TTGlyph>
    <TTGlyph name="Ucircumflex" xMin="95" yMin="-9" xMax="757" yMax="870">
      <component glyphName="uni0302.cap" x="142" y="26" flags="0x1004"/>
      <component glyphName="U" x="0" y="0" flags="0x1204"/>
    </TTGlyph>
    <TTGlyph name="Udieresis" xMin="95" yMin="-9" xMax="757" yMax="867">
      <component glyphName="uni0308.cap" x="168" y="12" flags="0x1004"/>
      <component glyphName="U" x="0" y="0" flags="0x1204"/>
    </TTGlyph>
    <TTGlyph name="Ugrave" xMin="95" yMin="-9" xMax="757" yMax="833">
      <component glyphName="gravecomb.cap" x="101" y="-16" flags="0x1004"/>
      <component glyphName="U" x="0" y="0" flags="0x1204"/>
    </TTGlyph>
    <TTGlyph name="Uhorn" xMin="95" yMin="-9" xMax="807" yMax="767">
      <contour>
        <pt x="234" y="655" on="1"/>
        <pt x="301" y="655" on="0"/>
        <pt x="366" y="662" on="1"/>
        <pt x="368" y="657" on="0"/>
        <pt x="363" y="630" on="0"/>
        <pt x="359" y="625" on="1"/>
        <pt x="303" y="620" on="0"/>
        <pt x="296" y="607" on="1"/>
        <pt x="283" y="584" on="0"/>
        <pt x="270" y="513" on="1"/>
        <pt x="235" y="330" on="1"/>
        <pt x="213" y="216" on="0"/>
        <pt x="225" y="159" on="1"/>
        <pt x="245" y="63" on="0"/>
        <pt x="348" y="63" on="1"/>
        <pt x="410" y="63" on="0"/>
        <pt x="522" y="187" on="0"/>
        <pt x="546" y="309" on="1"/>
        <pt x="579" y="479" on="1"/>
        <pt x="596" y="571" on="0"/>
        <pt x="590" y="601" on="1"/>
        <pt x="586" y="620" on="0"/>
        <pt x="525" y="625" on="1"/>
        <pt x="523" y="630" on="0"/>
        <pt x="528" y="657" on="0"/>
        <pt x="532" y="662" on="1"/>
        <pt x="596" y="656" on="0"/>
        <pt x="647" y="656" on="1"/>
        <pt x="705" y="656" on="0"/>
        <pt x="734" y="676" on="1"/>
        <pt x="741" y="685" on="0"/>
        <pt x="731" y="694" on="0"/>
        <pt x="714" y="719" on="0"/>
        <pt x="716" y="732" on="1"/>
        <pt x="720" y="756" on="0"/>
        <pt x="778" y="778" on="0"/>
        <pt x="798" y="764" on="1"/>
        <pt x="807" y="740" on="0"/>
        <pt x="807" y="733" on="1"/>
        <pt x="808" y="676" on="0"/>
        <pt x="750" y="643" on="1"/>
        <pt x="741" y="638" on="0"/>
        <pt x="705" y="626" on="0"/>
        <pt x="680" y="612" on="0"/>
        <pt x="674" y="601" on="1"/>
        <pt x="652" y="561" on="0"/>
        <pt x="637" y="480" on="1"/>
        <pt x="599" y="286" on="1"/>
        <pt x="571" y="141" on="0"/>
        <pt x="395" y="-9" on="0"/>
        <pt x="287" y="-9" on="1"/>
        <pt x="156" y="-9" on="0"/>
        <pt x="108" y="79" on="1"/>
        <pt x="70" y="149" on="0"/>
        <pt x="99" y="301" on="1"/>
        <pt x="140" y="513" on="1"/>
        <pt x="154" y="590" on="0"/>
        <pt x="151" y="607" on="1"/>
        <pt x="149" y="621" on="0"/>
        <pt x="95" y="625" on="1"/>
        <pt x="93" y="630" on="0"/>
        <pt x="98" y="657" on="0"/>
        <pt x="102" y="662" on="1"/>
        <pt x="163" y="655" on="0"/>
      </contour>
    </TTGlyph>
    <TTGlyph name="Uhungarumlaut" xMin="95" yMin="-9" xMax="757" yMax="833">
      <component glyphName="uni030B.cap" x="178" y="-16" flags="0x1004"/>
      <component glyphName="U" x="0" y="0" flags="0x1204"/>
    </TTGlyph>
    <TTGlyph name="Umacron" xMin="95" yMin="-9" xMax="757" yMax="771">
      <component glyphName="uni0304.cap" x="154" y="171" flags="0x1004"/>
      <component glyphName="U" x="0" y="0" flags="0x1204"/>
    </TTGlyph>
    <TTGlyph name="Uogonek" xMin="95" yMin="-218" xMax="757" yMax="662">
      <contour>
        <pt x="314" y="-122" on="1"/>
        <pt x="314" y="-156" on="0"/>
        <pt x="350" y="-156" on="1"/>
        <pt x="365" y="-156" on="0"/>
        <pt x="392" y="-146" on="0"/>
        <pt x="407" y="-135" on="0"/>
        <pt x="416" y="-128" on="1"/>
        <pt x="424" y="-120" on="1"/>
        <pt x="429" y="-121" on="0"/>
        <pt x="429" y="-143" on="0"/>
        <pt x="427" y="-146" on="1"/>
        <pt x="409" y="-176" on="0"/>
        <pt x="344" y="-218" on="0"/>
        <pt x="313" y="-218" on="1"/>
        <pt x="286" y="-218" on="0"/>
        <pt x="253" y="-182" on="0"/>
        <pt x="253" y="-160" on="1"/>
        <pt x="253" y="-145" on="0"/>
        <pt x="263" y="-113" on="0"/>
        <pt x="273" y="-92" on="0"/>
        <pt x="299" y="-57" on="0"/>
        <pt x="311" y="-44" on="0"/>
        <pt x="346" y="-6" on="0"/>
        <pt x="349" y="-3" on="1"/>
        <pt x="319" y="-9" on="0"/>
        <pt x="287" y="-9" on="1"/>
        <pt x="156" y="-9" on="0"/>
        <pt x="108" y="79" on="1"/>
        <pt x="70" y="149" on="0"/>
        <pt x="99" y="301" on="1"/>
        <pt x="140" y="513" on="1"/>
        <pt x="154" y="590" on="0"/>
        <pt x="151" y="607" on="1"/>
        <pt x="149" y="621" on="0"/>
        <pt x="95" y="625" on="1"/>
        <pt x="93" y="630" on="0"/>
        <pt x="98" y="657" on="0"/>
        <pt x="102" y="662" on="1"/>
        <pt x="163" y="655" on="0"/>
        <pt x="234" y="655" on="1"/>
        <pt x="301" y="655" on="0"/>
        <pt x="366" y="662" on="1"/>
        <pt x="368" y="657" on="0"/>
        <pt x="363" y="630" on="0"/>
        <pt x="359" y="625" on="1"/>
        <pt x="303" y="620" on="0"/>
        <pt x="296" y="607" on="1"/>
        <pt x="283" y="584" on="0"/>
        <pt x="270" y="513" on="1"/>
        <pt x="235" y="330" on="1"/>
        <pt x="213" y="216" on="0"/>
        <pt x="225" y="159" on="1"/>
        <pt x="245" y="63" on="0"/>
        <pt x="348" y="63" on="1"/>
        <pt x="410" y="63" on="0"/>
        <pt x="522" y="187" on="0"/>
        <pt x="546" y="309" on="1"/>
        <pt x="579" y="479" on="1"/>
        <pt x="596" y="571" on="0"/>
        <pt x="590" y="601" on="1"/>
        <pt x="586" y="620" on="0"/>
        <pt x="525" y="625" on="1"/>
        <pt x="523" y="630" on="0"/>
        <pt x="528" y="657" on="0"/>
        <pt x="532" y="662" on="1"/>
        <pt x="607" y="655" on="0"/>
        <pt x="647" y="655" on="1"/>
        <pt x="671" y="655" on="0"/>
        <pt x="745" y="661" on="0"/>
        <pt x="757" y="662" on="1"/>
        <pt x="759" y="657" on="0"/>
        <pt x="754" y="630" on="0"/>
        <pt x="750" y="625" on="1"/>
        <pt x="685" y="620" on="0"/>
        <pt x="674" y="601" on="1"/>
        <pt x="652" y="561" on="0"/>
        <pt x="637" y="480" on="1"/>
        <pt x="599" y="286" on="1"/>
        <pt x="563" y="108" on="0"/>
        <pt x="438" y="33" on="1"/>
        <pt x="395" y="7" on="0"/>
        <pt x="314" y="-86" on="0"/>
      </contour>
    </TTGlyph>
    <TTGlyph name="Uring" xMin="95" yMin="-9" xMax="757" yMax="925">
      <component glyphName="uni030A.cap" x="189" y="68" flags="0x1004"/>
      <component glyphName="U" x="0" y="0" flags="0x1204"/>
    </TTGlyph>
    <TTGlyph name="Utilde" xMin="95" yMin="-9" xMax="757" yMax="820">
      <component glyphName="tildecomb.cap" x="109" y="0" flags="0x1004"/>
      <component glyphName="U" x="0" y="0" flags="0x1204"/>
    </TTGlyph>
    <TTGlyph name="V" xMin="58" yMin="-11" xMax="717" yMax="662">
      <contour>
        <pt x="197" y="655" on="1"/>
        <pt x="265" y="655" on="0"/>
        <pt x="330" y="662" on="1"/>
        <pt x="332" y="657" on="0"/>
        <pt x="326" y="630" on="0"/>
        <pt x="322" y="625" on="1"/>
        <pt x="264" y="620" on="0"/>
        <pt x="260" y="598" on="1"/>
        <pt x="256" y="578" on="0"/>
        <pt x="268" y="523" on="1"/>
        <pt x="341" y="186" on="1"/>
        <pt x="514" y="493" on="0"/>
        <pt x="529" y="521" on="1"/>
        <pt x="563" y="588" on="0"/>
        <pt x="565" y="601" on="1"/>
        <pt x="568" y="619" on="0"/>
        <pt x="495" y="625" on="1"/>
        <pt x="493" y="630" on="0"/>
        <pt x="499" y="657" on="0"/>
        <pt x="503" y="662" on="1"/>
        <pt x="578" y="655" on="0"/>
        <pt x="612" y="655" on="1"/>
        <pt x="635" y="655" on="0"/>
        <pt x="704" y="661" on="0"/>
        <pt x="717" y="662" on="1"/>
        <pt x="719" y="657" on="0"/>
        <pt x="714" y="630" on="0"/>
        <pt x="710" y="625" on="1"/>
        <pt x="654" y="620" on="0"/>
        <pt x="642" y="607" on="1"/>
        <pt x="622" y="585" on="0"/>
        <pt x="587" y="524" on="1"/>
        <pt x="568" y="491" on="0"/>
        <pt x="299" y="30" on="1"/>
        <pt x="291" y="17" on="0"/>
        <pt x="254" y="-11" on="0"/>
        <pt x="246" y="-11" on="1"/>
        <pt x="242" y="-11" on="0"/>
        <pt x="239" y="-8" on="0"/>
        <pt x="237" y="1" on="0"/>
        <pt x="236" y="3" on="1"/>
        <pt x="132" y="510" on="1"/>
        <pt x="130" y="520" on="0"/>
        <pt x="122" y="556" on="0"/>
        <pt x="117" y="583" on="0"/>
        <pt x="115" y="592" on="1"/>
        <pt x="108" y="621" on="0"/>
        <pt x="58" y="625" on="1"/>
        <pt x="56" y="630" on="0"/>
        <pt x="62" y="657" on="0"/>
        <pt x="66" y="662" on="1"/>
        <pt x="127" y="655" on="0"/>
      </contour>
    </TTGlyph>
    <TTGlyph name="W" xMin="60" yMin="-11" xMax="963" yMax="662">
      <contour>
        <pt x="199" y="655" on="1"/>
        <pt x="266" y="655" on="0"/>
        <pt x="331" y="662" on="1"/>
        <pt x="333" y="657" on="0"/>
        <pt x="328" y="630" on="0"/>
        <pt x="324" y="625" on="1"/>
        <pt x="264" y="620" on="0"/>
        <pt x="264" y="586" on="1"/>
        <pt x="264" y="566" on="0"/>
        <pt x="270" y="523" on="1"/>
        <pt x="308" y="251" on="1"/>
        <pt x="469" y="560" on="0"/>
        <pt x="504" y="625" on="1"/>
        <pt x="512" y="640" on="0"/>
        <pt x="533" y="662" on="0"/>
        <pt x="540" y="662" on="1"/>
        <pt x="545" y="662" on="0"/>
        <pt x="548" y="646" on="1"/>
        <pt x="623" y="214" on="1"/>
        <pt x="758" y="489" on="0"/>
        <pt x="774" y="521" on="1"/>
        <pt x="806" y="590" on="0"/>
        <pt x="808" y="601" on="1"/>
        <pt x="811" y="619" on="0"/>
        <pt x="740" y="625" on="1"/>
        <pt x="738" y="630" on="0"/>
        <pt x="744" y="657" on="0"/>
        <pt x="748" y="662" on="1"/>
        <pt x="823" y="655" on="0"/>
        <pt x="857" y="655" on="1"/>
        <pt x="880" y="655" on="0"/>
        <pt x="950" y="661" on="0"/>
        <pt x="963" y="662" on="1"/>
        <pt x="965" y="657" on="0"/>
        <pt x="959" y="630" on="0"/>
        <pt x="955" y="625" on="1"/>
        <pt x="899" y="620" on="0"/>
        <pt x="887" y="607" on="1"/>
        <pt x="855" y="572" on="0"/>
        <pt x="832" y="524" on="1"/>
        <pt x="754" y="367" on="0"/>
        <pt x="586" y="40" on="1"/>
        <pt x="576" y="21" on="0"/>
        <pt x="547" y="-11" on="0"/>
        <pt x="539" y="-11" on="1"/>
        <pt x="530" y="-11" on="0"/>
        <pt x="524" y="3" on="1"/>
        <pt x="451" y="418" on="1"/>
        <pt x="334" y="188" on="0"/>
        <pt x="260" y="44" on="1"/>
        <pt x="230" y="-11" on="0"/>
        <pt x="217" y="-11" on="1"/>
        <pt x="208" y="-11" on="0"/>
        <pt x="202" y="3" on="1"/>
        <pt x="133" y="510" on="1"/>
        <pt x="131" y="525" on="0"/>
        <pt x="122" y="590" on="1"/>
        <pt x="119" y="607" on="0"/>
        <pt x="77" y="624" on="0"/>
        <pt x="60" y="625" on="1"/>
        <pt x="57" y="630" on="0"/>
        <pt x="63" y="657" on="0"/>
        <pt x="67" y="662" on="1"/>
        <pt x="128" y="655" on="0"/>
      </contour>
    </TTGlyph>
    <TTGlyph name="Wacute" xMin="60" yMin="-11" xMax="963" yMax="881">
      <component glyphName="W" x="0" y="0" flags="0x1204"/>
      <component glyphName="acutecomb.cap" x="343" y="32" flags="0x1004"/>
    </TTGlyph>
    <TTGlyph name="Wcircumflex" xMin="60" yMin="-11" xMax="963" yMax="867">
      <component glyphName="uni0302.cap" x="245" y="23" flags="0x1004"/>
      <component glyphName="W" x="0" y="0" flags="0x1204"/>
    </TTGlyph>
    <TTGlyph name="Wdieresis" xMin="60" yMin="-11" xMax="963" yMax="869">
      <component glyphName="uni0308.cap" x="229" y="14" flags="0x1004"/>
      <component glyphName="W" x="0" y="0" flags="0x1204"/>
    </TTGlyph>
    <TTGlyph name="Wgrave" xMin="60" yMin="-11" xMax="963" yMax="881">
      <component glyphName="W" x="0" y="0" flags="0x1204"/>
      <component glyphName="gravecomb.cap" x="214" y="32" flags="0x1004"/>
    </TTGlyph>
    <TTGlyph name="X" xMin="-57" yMin="-4" xMax="723" yMax="662">
      <contour>
        <pt x="239" y="656" on="1"/>
        <pt x="260" y="656" on="0"/>
        <pt x="374" y="662" on="1"/>
        <pt x="375" y="657" on="0"/>
        <pt x="368" y="625" on="0"/>
        <pt x="365" y="625" on="1"/>
        <pt x="351" y="625" on="0"/>
        <pt x="315" y="614" on="0"/>
        <pt x="312" y="604" on="1"/>
        <pt x="310" y="592" on="0"/>
        <pt x="315" y="582" on="1"/>
        <pt x="386" y="414" on="1"/>
        <pt x="403" y="432" on="0"/>
        <pt x="481" y="513" on="0"/>
        <pt x="531" y="569" on="0"/>
        <pt x="540" y="584" on="1"/>
        <pt x="544" y="589" on="0"/>
        <pt x="544" y="594" on="1"/>
        <pt x="546" y="606" on="0"/>
        <pt x="507" y="625" on="0"/>
        <pt x="482" y="625" on="1"/>
        <pt x="480" y="626" on="0"/>
        <pt x="480" y="641" on="0"/>
        <pt x="485" y="660" on="0"/>
        <pt x="488" y="662" on="1"/>
        <pt x="544" y="655" on="0"/>
        <pt x="610" y="655" on="1"/>
        <pt x="674" y="655" on="0"/>
        <pt x="723" y="662" on="1"/>
        <pt x="725" y="657" on="0"/>
        <pt x="719" y="625" on="0"/>
        <pt x="715" y="625" on="1"/>
        <pt x="653" y="625" on="0"/>
        <pt x="601" y="572" on="1"/>
        <pt x="402" y="369" on="1"/>
        <pt x="510" y="110" on="0"/>
        <pt x="532" y="76" on="1"/>
        <pt x="545" y="53" on="0"/>
        <pt x="599" y="33" on="0"/>
        <pt x="616" y="33" on="1"/>
        <pt x="621" y="12" on="0"/>
        <pt x="609" y="-4" on="1"/>
        <pt x="498" y="2" on="0"/>
        <pt x="461" y="2" on="1"/>
        <pt x="438" y="2" on="0"/>
        <pt x="389" y="0" on="0"/>
        <pt x="331" y="-3" on="0"/>
        <pt x="313" y="-4" on="1"/>
        <pt x="310" y="0" on="0"/>
        <pt x="318" y="33" on="0"/>
        <pt x="322" y="33" on="1"/>
        <pt x="334" y="33" on="0"/>
        <pt x="378" y="49" on="0"/>
        <pt x="380" y="61" on="1"/>
        <pt x="381" y="65" on="0"/>
        <pt x="379" y="72" on="1"/>
        <pt x="294" y="273" on="1"/>
        <pt x="158" y="122" on="0"/>
        <pt x="129" y="83" on="1"/>
        <pt x="119" y="70" on="0"/>
        <pt x="118" y="66" on="1"/>
        <pt x="115" y="50" on="0"/>
        <pt x="162" y="33" on="0"/>
        <pt x="189" y="33" on="1"/>
        <pt x="195" y="18" on="0"/>
        <pt x="185" y="-4" on="1"/>
        <pt x="95" y="2" on="0"/>
        <pt x="63" y="2" on="1"/>
        <pt x="57" y="2" on="0"/>
        <pt x="-57" y="-4" on="1"/>
        <pt x="-59" y="1" on="0"/>
        <pt x="-54" y="28" on="0"/>
        <pt x="-50" y="33" on="1"/>
        <pt x="-40" y="33" on="0"/>
        <pt x="-12" y="37" on="0"/>
        <pt x="43" y="59" on="0"/>
        <pt x="60" y="79" on="1"/>
        <pt x="273" y="322" on="1"/>
        <pt x="185" y="537" on="1"/>
        <pt x="159" y="601" on="0"/>
        <pt x="149" y="610" on="1"/>
        <pt x="132" y="625" on="0"/>
        <pt x="88" y="625" on="1"/>
        <pt x="86" y="626" on="0"/>
        <pt x="87" y="641" on="0"/>
        <pt x="92" y="660" on="0"/>
        <pt x="95" y="662" on="1"/>
        <pt x="230" y="656" on="0"/>
      </contour>
    </TTGlyph>
    <TTGlyph name="Y" xMin="70" yMin="-4" xMax="665" yMax="662">
      <contour>
        <pt x="191" y="145" on="1"/>
        <pt x="218" y="284" on="1"/>
        <pt x="219" y="292" on="0"/>
        <pt x="216" y="304" on="1"/>
        <pt x="210" y="328" on="0"/>
        <pt x="175" y="445" on="0"/>
        <pt x="160" y="491" on="1"/>
        <pt x="145" y="537" on="1"/>
        <pt x="131" y="581" on="0"/>
        <pt x="127" y="592" on="1"/>
        <pt x="117" y="621" on="0"/>
        <pt x="70" y="625" on="1"/>
        <pt x="68" y="630" on="0"/>
        <pt x="73" y="657" on="0"/>
        <pt x="77" y="662" on="1"/>
        <pt x="138" y="655" on="0"/>
        <pt x="209" y="655" on="1"/>
        <pt x="276" y="655" on="0"/>
        <pt x="341" y="662" on="1"/>
        <pt x="343" y="657" on="0"/>
        <pt x="338" y="630" on="0"/>
        <pt x="334" y="625" on="1"/>
        <pt x="276" y="620" on="0"/>
        <pt x="272" y="598" on="1"/>
        <pt x="272" y="597" on="0"/>
        <pt x="276" y="582" on="1"/>
        <pt x="344" y="361" on="1"/>
        <pt x="347" y="358" on="0"/>
        <pt x="441" y="489" on="0"/>
        <pt x="504" y="578" on="1"/>
        <pt x="511" y="590" on="0"/>
        <pt x="513" y="601" on="1"/>
        <pt x="516" y="619" on="0"/>
        <pt x="449" y="625" on="1"/>
        <pt x="447" y="630" on="0"/>
        <pt x="452" y="657" on="0"/>
        <pt x="456" y="662" on="1"/>
        <pt x="531" y="655" on="0"/>
        <pt x="559" y="655" on="1"/>
        <pt x="582" y="655" on="0"/>
        <pt x="652" y="661" on="0"/>
        <pt x="665" y="662" on="1"/>
        <pt x="667" y="657" on="0"/>
        <pt x="662" y="630" on="0"/>
        <pt x="658" y="625" on="1"/>
        <pt x="600" y="620" on="0"/>
        <pt x="584" y="600" on="1"/>
        <pt x="558" y="568" on="0"/>
        <pt x="381" y="337" on="0"/>
        <pt x="356" y="298" on="1"/>
        <pt x="348" y="287" on="0"/>
        <pt x="347" y="279" on="1"/>
        <pt x="321" y="145" on="1"/>
        <pt x="306" y="72" on="0"/>
        <pt x="310" y="51" on="1"/>
        <pt x="312" y="37" on="0"/>
        <pt x="366" y="33" on="1"/>
        <pt x="368" y="28" on="0"/>
        <pt x="363" y="1" on="0"/>
        <pt x="359" y="-4" on="1"/>
        <pt x="298" y="3" on="0"/>
        <pt x="227" y="3" on="1"/>
        <pt x="160" y="3" on="0"/>
        <pt x="95" y="-4" on="1"/>
        <pt x="93" y="1" on="0"/>
        <pt x="98" y="28" on="0"/>
        <pt x="102" y="33" on="1"/>
        <pt x="158" y="38" on="0"/>
        <pt x="165" y="51" on="1"/>
        <pt x="175" y="70" on="0"/>
      </contour>
    </TTGlyph>
    <TTGlyph name="Yacute" xMin="70" yMin="-4" xMax="665" yMax="833">
      <component glyphName="acutecomb.cap" x="212" y="-16" flags="0x1004"/>
      <component glyphName="Y" x="0" y="0" flags="0x1204"/>
    </TTGlyph>
    <TTGlyph name="Ycircumflex" xMin="70" yMin="-4" xMax="665" yMax="867">
      <component glyphName="uni0302.cap" x="92" y="23" flags="0x1004"/>
      <component glyphName="Y" x="0" y="0" flags="0x1204"/>
    </TTGlyph>
    <TTGlyph name="Ydieresis" xMin="70" yMin="-4" xMax="665" yMax="866">
      <component glyphName="uni0308.cap" x="103" y="11" flags="0x1004"/>
      <component glyphName="Y" x="0" y="0" flags="0x1204"/>
    </TTGlyph>
    <TTGlyph name="Ygrave" xMin="70" yMin="-4" xMax="665" yMax="881">
      <component glyphName="Y" x="0" y="0" flags="0x1204"/>
      <component glyphName="gravecomb.cap" x="80" y="32" flags="0x1004"/>
    </TTGlyph>
    <TTGlyph name="Z" xMin="-21" yMin="0" xMax="634" yMax="666">
      <contour>
        <pt x="291" y="610" on="1"/>
        <pt x="273" y="610" on="0"/>
        <pt x="240" y="602" on="0"/>
        <pt x="218" y="594" on="0"/>
        <pt x="192" y="571" on="0"/>
        <pt x="180" y="561" on="0"/>
        <pt x="158" y="526" on="0"/>
        <pt x="153" y="518" on="0"/>
        <pt x="131" y="475" on="0"/>
        <pt x="130" y="474" on="1"/>
        <pt x="126" y="468" on="0"/>
        <pt x="117" y="468" on="1"/>
        <pt x="94" y="468" on="0"/>
        <pt x="91" y="473" on="1"/>
        <pt x="145" y="614" on="0"/>
        <pt x="161" y="662" on="1"/>
        <pt x="186" y="655" on="0"/>
        <pt x="282" y="655" on="1"/>
        <pt x="412" y="656" on="1"/>
        <pt x="516" y="657" on="0"/>
        <pt x="630" y="666" on="1"/>
        <pt x="633" y="665" on="0"/>
        <pt x="635" y="640" on="0"/>
        <pt x="633" y="633" on="1"/>
        <pt x="632" y="629" on="0"/>
        <pt x="394" y="336" on="0"/>
        <pt x="276" y="192" on="1"/>
        <pt x="157" y="47" on="1"/>
        <pt x="358" y="47" on="1"/>
        <pt x="413" y="47" on="0"/>
        <pt x="453" y="82" on="1"/>
        <pt x="486" y="111" on="0"/>
        <pt x="519" y="170" on="1"/>
        <pt x="522" y="176" on="0"/>
        <pt x="533" y="176" on="1"/>
        <pt x="556" y="176" on="0"/>
        <pt x="560" y="170" on="1"/>
        <pt x="552" y="152" on="0"/>
        <pt x="487" y="26" on="0"/>
        <pt x="477" y="1" on="1"/>
        <pt x="-1" y="0" on="1"/>
        <pt x="-7" y="0" on="0"/>
        <pt x="-18" y="9" on="0"/>
        <pt x="-23" y="20" on="0"/>
        <pt x="-21" y="22" on="1"/>
        <pt x="462" y="610" on="1"/>
      </contour>
    </TTGlyph>
    <TTGlyph name="Zacute" xMin="-21" yMin="0" xMax="633" yMax="846">
      <component glyphName="acutecomb.cap" x="191" y="-3" flags="0x1004"/>
      <component glyphName="Z" x="0" y="0" flags="0x1204"/>
    </TTGlyph>
    <TTGlyph name="Zcaron" xMin="-21" yMin="0" xMax="633" yMax="867">
      <component glyphName="uni030C.cap" x="25" y="-3" flags="0x1004"/>
      <component glyphName="Z" x="0" y="0" flags="0x1204"/>
    </TTGlyph>
    <TTGlyph name="Zdotaccent" xMin="-21" yMin="0" xMax="633" yMax="866">
      <component glyphName="uni0307.cap" x="116" y="0" flags="0x1004"/>
      <component glyphName="Z" x="0" y="0" flags="0x1204"/>
    </TTGlyph>
    <TTGlyph name="a" xMin="11" yMin="-8" xMax="458" yMax="449">
      <contour>
        <pt x="318" y="449" on="1"/>
        <pt x="374" y="449" on="0"/>
        <pt x="425" y="431" on="1"/>
        <pt x="363" y="132" on="1"/>
        <pt x="359" y="116" on="0"/>
        <pt x="359" y="99" on="1"/>
        <pt x="359" y="78" on="0"/>
        <pt x="387" y="78" on="0"/>
        <pt x="439" y="130" on="0"/>
        <pt x="444" y="139" on="1"/>
        <pt x="449" y="139" on="0"/>
        <pt x="458" y="118" on="0"/>
        <pt x="458" y="112" on="1"/>
        <pt x="442" y="82" on="0"/>
        <pt x="335" y="-8" on="0"/>
        <pt x="299" y="-8" on="1"/>
        <pt x="272" y="-8" on="0"/>
        <pt x="237" y="26" on="0"/>
        <pt x="237" y="58" on="1"/>
        <pt x="237" y="63" on="0"/>
        <pt x="239" y="77" on="1"/>
        <pt x="240" y="83" on="0"/>
        <pt x="243" y="96" on="1"/>
        <pt x="224" y="62" on="0"/>
        <pt x="138" y="-7" on="0"/>
        <pt x="56" y="-7" on="0"/>
        <pt x="11" y="62" on="0"/>
        <pt x="11" y="115" on="1"/>
        <pt x="11" y="179" on="0"/>
        <pt x="71" y="305" on="0"/>
        <pt x="162" y="394" on="0"/>
        <pt x="271" y="449" on="0"/>
      </contour>
      <contour>
        <pt x="262" y="394" on="1"/>
        <pt x="212" y="394" on="0"/>
        <pt x="137" y="243" on="0"/>
        <pt x="137" y="152" on="1"/>
        <pt x="137" y="81" on="0"/>
        <pt x="173" y="81" on="1"/>
        <pt x="198" y="81" on="0"/>
        <pt x="262" y="205" on="0"/>
        <pt x="277" y="281" on="1"/>
        <pt x="297" y="382" on="1"/>
        <pt x="286" y="394" on="0"/>
      </contour>
    </TTGlyph>
    <TTGlyph name="aacute" xMin="11" yMin="-8" xMax="458" yMax="648">
      <component glyphName="acutecomb" x="617" y="10" flags="0x1004"/>
      <component glyphName="a" x="0" y="0" flags="0x1204"/>
    </TTGlyph>
    <TTGlyph name="abreve" xMin="11" yMin="-8" xMax="458" yMax="630">
      <component glyphName="uni0306" x="577" y="19" flags="0x1004"/>
      <component glyphName="a" x="0" y="0" flags="0x1204"/>
    </TTGlyph>
    <TTGlyph name="acircumflex" xMin="11" yMin="-8" xMax="458" yMax="677">
      <component glyphName="uni0302" x="582" y="19" flags="0x1004"/>
      <component glyphName="a" x="0" y="0" flags="0x1204"/>
    </TTGlyph>
    <TTGlyph name="acute" xMin="20" yMin="490" xMax="192" yMax="638">
      <component glyphName="acutecomb" x="356" y="0" flags="0x1004"/>
    </TTGlyph>
    <TTGlyph name="acutecomb" xMin="-336" yMin="490" xMax="-164" yMax="638">
      <contour>
        <pt x="-327" y="490" on="1"/>
        <pt x="-335" y="495" on="0"/>
        <pt x="-336" y="502" on="1"/>
        <pt x="-333" y="511" on="0"/>
        <pt x="-260" y="612" on="0"/>
        <pt x="-240" y="631" on="1"/>
        <pt x="-233" y="638" on="0"/>
        <pt x="-209" y="638" on="1"/>
        <pt x="-194" y="638" on="0"/>
        <pt x="-164" y="615" on="0"/>
        <pt x="-164" y="597" on="1"/>
        <pt x="-164" y="574" on="0"/>
        <pt x="-303" y="496" on="0"/>
      </contour>
    </TTGlyph>
    <TTGlyph name="acutecomb.cap" xMin="157" yMin="731" xMax="365" yMax="849">
      <contour>
        <pt x="166" y="731" on="1"/>
        <pt x="157" y="738" on="0"/>
        <pt x="157" y="744" on="1"/>
        <pt x="163" y="754" on="0"/>
        <pt x="236" y="825" on="0"/>
        <pt x="263" y="841" on="1"/>
        <pt x="277" y="849" on="0"/>
        <pt x="309" y="849" on="1"/>
        <pt x="330" y="849" on="0"/>
        <pt x="365" y="833" on="0"/>
        <pt x="365" y="817" on="1"/>
        <pt x="365" y="792" on="0"/>
        <pt x="200" y="735" on="0"/>
      </contour>
    </TTGlyph>
    <TTGlyph name="adieresis" xMin="11" yMin="-8" xMax="458" yMax="651">
      <component glyphName="uni0308" x="536" y="22" flags="0x1004"/>
      <component glyphName="a" x="0" y="0" flags="0x1204"/>
    </TTGlyph>
    <TTGlyph name="ae" xMin="6" yMin="-8" xMax="594" yMax="449">
      <contour>
        <pt x="449" y="412" on="1"/>
        <pt x="417" y="412" on="0"/>
        <pt x="365" y="278" on="0"/>
        <pt x="360" y="226" on="1"/>
        <pt x="392" y="226" on="0"/>
        <pt x="475" y="321" on="0"/>
        <pt x="475" y="373" on="1"/>
        <pt x="475" y="412" on="0"/>
      </contour>
      <contour>
        <pt x="236" y="91" on="1"/>
        <pt x="233" y="101" on="0"/>
        <pt x="236" y="193" on="0"/>
        <pt x="240" y="209" on="1"/>
        <pt x="225" y="206" on="0"/>
        <pt x="175" y="187" on="0"/>
        <pt x="167" y="182" on="1"/>
        <pt x="155" y="174" on="0"/>
        <pt x="130" y="139" on="0"/>
        <pt x="128" y="124" on="1"/>
        <pt x="122" y="94" on="0"/>
        <pt x="149" y="62" on="0"/>
        <pt x="168" y="62" on="1"/>
        <pt x="181" y="62" on="0"/>
        <pt x="226" y="83" on="0"/>
      </contour>
      <contour>
        <pt x="259" y="449" on="1"/>
        <pt x="325" y="449" on="0"/>
        <pt x="354" y="391" on="1"/>
        <pt x="420" y="449" on="0"/>
        <pt x="483" y="449" on="1"/>
        <pt x="528" y="449" on="0"/>
        <pt x="594" y="405" on="0"/>
        <pt x="594" y="357" on="1"/>
        <pt x="594" y="310" on="0"/>
        <pt x="499" y="227" on="0"/>
        <pt x="392" y="188" on="0"/>
        <pt x="357" y="188" on="1"/>
        <pt x="355" y="182" on="0"/>
        <pt x="355" y="163" on="1"/>
        <pt x="355" y="77" on="0"/>
        <pt x="416" y="77" on="1"/>
        <pt x="423" y="77" on="0"/>
        <pt x="439" y="81" on="0"/>
        <pt x="454" y="89" on="0"/>
        <pt x="469" y="98" on="0"/>
        <pt x="483" y="109" on="0"/>
        <pt x="494" y="119" on="0"/>
        <pt x="505" y="129" on="0"/>
        <pt x="512" y="136" on="0"/>
        <pt x="514" y="139" on="1"/>
        <pt x="517" y="142" on="1"/>
        <pt x="523" y="142" on="0"/>
        <pt x="532" y="119" on="0"/>
        <pt x="532" y="112" on="1"/>
        <pt x="518" y="88" on="0"/>
        <pt x="388" y="-6" on="0"/>
        <pt x="346" y="-6" on="1"/>
        <pt x="276" y="-6" on="0"/>
        <pt x="247" y="57" on="1"/>
        <pt x="231" y="45" on="0"/>
        <pt x="116" y="-8" on="0"/>
        <pt x="96" y="-8" on="1"/>
        <pt x="48" y="-8" on="0"/>
        <pt x="-3" y="68" on="0"/>
        <pt x="6" y="114" on="1"/>
        <pt x="12" y="142" on="0"/>
        <pt x="48" y="188" on="0"/>
        <pt x="67" y="194" on="1"/>
        <pt x="85" y="200" on="0"/>
        <pt x="239" y="249" on="1"/>
        <pt x="245" y="251" on="0"/>
        <pt x="246" y="263" on="1"/>
        <pt x="249" y="311" on="1"/>
        <pt x="250" y="319" on="0"/>
        <pt x="250" y="336" on="1"/>
        <pt x="250" y="411" on="0"/>
        <pt x="217" y="411" on="1"/>
        <pt x="202" y="411" on="0"/>
        <pt x="175" y="385" on="0"/>
        <pt x="162" y="356" on="0"/>
        <pt x="150" y="327" on="1"/>
        <pt x="133" y="283" on="0"/>
        <pt x="94" y="283" on="1"/>
        <pt x="76" y="283" on="0"/>
        <pt x="52" y="311" on="0"/>
        <pt x="56" y="331" on="1"/>
        <pt x="60" y="348" on="0"/>
        <pt x="77" y="372" on="1"/>
        <pt x="98" y="391" on="0"/>
        <pt x="209" y="449" on="0"/>
      </contour>
    </TTGlyph>
    <TTGlyph name="afii00208" xMin="62" yMin="194" xMax="1014" yMax="268">
      <contour>
        <pt x="1007" y="268" on="1"/>
        <pt x="1014" y="268" on="0"/>
        <pt x="1014" y="252" on="1"/>
        <pt x="1014" y="237" on="0"/>
        <pt x="997" y="199" on="0"/>
        <pt x="992" y="194" on="1"/>
        <pt x="69" y="194" on="1"/>
        <pt x="62" y="194" on="0"/>
        <pt x="62" y="210" on="1"/>
        <pt x="62" y="225" on="0"/>
        <pt x="79" y="263" on="0"/>
        <pt x="84" y="268" on="1"/>
      </contour>
    </TTGlyph>
    <TTGlyph name="afii57929" xMin="30" yMin="454" xMax="166" yMax="681">
      <component glyphName="uni0315" x="-75" y="0" flags="0x1004"/>
    </TTGlyph>
    <TTGlyph name="agrave" xMin="11" yMin="-8" xMax="458" yMax="648">
      <component glyphName="gravecomb" x="557" y="10" flags="0x1004"/>
      <component glyphName="a" x="0" y="0" flags="0x1204"/>
    </TTGlyph>
    <TTGlyph name="amacron" xMin="11" yMin="-8" xMax="458" yMax="569">
      <component glyphName="uni0304" x="572" y="36" flags="0x1004"/>
      <component glyphName="a" x="0" y="0" flags="0x1204"/>
    </TTGlyph>
    <TTGlyph name="ampersand" xMin="-10" yMin="-5" xMax="804" yMax="546">
      <contour>
        <pt x="448" y="536" on="1"/>
        <pt x="484" y="536" on="0"/>
        <pt x="539" y="490" on="0"/>
        <pt x="539" y="456" on="1"/>
        <pt x="539" y="314" on="0"/>
        <pt x="250" y="245" on="1"/>
        <pt x="251" y="155" on="0"/>
        <pt x="347" y="45" on="0"/>
        <pt x="424" y="45" on="1"/>
        <pt x="499" y="45" on="0"/>
        <pt x="613" y="126" on="0"/>
        <pt x="613" y="192" on="1"/>
        <pt x="613" y="222" on="0"/>
        <pt x="601" y="234" on="1"/>
        <pt x="522" y="205" on="0"/>
        <pt x="501" y="186" on="1"/>
        <pt x="483" y="169" on="0"/>
        <pt x="483" y="149" on="1"/>
        <pt x="483" y="141" on="0"/>
        <pt x="485" y="121" on="1"/>
        <pt x="477" y="117" on="0"/>
        <pt x="461" y="131" on="1"/>
        <pt x="447" y="154" on="0"/>
        <pt x="447" y="176" on="1"/>
        <pt x="447" y="190" on="0"/>
        <pt x="452" y="214" on="0"/>
        <pt x="457" y="231" on="0"/>
        <pt x="474" y="250" on="0"/>
        <pt x="483" y="261" on="0"/>
        <pt x="512" y="280" on="0"/>
        <pt x="525" y="288" on="0"/>
        <pt x="566" y="312" on="0"/>
        <pt x="576" y="318" on="1"/>
        <pt x="608" y="337" on="0"/>
        <pt x="651" y="370" on="0"/>
        <pt x="702" y="425" on="0"/>
        <pt x="728" y="500" on="0"/>
        <pt x="728" y="546" on="1"/>
        <pt x="739" y="547" on="0"/>
        <pt x="753" y="540" on="1"/>
        <pt x="773" y="525" on="0"/>
        <pt x="804" y="464" on="0"/>
        <pt x="804" y="431" on="1"/>
        <pt x="804" y="326" on="0"/>
        <pt x="668" y="260" on="1"/>
        <pt x="676" y="242" on="0"/>
        <pt x="676" y="222" on="1"/>
        <pt x="676" y="124" on="0"/>
        <pt x="504" y="-5" on="0"/>
        <pt x="393" y="-5" on="1"/>
        <pt x="278" y="-5" on="0"/>
        <pt x="198" y="59" on="1"/>
        <pt x="122" y="120" on="0"/>
        <pt x="121" y="213" on="1"/>
        <pt x="86" y="202" on="0"/>
        <pt x="52" y="176" on="0"/>
        <pt x="52" y="155" on="1"/>
        <pt x="52" y="137" on="0"/>
        <pt x="73" y="118" on="1"/>
        <pt x="93" y="100" on="0"/>
        <pt x="93" y="79" on="1"/>
        <pt x="93" y="55" on="0"/>
        <pt x="62" y="25" on="0"/>
        <pt x="39" y="25" on="1"/>
        <pt x="24" y="25" on="0"/>
        <pt x="7" y="30" on="1"/>
        <pt x="-10" y="58" on="0"/>
        <pt x="-10" y="98" on="1"/>
        <pt x="-10" y="152" on="0"/>
        <pt x="56" y="232" on="0"/>
        <pt x="116" y="252" on="1"/>
        <pt x="120" y="253" on="0"/>
        <pt x="124" y="255" on="1"/>
        <pt x="133" y="307" on="0"/>
        <pt x="191" y="408" on="0"/>
        <pt x="276" y="487" on="0"/>
        <pt x="389" y="536" on="0"/>
      </contour>
      <contour>
        <pt x="252" y="291" on="1"/>
        <pt x="391" y="340" on="0"/>
        <pt x="391" y="437" on="1"/>
        <pt x="391" y="458" on="0"/>
        <pt x="369" y="483" on="0"/>
        <pt x="354" y="483" on="1"/>
        <pt x="313" y="483" on="0"/>
        <pt x="259" y="369" on="0"/>
      </contour>
    </TTGlyph>
    <TTGlyph name="aogonek" xMin="11" yMin="-218" xMax="458" yMax="449">
      <contour>
        <pt x="262" y="394" on="1"/>
        <pt x="212" y="394" on="0"/>
        <pt x="137" y="243" on="0"/>
        <pt x="137" y="152" on="1"/>
        <pt x="137" y="81" on="0"/>
        <pt x="173" y="81" on="1"/>
        <pt x="198" y="81" on="0"/>
        <pt x="262" y="205" on="0"/>
        <pt x="277" y="281" on="1"/>
        <pt x="297" y="382" on="1"/>
        <pt x="286" y="394" on="0"/>
      </contour>
      <contour>
        <pt x="458" y="112" on="1"/>
        <pt x="441" y="80" on="0"/>
        <pt x="385" y="34" on="1"/>
        <pt x="306" y="-30" on="0"/>
        <pt x="285" y="-56" on="1"/>
        <pt x="256" y="-91" on="0"/>
        <pt x="256" y="-122" on="1"/>
        <pt x="256" y="-156" on="0"/>
        <pt x="292" y="-156" on="1"/>
        <pt x="307" y="-156" on="0"/>
        <pt x="334" y="-146" on="0"/>
        <pt x="349" y="-135" on="0"/>
        <pt x="358" y="-128" on="1"/>
        <pt x="366" y="-120" on="1"/>
        <pt x="371" y="-121" on="0"/>
        <pt x="371" y="-143" on="0"/>
        <pt x="369" y="-146" on="1"/>
        <pt x="351" y="-176" on="0"/>
        <pt x="286" y="-218" on="0"/>
        <pt x="255" y="-218" on="1"/>
        <pt x="228" y="-218" on="0"/>
        <pt x="195" y="-182" on="0"/>
        <pt x="195" y="-160" on="1"/>
        <pt x="195" y="-145" on="0"/>
        <pt x="204" y="-113" on="0"/>
        <pt x="214" y="-92" on="0"/>
        <pt x="239" y="-59" on="0"/>
        <pt x="250" y="-47" on="0"/>
        <pt x="285" y="-11" on="0"/>
        <pt x="288" y="-7" on="1"/>
        <pt x="237" y="0" on="0"/>
        <pt x="237" y="58" on="1"/>
        <pt x="237" y="63" on="0"/>
        <pt x="239" y="77" on="1"/>
        <pt x="240" y="83" on="0"/>
        <pt x="243" y="96" on="1"/>
        <pt x="224" y="62" on="0"/>
        <pt x="138" y="-7" on="0"/>
        <pt x="56" y="-7" on="0"/>
        <pt x="11" y="62" on="0"/>
        <pt x="11" y="115" on="1"/>
        <pt x="11" y="179" on="0"/>
        <pt x="71" y="305" on="0"/>
        <pt x="162" y="394" on="0"/>
        <pt x="271" y="449" on="0"/>
        <pt x="318" y="449" on="1"/>
        <pt x="374" y="449" on="0"/>
        <pt x="425" y="431" on="1"/>
        <pt x="363" y="132" on="1"/>
        <pt x="359" y="116" on="0"/>
        <pt x="359" y="99" on="1"/>
        <pt x="359" y="78" on="0"/>
        <pt x="387" y="78" on="0"/>
        <pt x="439" y="130" on="0"/>
        <pt x="444" y="139" on="1"/>
        <pt x="449" y="139" on="0"/>
        <pt x="458" y="118" on="0"/>
      </contour>
    </TTGlyph>
    <TTGlyph name="aring" xMin="11" yMin="-8" xMax="458" yMax="693">
      <component glyphName="uni030A" x="542" y="6" flags="0x1004"/>
      <component glyphName="a" x="0" y="0" flags="0x1204"/>
    </TTGlyph>
    <TTGlyph name="arrowdown" xMin="0" yMin="-9" xMax="325" yMax="741">
      <contour>
        <pt x="115" y="129" on="1"/>
        <pt x="235" y="735" on="1"/>
        <pt x="237" y="741" on="0"/>
        <pt x="248" y="741" on="1"/>
        <pt x="256" y="741" on="0"/>
        <pt x="283" y="734" on="0"/>
        <pt x="293" y="730" on="1"/>
        <pt x="303" y="727" on="1"/>
        <pt x="183" y="128" on="1"/>
        <pt x="221" y="165" on="1"/>
        <pt x="302" y="239" on="0"/>
        <pt x="310" y="239" on="1"/>
        <pt x="317" y="239" on="0"/>
        <pt x="325" y="212" on="0"/>
        <pt x="325" y="203" on="1"/>
        <pt x="322" y="202" on="0"/>
        <pt x="285" y="165" on="0"/>
        <pt x="194" y="63" on="0"/>
        <pt x="142" y="-3" on="1"/>
        <pt x="138" y="-9" on="0"/>
        <pt x="128" y="-9" on="1"/>
        <pt x="112" y="-9" on="0"/>
        <pt x="105" y="-1" on="1"/>
        <pt x="95" y="26" on="0"/>
        <pt x="73" y="77" on="0"/>
        <pt x="54" y="116" on="0"/>
        <pt x="35" y="150" on="0"/>
        <pt x="19" y="176" on="0"/>
        <pt x="8" y="193" on="0"/>
        <pt x="4" y="199" on="1"/>
        <pt x="0" y="205" on="1"/>
        <pt x="2" y="212" on="0"/>
        <pt x="24" y="239" on="0"/>
        <pt x="31" y="239" on="1"/>
        <pt x="37" y="239" on="0"/>
        <pt x="89" y="165" on="1"/>
      </contour>
    </TTGlyph>
    <TTGlyph name="arrowleft" xMin="13" yMin="73" xMax="686" yMax="423">
      <contour>
        <pt x="202" y="319" on="1"/>
        <pt x="165" y="284" on="1"/>
        <pt x="679" y="284" on="1"/>
        <pt x="686" y="284" on="0"/>
        <pt x="686" y="271" on="1"/>
        <pt x="686" y="262" on="0"/>
        <pt x="668" y="216" on="0"/>
        <pt x="660" y="210" on="1"/>
        <pt x="150" y="210" on="1"/>
        <pt x="173" y="177" on="1"/>
        <pt x="187" y="157" on="0"/>
        <pt x="216" y="118" on="0"/>
        <pt x="227" y="103" on="0"/>
        <pt x="227" y="99" on="1"/>
        <pt x="227" y="90" on="0"/>
        <pt x="198" y="75" on="0"/>
        <pt x="189" y="73" on="1"/>
        <pt x="188" y="75" on="0"/>
        <pt x="155" y="108" on="0"/>
        <pt x="70" y="184" on="0"/>
        <pt x="17" y="227" on="1"/>
        <pt x="13" y="228" on="0"/>
        <pt x="13" y="238" on="1"/>
        <pt x="13" y="255" on="0"/>
        <pt x="26" y="268" on="1"/>
        <pt x="163" y="347" on="0"/>
        <pt x="258" y="423" on="1"/>
        <pt x="264" y="422" on="0"/>
        <pt x="286" y="407" on="0"/>
        <pt x="286" y="399" on="1"/>
        <pt x="286" y="397" on="0"/>
        <pt x="267" y="379" on="1"/>
        <pt x="235" y="350" on="0"/>
      </contour>
    </TTGlyph>
    <TTGlyph name="arrowright" xMin="16" yMin="73" xMax="674" yMax="423">
      <contour>
        <pt x="537" y="209" on="1"/>
        <pt x="23" y="209" on="1"/>
        <pt x="16" y="209" on="0"/>
        <pt x="16" y="222" on="1"/>
        <pt x="16" y="231" on="0"/>
        <pt x="34" y="279" on="0"/>
        <pt x="42" y="285" on="1"/>
        <pt x="552" y="285" on="1"/>
        <pt x="527" y="319" on="1"/>
        <pt x="471" y="391" on="0"/>
        <pt x="473" y="398" on="1"/>
        <pt x="474" y="406" on="0"/>
        <pt x="504" y="422" on="0"/>
        <pt x="511" y="423" on="1"/>
        <pt x="518" y="414" on="1"/>
        <pt x="526" y="404" on="0"/>
        <pt x="552" y="375" on="0"/>
        <pt x="588" y="337" on="0"/>
        <pt x="642" y="290" on="0"/>
        <pt x="672" y="268" on="1"/>
        <pt x="678" y="259" on="0"/>
        <pt x="674" y="241" on="1"/>
        <pt x="672" y="230" on="0"/>
        <pt x="665" y="227" on="1"/>
        <pt x="596" y="184" on="0"/>
        <pt x="486" y="108" on="0"/>
        <pt x="445" y="75" on="0"/>
        <pt x="444" y="73" on="1"/>
        <pt x="438" y="74" on="0"/>
        <pt x="415" y="90" on="0"/>
        <pt x="416" y="98" on="1"/>
        <pt x="418" y="106" on="0"/>
        <pt x="500" y="177" on="1"/>
      </contour>
    </TTGlyph>
    <TTGlyph name="arrowup" xMin="15" yMin="-36" xMax="340" yMax="714">
      <contour>
        <pt x="157" y="577" on="1"/>
        <pt x="119" y="540" on="1"/>
        <pt x="38" y="466" on="0"/>
        <pt x="30" y="466" on="1"/>
        <pt x="23" y="466" on="0"/>
        <pt x="15" y="493" on="0"/>
        <pt x="15" y="502" on="1"/>
        <pt x="18" y="503" on="0"/>
        <pt x="55" y="540" on="0"/>
        <pt x="146" y="642" on="0"/>
        <pt x="198" y="708" on="1"/>
        <pt x="202" y="714" on="0"/>
        <pt x="212" y="714" on="1"/>
        <pt x="228" y="714" on="0"/>
        <pt x="235" y="706" on="1"/>
        <pt x="245" y="679" on="0"/>
        <pt x="267" y="628" on="0"/>
        <pt x="286" y="589" on="0"/>
        <pt x="305" y="555" on="0"/>
        <pt x="321" y="529" on="0"/>
        <pt x="332" y="512" on="0"/>
        <pt x="336" y="506" on="1"/>
        <pt x="340" y="500" on="1"/>
        <pt x="338" y="493" on="0"/>
        <pt x="316" y="466" on="0"/>
        <pt x="309" y="466" on="1"/>
        <pt x="303" y="466" on="0"/>
        <pt x="251" y="540" on="1"/>
        <pt x="225" y="576" on="1"/>
        <pt x="105" y="-30" on="1"/>
        <pt x="103" y="-36" on="0"/>
        <pt x="92" y="-36" on="1"/>
        <pt x="84" y="-36" on="0"/>
        <pt x="57" y="-29" on="0"/>
        <pt x="47" y="-26" on="1"/>
        <pt x="37" y="-22" on="1"/>
      </contour>
    </TTGlyph>
    <TTGlyph name="asciicircum" xMin="20" yMin="469" xMax="303" yMax="690">
      <contour>
        <pt x="20" y="499" on="1"/>
        <pt x="22" y="503" on="0"/>
        <pt x="56" y="532" on="0"/>
        <pt x="99" y="571" on="0"/>
        <pt x="158" y="639" on="0"/>
        <pt x="182" y="677" on="1"/>
        <pt x="183" y="679" on="0"/>
        <pt x="186" y="684" on="0"/>
        <pt x="187" y="687" on="0"/>
        <pt x="189" y="689" on="0"/>
        <pt x="192" y="690" on="0"/>
        <pt x="194" y="690" on="1"/>
        <pt x="204" y="690" on="0"/>
        <pt x="211" y="676" on="0"/>
        <pt x="228" y="620" on="0"/>
        <pt x="244" y="588" on="1"/>
        <pt x="251" y="575" on="0"/>
        <pt x="280" y="533" on="0"/>
        <pt x="303" y="502" on="0"/>
        <pt x="303" y="500" on="1"/>
        <pt x="301" y="494" on="0"/>
        <pt x="289" y="469" on="0"/>
        <pt x="285" y="469" on="1"/>
        <pt x="273" y="469" on="0"/>
        <pt x="201" y="542" on="0"/>
        <pt x="177" y="582" on="1"/>
        <pt x="141" y="542" on="0"/>
        <pt x="39" y="469" on="0"/>
        <pt x="26" y="469" on="1"/>
        <pt x="20" y="469" on="0"/>
      </contour>
    </TTGlyph>
    <TTGlyph name="asciitilde" xMin="56" yMin="245" xMax="499" yMax="359">
      <contour>
        <pt x="150" y="359" on="0"/>
        <pt x="236" y="359" on="0"/>
        <pt x="358" y="306" on="0"/>
        <pt x="402" y="306" on="1"/>
        <pt x="419" y="306" on="0"/>
        <pt x="455" y="321" on="0"/>
        <pt x="472" y="333" on="0"/>
        <pt x="495" y="350" on="1"/>
        <pt x="499" y="348" on="0"/>
        <pt x="499" y="335" on="1"/>
        <pt x="499" y="302" on="0"/>
        <pt x="409" y="245" on="0"/>
        <pt x="364" y="245" on="1"/>
        <pt x="320" y="245" on="0"/>
        <pt x="197" y="298" on="0"/>
        <pt x="153" y="298" on="1"/>
        <pt x="136" y="298" on="0"/>
        <pt x="100" y="283" on="0"/>
        <pt x="83" y="271" on="0"/>
        <pt x="60" y="254" on="1"/>
        <pt x="56" y="256" on="0"/>
        <pt x="56" y="269" on="1"/>
        <pt x="56" y="303" on="0"/>
      </contour>
    </TTGlyph>
    <TTGlyph name="asterisk" xMin="73" yMin="301" xMax="417" yMax="665">
      <contour>
        <pt x="270" y="516" on="1"/>
        <pt x="280" y="516" on="0"/>
        <pt x="316" y="576" on="0"/>
        <pt x="365" y="635" on="0"/>
        <pt x="390" y="635" on="1"/>
        <pt x="417" y="635" on="0"/>
        <pt x="417" y="602" on="1"/>
        <pt x="417" y="581" on="0"/>
        <pt x="376" y="546" on="0"/>
        <pt x="327" y="526" on="0"/>
        <pt x="286" y="502" on="0"/>
        <pt x="286" y="492" on="1"/>
        <pt x="286" y="483" on="0"/>
        <pt x="324" y="474" on="0"/>
        <pt x="369" y="468" on="0"/>
        <pt x="407" y="445" on="0"/>
        <pt x="407" y="424" on="1"/>
        <pt x="407" y="407" on="0"/>
        <pt x="378" y="378" on="0"/>
        <pt x="362" y="378" on="1"/>
        <pt x="344" y="378" on="0"/>
        <pt x="307" y="420" on="0"/>
        <pt x="277" y="462" on="0"/>
        <pt x="257" y="462" on="0"/>
        <pt x="252" y="427" on="0"/>
        <pt x="248" y="362" on="0"/>
        <pt x="241" y="339" on="1"/>
        <pt x="230" y="301" on="0"/>
        <pt x="197" y="301" on="1"/>
        <pt x="185" y="301" on="0"/>
        <pt x="165" y="321" on="0"/>
        <pt x="165" y="334" on="1"/>
        <pt x="165" y="356" on="0"/>
        <pt x="233" y="453" on="0"/>
        <pt x="233" y="464" on="1"/>
        <pt x="233" y="472" on="0"/>
        <pt x="217" y="472" on="0"/>
        <pt x="126" y="428" on="0"/>
        <pt x="105" y="428" on="1"/>
        <pt x="92" y="428" on="0"/>
        <pt x="73" y="446" on="0"/>
        <pt x="73" y="458" on="1"/>
        <pt x="73" y="467" on="0"/>
        <pt x="80" y="487" on="0"/>
        <pt x="110" y="508" on="0"/>
        <pt x="135" y="508" on="1"/>
        <pt x="151" y="508" on="0"/>
        <pt x="206" y="500" on="0"/>
        <pt x="215" y="500" on="1"/>
        <pt x="226" y="500" on="0"/>
        <pt x="235" y="502" on="0"/>
        <pt x="237" y="506" on="0"/>
        <pt x="237" y="510" on="1"/>
        <pt x="237" y="520" on="0"/>
        <pt x="184" y="592" on="0"/>
        <pt x="184" y="616" on="1"/>
        <pt x="184" y="635" on="0"/>
        <pt x="210" y="665" on="0"/>
        <pt x="228" y="665" on="1"/>
        <pt x="240" y="665" on="0"/>
        <pt x="255" y="654" on="0"/>
        <pt x="260" y="622" on="0"/>
        <pt x="261" y="607" on="0"/>
        <pt x="261" y="584" on="1"/>
        <pt x="260" y="575" on="1"/>
        <pt x="260" y="566" on="0"/>
        <pt x="260" y="549" on="0"/>
        <pt x="261" y="528" on="0"/>
        <pt x="266" y="516" on="0"/>
      </contour>
    </TTGlyph>
    <TTGlyph name="at" xMin="30" yMin="-114" xMax="745" yMax="582">
      <contour>
        <pt x="525" y="132" on="1"/>
        <pt x="517" y="96" on="0"/>
        <pt x="527" y="61" on="0"/>
        <pt x="548" y="61" on="1"/>
        <pt x="588" y="61" on="0"/>
        <pt x="688" y="206" on="0"/>
        <pt x="688" y="300" on="1"/>
        <pt x="688" y="410" on="0"/>
        <pt x="579" y="540" on="0"/>
        <pt x="465" y="540" on="1"/>
        <pt x="423" y="540" on="0"/>
        <pt x="321" y="504" on="0"/>
        <pt x="219" y="433" on="0"/>
        <pt x="135" y="339" on="0"/>
        <pt x="82" y="211" on="0"/>
        <pt x="82" y="142" on="1"/>
        <pt x="82" y="6" on="0"/>
        <pt x="172" y="-76" on="1"/>
        <pt x="187" y="-90" on="0"/>
        <pt x="215" y="-104" on="1"/>
        <pt x="203" y="-114" on="0"/>
        <pt x="181" y="-114" on="1"/>
        <pt x="173" y="-114" on="0"/>
        <pt x="135" y="-100" on="0"/>
        <pt x="121" y="-88" on="1"/>
        <pt x="30" y="-10" on="0"/>
        <pt x="30" y="131" on="1"/>
        <pt x="30" y="222" on="0"/>
        <pt x="113" y="392" on="0"/>
        <pt x="244" y="511" on="0"/>
        <pt x="405" y="582" on="0"/>
        <pt x="483" y="582" on="1"/>
        <pt x="571" y="582" on="0"/>
        <pt x="693" y="502" on="0"/>
        <pt x="745" y="384" on="0"/>
        <pt x="745" y="314" on="1"/>
        <pt x="745" y="251" on="0"/>
        <pt x="703" y="139" on="0"/>
        <pt x="639" y="64" on="0"/>
        <pt x="563" y="9" on="0"/>
        <pt x="497" y="-17" on="0"/>
        <pt x="474" y="-17" on="1"/>
        <pt x="399" y="-17" on="0"/>
        <pt x="399" y="58" on="1"/>
        <pt x="399" y="63" on="0"/>
        <pt x="401" y="77" on="1"/>
        <pt x="402" y="83" on="0"/>
        <pt x="405" y="96" on="1"/>
        <pt x="386" y="62" on="0"/>
        <pt x="300" y="-7" on="0"/>
        <pt x="218" y="-7" on="0"/>
        <pt x="173" y="62" on="0"/>
        <pt x="173" y="115" on="1"/>
        <pt x="173" y="179" on="0"/>
        <pt x="233" y="305" on="0"/>
        <pt x="324" y="394" on="0"/>
        <pt x="433" y="449" on="0"/>
        <pt x="480" y="449" on="1"/>
        <pt x="536" y="449" on="0"/>
        <pt x="587" y="431" on="1"/>
      </contour>
      <contour>
        <pt x="424" y="394" on="1"/>
        <pt x="374" y="394" on="0"/>
        <pt x="299" y="243" on="0"/>
        <pt x="299" y="152" on="1"/>
        <pt x="299" y="81" on="0"/>
        <pt x="335" y="81" on="1"/>
        <pt x="360" y="81" on="0"/>
        <pt x="424" y="205" on="0"/>
        <pt x="439" y="281" on="1"/>
        <pt x="459" y="382" on="1"/>
        <pt x="448" y="394" on="0"/>
      </contour>
    </TTGlyph>
    <TTGlyph name="atilde" xMin="11" yMin="-8" xMax="458" yMax="605">
      <component glyphName="tildecomb" x="549" y="22" flags="0x1004"/>
      <component glyphName="a" x="0" y="0" flags="0x1204"/>
    </TTGlyph>
    <TTGlyph name="b" xMin="35" yMin="-6" xMax="437" yMax="696">
      <contour>
        <pt x="280" y="361" on="1"/>
        <pt x="247" y="361" on="0"/>
        <pt x="171" y="236" on="0"/>
        <pt x="158" y="167" on="1"/>
        <pt x="148" y="125" on="0"/>
        <pt x="158" y="39" on="0"/>
        <pt x="183" y="39" on="1"/>
        <pt x="228" y="39" on="0"/>
        <pt x="308" y="224" on="0"/>
        <pt x="308" y="302" on="1"/>
        <pt x="308" y="361" on="0"/>
      </contour>
      <contour>
        <pt x="190" y="336" on="1"/>
        <pt x="214" y="372" on="0"/>
        <pt x="313" y="449" on="0"/>
        <pt x="346" y="449" on="1"/>
        <pt x="389" y="449" on="0"/>
        <pt x="437" y="391" on="0"/>
        <pt x="437" y="337" on="1"/>
        <pt x="437" y="270" on="0"/>
        <pt x="380" y="140" on="0"/>
        <pt x="294" y="49" on="0"/>
        <pt x="194" y="-6" on="0"/>
        <pt x="151" y="-6" on="1"/>
        <pt x="102" y="-6" on="0"/>
        <pt x="35" y="57" on="0"/>
        <pt x="35" y="107" on="1"/>
        <pt x="35" y="134" on="0"/>
        <pt x="41" y="162" on="1"/>
        <pt x="119" y="560" on="1"/>
        <pt x="128" y="600" on="0"/>
        <pt x="128" y="613" on="1"/>
        <pt x="128" y="632" on="0"/>
        <pt x="67" y="632" on="1"/>
        <pt x="65" y="635" on="0"/>
        <pt x="68" y="658" on="0"/>
        <pt x="71" y="661" on="1"/>
        <pt x="109" y="664" on="0"/>
        <pt x="233" y="689" on="0"/>
        <pt x="251" y="696" on="1"/>
        <pt x="257" y="692" on="0"/>
        <pt x="257" y="677" on="1"/>
        <pt x="257" y="664" on="0"/>
        <pt x="244" y="602" on="1"/>
      </contour>
    </TTGlyph>
    <TTGlyph name="backslash" xMin="123" yMin="-40" xMax="303" yMax="762">
      <contour>
        <pt x="303" y="-4" on="1"/>
        <pt x="305" y="-15" on="0"/>
        <pt x="280" y="-40" on="0"/>
        <pt x="271" y="-40" on="1"/>
        <pt x="263" y="-40" on="0"/>
        <pt x="259" y="-37" on="1"/>
        <pt x="123" y="755" on="1"/>
        <pt x="128" y="762" on="0"/>
        <pt x="137" y="762" on="1"/>
        <pt x="151" y="762" on="0"/>
        <pt x="177" y="735" on="0"/>
        <pt x="179" y="725" on="1"/>
      </contour>
    </TTGlyph>
    <TTGlyph name="bar" xMin="2" yMin="-125" xMax="219" yMax="766">
      <contour>
        <pt x="172" y="757" on="1"/>
        <pt x="185" y="766" on="0"/>
        <pt x="203" y="766" on="1"/>
        <pt x="210" y="766" on="0"/>
        <pt x="220" y="761" on="0"/>
        <pt x="219" y="756" on="1"/>
        <pt x="49" y="-116" on="1"/>
        <pt x="37" y="-125" on="0"/>
        <pt x="14" y="-125" on="1"/>
        <pt x="8" y="-125" on="0"/>
        <pt x="1" y="-118" on="0"/>
        <pt x="2" y="-115" on="1"/>
        <pt x="102" y="419" on="0"/>
      </contour>
    </TTGlyph>
    <TTGlyph name="braceleft" xMin="23" yMin="-144" xMax="303" yMax="740">
      <contour>
        <pt x="128" y="404" on="1"/>
        <pt x="131" y="421" on="0"/>
        <pt x="124" y="481" on="1"/>
        <pt x="117" y="520" on="0"/>
        <pt x="123" y="554" on="1"/>
        <pt x="136" y="621" on="0"/>
        <pt x="252" y="731" on="0"/>
        <pt x="295" y="740" on="1"/>
        <pt x="300" y="740" on="0"/>
        <pt x="305" y="724" on="0"/>
        <pt x="302" y="718" on="1"/>
        <pt x="274" y="705" on="0"/>
        <pt x="212" y="638" on="0"/>
        <pt x="205" y="599" on="1"/>
        <pt x="197" y="562" on="0"/>
        <pt x="207" y="516" on="1"/>
        <pt x="216" y="470" on="0"/>
        <pt x="208" y="432" on="1"/>
        <pt x="198" y="381" on="0"/>
        <pt x="119" y="303" on="0"/>
        <pt x="91" y="298" on="1"/>
        <pt x="117" y="293" on="0"/>
        <pt x="166" y="215" on="0"/>
        <pt x="156" y="164" on="1"/>
        <pt x="148" y="123" on="0"/>
        <pt x="123" y="80" on="1"/>
        <pt x="95" y="32" on="0"/>
        <pt x="88" y="-3" on="1"/>
        <pt x="81" y="-42" on="0"/>
        <pt x="116" y="-109" on="0"/>
        <pt x="138" y="-122" on="1"/>
        <pt x="139" y="-128" on="0"/>
        <pt x="128" y="-144" on="0"/>
        <pt x="123" y="-144" on="1"/>
        <pt x="84" y="-135" on="0"/>
        <pt x="10" y="-25" on="0"/>
        <pt x="23" y="42" on="1"/>
        <pt x="29" y="72" on="0"/>
        <pt x="56" y="122" on="1"/>
        <pt x="83" y="169" on="0"/>
        <pt x="87" y="192" on="1"/>
        <pt x="94" y="229" on="0"/>
        <pt x="59" y="277" on="0"/>
        <pt x="29" y="287" on="1"/>
        <pt x="26" y="292" on="0"/>
        <pt x="28" y="298" on="1"/>
        <pt x="30" y="306" on="0"/>
        <pt x="33" y="309" on="1"/>
        <pt x="67" y="319" on="0"/>
        <pt x="121" y="367" on="0"/>
      </contour>
    </TTGlyph>
    <TTGlyph name="braceright" xMin="-41" yMin="-144" xMax="237" yMax="740">
      <contour>
        <pt x="137" y="740" on="1"/>
        <pt x="176" y="731" on="0"/>
        <pt x="250" y="621" on="0"/>
        <pt x="237" y="554" on="1"/>
        <pt x="230" y="521" on="0"/>
        <pt x="206" y="478" on="1"/>
        <pt x="178" y="427" on="0"/>
        <pt x="174" y="404" on="1"/>
        <pt x="167" y="367" on="0"/>
        <pt x="202" y="319" on="0"/>
        <pt x="232" y="309" on="1"/>
        <pt x="234" y="305" on="0"/>
        <pt x="232" y="298" on="1"/>
        <pt x="230" y="289" on="0"/>
        <pt x="228" y="287" on="1"/>
        <pt x="194" y="277" on="0"/>
        <pt x="140" y="229" on="0"/>
        <pt x="133" y="192" on="1"/>
        <pt x="128" y="166" on="0"/>
        <pt x="136" y="121" on="1"/>
        <pt x="144" y="75" on="0"/>
        <pt x="137" y="42" on="1"/>
        <pt x="124" y="-25" on="0"/>
        <pt x="8" y="-135" on="0"/>
        <pt x="-35" y="-144" on="1"/>
        <pt x="-39" y="-144" on="0"/>
        <pt x="-43" y="-128" on="0"/>
        <pt x="-40" y="-122" on="1"/>
        <pt x="-13" y="-108" on="0"/>
        <pt x="48" y="-42" on="0"/>
        <pt x="62" y="36" on="0"/>
        <pt x="53" y="79" on="1"/>
        <pt x="44" y="125" on="0"/>
        <pt x="52" y="164" on="1"/>
        <pt x="62" y="215" on="0"/>
        <pt x="142" y="293" on="0"/>
        <pt x="170" y="298" on="1"/>
        <pt x="144" y="303" on="0"/>
        <pt x="94" y="381" on="0"/>
        <pt x="104" y="432" on="1"/>
        <pt x="114" y="478" on="0"/>
        <pt x="140" y="522" on="1"/>
        <pt x="165" y="564" on="0"/>
        <pt x="172" y="599" on="1"/>
        <pt x="179" y="638" on="0"/>
        <pt x="145" y="704" on="0"/>
        <pt x="123" y="718" on="1"/>
        <pt x="122" y="724" on="0"/>
        <pt x="132" y="740" on="0"/>
      </contour>
    </TTGlyph>
    <TTGlyph name="bracketleft" xMin="3" yMin="-133" xMax="348" yMax="765">
      <contour>
        <pt x="171" y="750" on="1"/>
        <pt x="175" y="759" on="0"/>
        <pt x="180" y="759" on="1"/>
        <pt x="286" y="759" on="0"/>
        <pt x="343" y="765" on="1"/>
        <pt x="348" y="760" on="0"/>
        <pt x="348" y="753" on="1"/>
        <pt x="348" y="736" on="0"/>
        <pt x="329" y="728" on="1"/>
        <pt x="298" y="714" on="0"/>
        <pt x="227" y="707" on="1"/>
        <pt x="223" y="707" on="0"/>
        <pt x="220" y="701" on="1"/>
        <pt x="70" y="-56" on="1"/>
        <pt x="69" y="-61" on="0"/>
        <pt x="76" y="-63" on="1"/>
        <pt x="149" y="-82" on="0"/>
        <pt x="169" y="-95" on="1"/>
        <pt x="185" y="-105" on="0"/>
        <pt x="185" y="-115" on="1"/>
        <pt x="185" y="-127" on="0"/>
        <pt x="177" y="-133" on="1"/>
        <pt x="47" y="-109" on="0"/>
        <pt x="10" y="-107" on="1"/>
        <pt x="1" y="-107" on="0"/>
        <pt x="3" y="-97" on="1"/>
      </contour>
    </TTGlyph>
    <TTGlyph name="bracketright" xMin="-60" yMin="-133" xMax="277" yMax="765">
      <contour>
        <pt x="102" y="765" on="1"/>
        <pt x="207" y="756" on="0"/>
        <pt x="267" y="756" on="1"/>
        <pt x="272" y="756" on="0"/>
        <pt x="278" y="749" on="0"/>
        <pt x="277" y="745" on="1"/>
        <pt x="112" y="-97" on="1"/>
        <pt x="103" y="-106" on="0"/>
        <pt x="100" y="-106" on="1"/>
        <pt x="7" y="-115" on="0"/>
        <pt x="-53" y="-133" on="1"/>
        <pt x="-60" y="-130" on="0"/>
        <pt x="-60" y="-119" on="1"/>
        <pt x="-60" y="-104" on="0"/>
        <pt x="-33" y="-91" on="1"/>
        <pt x="12" y="-68" on="0"/>
        <pt x="54" y="-56" on="1"/>
        <pt x="62" y="-53" on="0"/>
        <pt x="63" y="-48" on="1"/>
        <pt x="210" y="697" on="1"/>
        <pt x="212" y="705" on="0"/>
        <pt x="203" y="706" on="1"/>
        <pt x="138" y="714" on="0"/>
        <pt x="108" y="728" on="1"/>
        <pt x="93" y="736" on="0"/>
        <pt x="93" y="755" on="1"/>
        <pt x="93" y="759" on="0"/>
        <pt x="97" y="764" on="0"/>
        <pt x="101" y="765" on="0"/>
      </contour>
    </TTGlyph>
    <TTGlyph name="breve" xMin="20" yMin="520" xMax="223" yMax="641">
      <component glyphName="uni0306" x="356" y="30" flags="0x1004"/>
    </TTGlyph>
    <TTGlyph name="brokenbar" xMin="3" yMin="-125" xMax="220" yMax="766">
      <contour>
        <pt x="173" y="757" on="1"/>
        <pt x="186" y="766" on="0"/>
        <pt x="204" y="766" on="1"/>
        <pt x="211" y="766" on="0"/>
        <pt x="221" y="761" on="0"/>
        <pt x="220" y="756" on="1"/>
        <pt x="147" y="384" on="1"/>
        <pt x="135" y="375" on="0"/>
        <pt x="112" y="375" on="1"/>
        <pt x="106" y="375" on="0"/>
        <pt x="99" y="382" on="0"/>
        <pt x="100" y="385" on="1"/>
        <pt x="108" y="418" on="0"/>
      </contour>
      <contour>
        <pt x="76" y="257" on="1"/>
        <pt x="89" y="266" on="0"/>
        <pt x="107" y="266" on="1"/>
        <pt x="114" y="266" on="0"/>
        <pt x="124" y="261" on="0"/>
        <pt x="123" y="256" on="1"/>
        <pt x="50" y="-116" on="1"/>
        <pt x="38" y="-125" on="0"/>
        <pt x="15" y="-125" on="1"/>
        <pt x="9" y="-125" on="0"/>
        <pt x="2" y="-118" on="0"/>
        <pt x="3" y="-115" on="1"/>
        <pt x="11" y="-82" on="0"/>
      </contour>
    </TTGlyph>
    <TTGlyph name="bullet" xMin="108" yMin="123" xMax="368" yMax="404">
      <contour>
        <pt x="97" y="205" on="0"/>
        <pt x="119" y="321" on="0"/>
        <pt x="212" y="404" on="0"/>
        <pt x="320" y="404" on="0"/>
        <pt x="379" y="321" on="0"/>
        <pt x="357" y="205" on="0"/>
        <pt x="265" y="123" on="0"/>
        <pt x="157" y="123" on="0"/>
      </contour>
    </TTGlyph>
    <TTGlyph name="c" xMin="15" yMin="-6" xMax="369" yMax="449">
      <contour>
        <pt x="207" y="449" on="0"/>
        <pt x="325" y="449" on="0"/>
        <pt x="354" y="427" on="1"/>
        <pt x="369" y="404" on="0"/>
        <pt x="369" y="377" on="1"/>
        <pt x="369" y="354" on="0"/>
        <pt x="335" y="316" on="0"/>
        <pt x="313" y="316" on="1"/>
        <pt x="281" y="316" on="0"/>
        <pt x="262" y="353" on="1"/>
        <pt x="261" y="354" on="0"/>
        <pt x="256" y="364" on="0"/>
        <pt x="254" y="368" on="0"/>
        <pt x="249" y="377" on="0"/>
        <pt x="245" y="382" on="0"/>
        <pt x="240" y="389" on="0"/>
        <pt x="235" y="393" on="0"/>
        <pt x="228" y="397" on="0"/>
        <pt x="222" y="399" on="0"/>
        <pt x="218" y="399" on="1"/>
        <pt x="191" y="399" on="0"/>
        <pt x="141" y="250" on="0"/>
        <pt x="141" y="170" on="1"/>
        <pt x="141" y="77" on="0"/>
        <pt x="203" y="77" on="1"/>
        <pt x="240" y="77" on="0"/>
        <pt x="303" y="140" on="1"/>
        <pt x="308" y="140" on="0"/>
        <pt x="316" y="120" on="0"/>
        <pt x="316" y="114" on="1"/>
        <pt x="296" y="84" on="0"/>
        <pt x="184" y="-6" on="0"/>
        <pt x="86" y="-6" on="0"/>
        <pt x="15" y="65" on="0"/>
        <pt x="15" y="131" on="1"/>
        <pt x="15" y="207" on="0"/>
        <pt x="90" y="356" on="0"/>
      </contour>
    </TTGlyph>
    <TTGlyph name="cacute" xMin="15" yMin="-6" xMax="406" yMax="648">
      <component glyphName="acutecomb" x="570" y="10" flags="0x1004"/>
      <component glyphName="c" x="0" y="0" flags="0x1204"/>
    </TTGlyph>
    <TTGlyph name="caron" xMin="18" yMin="490" xMax="239" yMax="658">
      <component glyphName="uni030C" x="367" y="0" flags="0x1004"/>
    </TTGlyph>
    <TTGlyph name="ccaron" xMin="15" yMin="-6" xMax="397" yMax="670">
      <component glyphName="uni030C" x="525" y="12" flags="0x1004"/>
      <component glyphName="c" x="0" y="0" flags="0x1204"/>
    </TTGlyph>
    <TTGlyph name="ccedilla" xMin="15" yMin="-163" xMax="369" yMax="449">
      <component glyphName="uni0327" x="360" y="0" flags="0x1004"/>
      <component glyphName="c" x="0" y="0" flags="0x1204"/>
    </TTGlyph>
    <TTGlyph name="ccircumflex" xMin="15" yMin="-6" xMax="379" yMax="677">
      <component glyphName="uni0302" x="531" y="19" flags="0x1004"/>
      <component glyphName="c" x="0" y="0" flags="0x1204"/>
    </TTGlyph>
    <TTGlyph name="cdotaccent" xMin="15" yMin="-6" xMax="369" yMax="668">
      <component glyphName="uni0307" x="542" y="40" flags="0x1004"/>
      <component glyphName="c" x="0" y="0" flags="0x1204"/>
    </TTGlyph>
    <TTGlyph name="cedilla" xMin="114" yMin="-163" xMax="281" yMax="-4">
      <component glyphName="uni0327" x="450" y="0" flags="0x1004"/>
    </TTGlyph>
    <TTGlyph name="cent" xMin="25" yMin="-45" xMax="379" yMax="474">
      <contour>
        <pt x="281" y="474" on="1"/>
        <pt x="317" y="474" on="0"/>
        <pt x="316" y="466" on="1"/>
        <pt x="140" y="-45" on="1"/>
        <pt x="104" y="-45" on="0"/>
        <pt x="105" y="-36" on="1"/>
      </contour>
      <contour>
        <pt x="217" y="449" on="0"/>
        <pt x="335" y="449" on="0"/>
        <pt x="364" y="427" on="1"/>
        <pt x="379" y="404" on="0"/>
        <pt x="379" y="377" on="1"/>
        <pt x="379" y="354" on="0"/>
        <pt x="345" y="316" on="0"/>
        <pt x="323" y="316" on="1"/>
        <pt x="291" y="316" on="0"/>
        <pt x="272" y="353" on="1"/>
        <pt x="271" y="354" on="0"/>
        <pt x="266" y="364" on="0"/>
        <pt x="264" y="368" on="0"/>
        <pt x="259" y="377" on="0"/>
        <pt x="255" y="382" on="0"/>
        <pt x="250" y="389" on="0"/>
        <pt x="245" y="393" on="0"/>
        <pt x="238" y="397" on="0"/>
        <pt x="232" y="399" on="0"/>
        <pt x="228" y="399" on="1"/>
        <pt x="201" y="399" on="0"/>
        <pt x="151" y="250" on="0"/>
        <pt x="151" y="170" on="1"/>
        <pt x="151" y="77" on="0"/>
        <pt x="213" y="77" on="1"/>
        <pt x="250" y="77" on="0"/>
        <pt x="313" y="140" on="1"/>
        <pt x="318" y="140" on="0"/>
        <pt x="326" y="120" on="0"/>
        <pt x="326" y="114" on="1"/>
        <pt x="306" y="84" on="0"/>
        <pt x="194" y="-6" on="0"/>
        <pt x="96" y="-6" on="0"/>
        <pt x="25" y="65" on="0"/>
        <pt x="25" y="131" on="1"/>
        <pt x="25" y="207" on="0"/>
        <pt x="100" y="356" on="0"/>
      </contour>
    </TTGlyph>
    <TTGlyph name="circumflex" xMin="15" yMin="490" xMax="236" yMax="658">
      <component glyphName="uni0302" x="388" y="0" flags="0x1004"/>
    </TTGlyph>
    <TTGlyph name="colon" xMin="18" yMin="-11" xMax="205" yMax="443">
      <contour>
        <pt x="74" y="348" on="0"/>
        <pt x="84" y="404" on="0"/>
        <pt x="129" y="443" on="0"/>
        <pt x="181" y="443" on="0"/>
        <pt x="210" y="404" on="0"/>
        <pt x="200" y="348" on="0"/>
        <pt x="156" y="305" on="0"/>
        <pt x="130" y="305" on="1"/>
        <pt x="103" y="305" on="0"/>
      </contour>
      <contour>
        <pt x="13" y="32" on="0"/>
        <pt x="23" y="88" on="0"/>
        <pt x="68" y="127" on="0"/>
        <pt x="120" y="127" on="0"/>
        <pt x="149" y="88" on="0"/>
        <pt x="139" y="32" on="0"/>
        <pt x="95" y="-11" on="0"/>
        <pt x="69" y="-11" on="1"/>
        <pt x="42" y="-11" on="0"/>
      </contour>
    </TTGlyph>
    <TTGlyph name="comma" xMin="-30" yMin="-123" xMax="128" yMax="135">
      <contour>
        <pt x="-30" y="-103" on="1"/>
        <pt x="-21" y="-98" on="0"/>
        <pt x="8" y="-73" on="0"/>
        <pt x="44" y="-22" on="0"/>
        <pt x="44" y="0" on="1"/>
        <pt x="44" y="13" on="0"/>
        <pt x="9" y="47" on="0"/>
        <pt x="9" y="68" on="1"/>
        <pt x="9" y="96" on="0"/>
        <pt x="60" y="135" on="0"/>
        <pt x="93" y="135" on="1"/>
        <pt x="115" y="135" on="0"/>
        <pt x="125" y="123" on="1"/>
        <pt x="128" y="116" on="0"/>
        <pt x="128" y="101" on="1"/>
        <pt x="128" y="43" on="0"/>
        <pt x="99" y="-10" on="1"/>
        <pt x="77" y="-50" on="0"/>
        <pt x="28" y="-96" on="0"/>
        <pt x="-14" y="-123" on="1"/>
        <pt x="-30" y="-119" on="0"/>
      </contour>
    </TTGlyph>
    <TTGlyph name="copyright" xMin="63" yMin="38" xMax="571" yMax="584">
      <contour>
        <pt x="341" y="455" on="1"/>
        <pt x="350" y="455" on="0"/>
        <pt x="420" y="439" on="1"/>
        <pt x="420" y="438" on="0"/>
        <pt x="426" y="380" on="0"/>
        <pt x="425" y="377" on="1"/>
        <pt x="425" y="376" on="0"/>
        <pt x="414" y="371" on="0"/>
        <pt x="406" y="371" on="0"/>
        <pt x="405" y="372" on="1"/>
        <pt x="398" y="429" on="0"/>
        <pt x="340" y="429" on="1"/>
        <pt x="302" y="429" on="0"/>
        <pt x="257" y="359" on="0"/>
        <pt x="251" y="310" on="1"/>
        <pt x="245" y="258" on="0"/>
        <pt x="277" y="188" on="0"/>
        <pt x="315" y="188" on="1"/>
        <pt x="347" y="188" on="0"/>
        <pt x="366" y="205" on="1"/>
        <pt x="389" y="225" on="0"/>
        <pt x="399" y="256" on="1"/>
        <pt x="413" y="256" on="0"/>
        <pt x="416" y="252" on="1"/>
        <pt x="414" y="244" on="0"/>
        <pt x="397" y="190" on="0"/>
        <pt x="393" y="189" on="1"/>
        <pt x="388" y="187" on="0"/>
        <pt x="359" y="176" on="0"/>
        <pt x="341" y="169" on="0"/>
        <pt x="313" y="163" on="0"/>
        <pt x="301" y="163" on="1"/>
        <pt x="241" y="163" on="0"/>
        <pt x="176" y="240" on="0"/>
        <pt x="192" y="370" on="0"/>
        <pt x="285" y="455" on="0"/>
      </contour>
      <contour>
        <pt x="104" y="310" on="1"/>
        <pt x="93" y="215" on="0"/>
        <pt x="200" y="82" on="0"/>
        <pt x="376" y="82" on="0"/>
        <pt x="517" y="216" on="0"/>
        <pt x="528" y="310" on="1"/>
        <pt x="539" y="405" on="0"/>
        <pt x="432" y="538" on="0"/>
        <pt x="256" y="538" on="0"/>
        <pt x="115" y="404" on="0"/>
      </contour>
      <contour>
        <pt x="245" y="584" on="0"/>
        <pt x="455" y="584" on="0"/>
        <pt x="585" y="424" on="0"/>
        <pt x="557" y="198" on="0"/>
        <pt x="388" y="38" on="0"/>
        <pt x="178" y="38" on="0"/>
        <pt x="49" y="198" on="0"/>
        <pt x="77" y="424" on="0"/>
      </contour>
    </TTGlyph>
    <TTGlyph name="currency" xMin="54" yMin="100" xMax="505" yMax="520">
      <contour>
        <pt x="255" y="155" on="1"/>
        <pt x="288" y="155" on="0"/>
        <pt x="344" y="235" on="0"/>
        <pt x="356" y="294" on="1"/>
        <pt x="369" y="363" on="0"/>
        <pt x="335" y="461" on="0"/>
        <pt x="299" y="461" on="1"/>
        <pt x="266" y="461" on="0"/>
        <pt x="207" y="377" on="0"/>
        <pt x="195" y="319" on="1"/>
        <pt x="182" y="251" on="0"/>
        <pt x="218" y="155" on="0"/>
      </contour>
      <contour>
        <pt x="410" y="455" on="1"/>
        <pt x="475" y="510" on="1"/>
        <pt x="479" y="514" on="0"/>
        <pt x="486" y="508" on="1"/>
        <pt x="503" y="495" on="0"/>
        <pt x="505" y="466" on="1"/>
        <pt x="438" y="410" on="1"/>
        <pt x="455" y="362" on="0"/>
        <pt x="445" y="307" on="1"/>
        <pt x="433" y="247" on="0"/>
        <pt x="393" y="199" on="1"/>
        <pt x="432" y="141" on="1"/>
        <pt x="434" y="139" on="0"/>
        <pt x="429" y="130" on="1"/>
        <pt x="413" y="109" on="0"/>
        <pt x="384" y="100" on="1"/>
        <pt x="346" y="155" on="1"/>
        <pt x="295" y="120" on="0"/>
        <pt x="240" y="120" on="1"/>
        <pt x="180" y="120" on="0"/>
        <pt x="142" y="160" on="1"/>
        <pt x="83" y="110" on="1"/>
        <pt x="78" y="107" on="0"/>
        <pt x="74" y="111" on="1"/>
        <pt x="56" y="125" on="0"/>
        <pt x="54" y="154" on="1"/>
        <pt x="114" y="205" on="1"/>
        <pt x="95" y="251" on="0"/>
        <pt x="106" y="307" on="1"/>
        <pt x="120" y="374" on="0"/>
        <pt x="164" y="423" on="1"/>
        <pt x="126" y="479" on="1"/>
        <pt x="123" y="482" on="0"/>
        <pt x="128" y="488" on="1"/>
        <pt x="145" y="512" on="0"/>
        <pt x="175" y="520" on="1"/>
        <pt x="213" y="465" on="1"/>
        <pt x="261" y="496" on="0"/>
        <pt x="314" y="496" on="1"/>
        <pt x="372" y="496" on="0"/>
      </contour>
    </TTGlyph>
    <TTGlyph name="d" xMin="10" yMin="-8" xMax="470" yMax="696">
      <contour>
        <pt x="287" y="353" on="1"/>
        <pt x="287" y="394" on="0"/>
        <pt x="261" y="394" on="1"/>
        <pt x="211" y="394" on="0"/>
        <pt x="136" y="243" on="0"/>
        <pt x="136" y="152" on="1"/>
        <pt x="136" y="81" on="0"/>
        <pt x="172" y="81" on="1"/>
        <pt x="197" y="81" on="0"/>
        <pt x="267" y="219" on="0"/>
        <pt x="276" y="281" on="1"/>
        <pt x="287" y="340" on="0"/>
      </contour>
      <contour>
        <pt x="332" y="560" on="1"/>
        <pt x="333" y="566" on="0"/>
        <pt x="338" y="590" on="0"/>
        <pt x="341" y="608" on="0"/>
        <pt x="341" y="613" on="1"/>
        <pt x="341" y="632" on="0"/>
        <pt x="280" y="632" on="1"/>
        <pt x="278" y="635" on="0"/>
        <pt x="281" y="658" on="0"/>
        <pt x="284" y="661" on="1"/>
        <pt x="322" y="664" on="0"/>
        <pt x="446" y="689" on="0"/>
        <pt x="464" y="696" on="1"/>
        <pt x="470" y="692" on="0"/>
        <pt x="470" y="677" on="1"/>
        <pt x="470" y="664" on="0"/>
        <pt x="457" y="602" on="1"/>
        <pt x="362" y="132" on="1"/>
        <pt x="358" y="116" on="0"/>
        <pt x="358" y="99" on="1"/>
        <pt x="358" y="78" on="0"/>
        <pt x="386" y="78" on="0"/>
        <pt x="438" y="130" on="0"/>
        <pt x="443" y="139" on="1"/>
        <pt x="448" y="139" on="0"/>
        <pt x="457" y="118" on="0"/>
        <pt x="457" y="112" on="1"/>
        <pt x="441" y="82" on="0"/>
        <pt x="334" y="-8" on="0"/>
        <pt x="298" y="-8" on="1"/>
        <pt x="264" y="-8" on="0"/>
        <pt x="248" y="16" on="1"/>
        <pt x="236" y="34" on="0"/>
        <pt x="236" y="58" on="1"/>
        <pt x="236" y="72" on="0"/>
        <pt x="242" y="96" on="1"/>
        <pt x="223" y="62" on="0"/>
        <pt x="137" y="-7" on="0"/>
        <pt x="55" y="-7" on="0"/>
        <pt x="10" y="62" on="0"/>
        <pt x="10" y="115" on="1"/>
        <pt x="10" y="194" on="0"/>
        <pt x="100" y="345" on="0"/>
        <pt x="230" y="438" on="0"/>
        <pt x="293" y="448" on="1"/>
        <pt x="299" y="449" on="0"/>
        <pt x="310" y="449" on="1"/>
      </contour>
    </TTGlyph>
    <TTGlyph name="dagger" xMin="123" yMin="-24" xMax="429" yMax="662">
      <contour>
        <pt x="236" y="488" on="1"/>
        <pt x="250" y="488" on="0"/>
        <pt x="266" y="505" on="1"/>
        <pt x="271" y="528" on="0"/>
        <pt x="271" y="612" on="0"/>
        <pt x="261" y="625" on="1"/>
        <pt x="264" y="640" on="0"/>
        <pt x="296" y="662" on="0"/>
        <pt x="328" y="662" on="0"/>
        <pt x="350" y="640" on="0"/>
        <pt x="347" y="625" on="1"/>
        <pt x="332" y="612" on="0"/>
        <pt x="301" y="533" on="0"/>
        <pt x="296" y="505" on="1"/>
        <pt x="305" y="488" on="0"/>
        <pt x="320" y="488" on="1"/>
        <pt x="363" y="488" on="0"/>
        <pt x="402" y="523" on="1"/>
        <pt x="416" y="523" on="0"/>
        <pt x="432" y="493" on="0"/>
        <pt x="429" y="476" on="1"/>
        <pt x="426" y="460" on="0"/>
        <pt x="400" y="432" on="0"/>
        <pt x="385" y="432" on="1"/>
        <pt x="363" y="461" on="0"/>
        <pt x="315" y="463" on="1"/>
        <pt x="305" y="463" on="0"/>
        <pt x="286" y="444" on="0"/>
        <pt x="284" y="435" on="1"/>
        <pt x="285" y="427" on="0"/>
        <pt x="298" y="380" on="0"/>
        <pt x="301" y="365" on="1"/>
        <pt x="280" y="303" on="0"/>
        <pt x="253" y="212" on="0"/>
        <pt x="210" y="59" on="0"/>
        <pt x="190" y="-10" on="1"/>
        <pt x="182" y="-23" on="0"/>
        <pt x="179" y="-24" on="1"/>
        <pt x="177" y="-24" on="0"/>
        <pt x="172" y="-10" on="1"/>
        <pt x="178" y="48" on="0"/>
        <pt x="191" y="171" on="0"/>
        <pt x="197" y="231" on="0"/>
        <pt x="204" y="316" on="0"/>
        <pt x="206" y="365" on="1"/>
        <pt x="214" y="378" on="0"/>
        <pt x="245" y="427" on="0"/>
        <pt x="250" y="435" on="1"/>
        <pt x="252" y="445" on="0"/>
        <pt x="241" y="463" on="0"/>
        <pt x="231" y="463" on="1"/>
        <pt x="182" y="461" on="0"/>
        <pt x="149" y="432" on="1"/>
        <pt x="135" y="432" on="0"/>
        <pt x="120" y="459" on="0"/>
        <pt x="126" y="493" on="0"/>
        <pt x="153" y="523" on="0"/>
        <pt x="167" y="523" on="1"/>
        <pt x="193" y="488" on="0"/>
      </contour>
    </TTGlyph>
    <TTGlyph name="daggerdbl" xMin="69" yMin="-24" xMax="436" yMax="662">
      <contour>
        <pt x="290" y="273" on="1"/>
        <pt x="281" y="257" on="0"/>
        <pt x="250" y="210" on="0"/>
        <pt x="246" y="203" on="1"/>
        <pt x="244" y="193" on="0"/>
        <pt x="257" y="175" on="0"/>
        <pt x="267" y="175" on="1"/>
        <pt x="315" y="177" on="0"/>
        <pt x="348" y="206" on="1"/>
        <pt x="362" y="206" on="0"/>
        <pt x="378" y="178" on="0"/>
        <pt x="375" y="162" on="1"/>
        <pt x="372" y="145" on="0"/>
        <pt x="344" y="115" on="0"/>
        <pt x="330" y="115" on="1"/>
        <pt x="304" y="150" on="0"/>
        <pt x="262" y="150" on="1"/>
        <pt x="247" y="150" on="0"/>
        <pt x="231" y="133" on="1"/>
        <pt x="226" y="103" on="0"/>
        <pt x="226" y="26" on="0"/>
        <pt x="235" y="13" on="1"/>
        <pt x="232" y="-2" on="0"/>
        <pt x="202" y="-24" on="0"/>
        <pt x="170" y="-24" on="0"/>
        <pt x="147" y="-2" on="0"/>
        <pt x="150" y="13" on="1"/>
        <pt x="165" y="26" on="0"/>
        <pt x="196" y="105" on="0"/>
        <pt x="201" y="133" on="1"/>
        <pt x="192" y="150" on="0"/>
        <pt x="177" y="150" on="1"/>
        <pt x="134" y="150" on="0"/>
        <pt x="95" y="115" on="1"/>
        <pt x="81" y="115" on="0"/>
        <pt x="66" y="145" on="0"/>
        <pt x="69" y="162" on="1"/>
        <pt x="72" y="178" on="0"/>
        <pt x="98" y="206" on="0"/>
        <pt x="113" y="206" on="1"/>
        <pt x="135" y="177" on="0"/>
        <pt x="182" y="175" on="1"/>
        <pt x="192" y="175" on="0"/>
        <pt x="211" y="194" on="0"/>
        <pt x="213" y="203" on="1"/>
        <pt x="212" y="211" on="0"/>
        <pt x="198" y="260" on="0"/>
        <pt x="195" y="273" on="1"/>
        <pt x="206" y="281" on="0"/>
        <pt x="229" y="313" on="0"/>
        <pt x="231" y="320" on="1"/>
        <pt x="234" y="335" on="0"/>
        <pt x="213" y="365" on="1"/>
        <pt x="221" y="378" on="0"/>
        <pt x="253" y="427" on="0"/>
        <pt x="258" y="435" on="1"/>
        <pt x="260" y="445" on="0"/>
        <pt x="248" y="463" on="0"/>
        <pt x="238" y="463" on="1"/>
        <pt x="190" y="461" on="0"/>
        <pt x="157" y="432" on="1"/>
        <pt x="143" y="432" on="0"/>
        <pt x="127" y="460" on="0"/>
        <pt x="130" y="476" on="1"/>
        <pt x="133" y="493" on="0"/>
        <pt x="160" y="523" on="0"/>
        <pt x="174" y="523" on="1"/>
        <pt x="200" y="488" on="0"/>
        <pt x="243" y="488" on="1"/>
        <pt x="257" y="488" on="0"/>
        <pt x="273" y="505" on="1"/>
        <pt x="278" y="535" on="0"/>
        <pt x="278" y="612" on="0"/>
        <pt x="269" y="625" on="1"/>
        <pt x="272" y="640" on="0"/>
        <pt x="303" y="662" on="0"/>
        <pt x="335" y="662" on="0"/>
        <pt x="357" y="640" on="0"/>
        <pt x="354" y="625" on="1"/>
        <pt x="339" y="612" on="0"/>
        <pt x="308" y="533" on="0"/>
        <pt x="303" y="505" on="1"/>
        <pt x="312" y="488" on="0"/>
        <pt x="327" y="488" on="1"/>
        <pt x="371" y="488" on="0"/>
        <pt x="410" y="523" on="1"/>
        <pt x="424" y="523" on="0"/>
        <pt x="439" y="493" on="0"/>
        <pt x="436" y="476" on="1"/>
        <pt x="433" y="460" on="0"/>
        <pt x="407" y="432" on="0"/>
        <pt x="392" y="432" on="1"/>
        <pt x="370" y="461" on="0"/>
        <pt x="323" y="463" on="1"/>
        <pt x="313" y="463" on="0"/>
        <pt x="293" y="444" on="0"/>
        <pt x="291" y="435" on="1"/>
        <pt x="292" y="427" on="0"/>
        <pt x="305" y="380" on="0"/>
        <pt x="308" y="365" on="1"/>
        <pt x="301" y="359" on="0"/>
        <pt x="274" y="326" on="0"/>
        <pt x="273" y="320" on="1"/>
        <pt x="271" y="314" on="0"/>
        <pt x="282" y="282" on="0"/>
      </contour>
    </TTGlyph>
    <TTGlyph name="dcaron" xMin="10" yMin="-8" xMax="642" yMax="696">
      <component glyphName="uni0315" x="401" y="14" flags="0x1004"/>
      <component glyphName="d" x="0" y="0" flags="0x1004"/>
    </TTGlyph>
    <TTGlyph name="dcroat" xMin="10" yMin="-8" xMax="514" yMax="696">
      <contour>
        <pt x="204" y="556" on="1"/>
        <pt x="204" y="556" on="0"/>
        <pt x="509" y="556" on="1"/>
        <pt x="516" y="556" on="0"/>
        <pt x="514" y="548" on="1"/>
        <pt x="510" y="526" on="0"/>
        <pt x="503" y="517" on="1"/>
        <pt x="503" y="517" on="0"/>
        <pt x="197" y="517" on="1"/>
        <pt x="191" y="517" on="0"/>
        <pt x="194" y="528" on="1"/>
        <pt x="198" y="550" on="0"/>
      </contour>
      <contour>
        <pt x="287" y="353" on="1"/>
        <pt x="287" y="394" on="0"/>
        <pt x="261" y="394" on="1"/>
        <pt x="211" y="394" on="0"/>
        <pt x="136" y="243" on="0"/>
        <pt x="136" y="152" on="1"/>
        <pt x="136" y="81" on="0"/>
        <pt x="172" y="81" on="1"/>
        <pt x="197" y="81" on="0"/>
        <pt x="267" y="219" on="0"/>
        <pt x="276" y="281" on="1"/>
        <pt x="287" y="340" on="0"/>
      </contour>
      <contour>
        <pt x="332" y="560" on="1"/>
        <pt x="333" y="566" on="0"/>
        <pt x="338" y="590" on="0"/>
        <pt x="341" y="608" on="0"/>
        <pt x="341" y="613" on="1"/>
        <pt x="341" y="632" on="0"/>
        <pt x="280" y="632" on="1"/>
        <pt x="278" y="635" on="0"/>
        <pt x="281" y="658" on="0"/>
        <pt x="284" y="661" on="1"/>
        <pt x="322" y="664" on="0"/>
        <pt x="446" y="689" on="0"/>
        <pt x="464" y="696" on="1"/>
        <pt x="470" y="692" on="0"/>
        <pt x="470" y="677" on="1"/>
        <pt x="470" y="664" on="0"/>
        <pt x="457" y="602" on="1"/>
        <pt x="362" y="132" on="1"/>
        <pt x="358" y="116" on="0"/>
        <pt x="358" y="99" on="1"/>
        <pt x="358" y="78" on="0"/>
        <pt x="386" y="78" on="0"/>
        <pt x="438" y="130" on="0"/>
        <pt x="443" y="139" on="1"/>
        <pt x="448" y="139" on="0"/>
        <pt x="457" y="118" on="0"/>
        <pt x="457" y="112" on="1"/>
        <pt x="441" y="82" on="0"/>
        <pt x="334" y="-8" on="0"/>
        <pt x="298" y="-8" on="1"/>
        <pt x="264" y="-8" on="0"/>
        <pt x="248" y="16" on="1"/>
        <pt x="236" y="34" on="0"/>
        <pt x="236" y="58" on="1"/>
        <pt x="236" y="72" on="0"/>
        <pt x="242" y="96" on="1"/>
        <pt x="223" y="62" on="0"/>
        <pt x="137" y="-7" on="0"/>
        <pt x="55" y="-7" on="0"/>
        <pt x="10" y="62" on="0"/>
        <pt x="10" y="115" on="1"/>
        <pt x="10" y="194" on="0"/>
        <pt x="100" y="345" on="0"/>
        <pt x="230" y="438" on="0"/>
        <pt x="293" y="448" on="1"/>
        <pt x="299" y="449" on="0"/>
        <pt x="310" y="449" on="1"/>
      </contour>
    </TTGlyph>
    <TTGlyph name="degree" xMin="88" yMin="425" xMax="294" yMax="647">
      <contour>
        <pt x="136" y="564" on="0"/>
        <pt x="126" y="510" on="0"/>
        <pt x="153" y="471" on="0"/>
        <pt x="203" y="471" on="0"/>
        <pt x="246" y="510" on="0"/>
        <pt x="256" y="564" on="0"/>
        <pt x="229" y="602" on="0"/>
        <pt x="179" y="602" on="0"/>
      </contour>
      <contour>
        <pt x="79" y="491" on="0"/>
        <pt x="97" y="583" on="0"/>
        <pt x="169" y="647" on="0"/>
        <pt x="255" y="647" on="0"/>
        <pt x="303" y="583" on="0"/>
        <pt x="285" y="491" on="0"/>
        <pt x="212" y="425" on="0"/>
        <pt x="126" y="425" on="0"/>
      </contour>
    </TTGlyph>
    <TTGlyph name="dieresis" xMin="20" yMin="490" xMax="325" yMax="629">
      <component glyphName="uni0308" x="406" y="0" flags="0x1004"/>
    </TTGlyph>
    <TTGlyph name="divide" xMin="46" yMin="0" xMax="482" yMax="497">
      <contour>
        <pt x="51" y="223" on="1"/>
        <pt x="46" y="223" on="0"/>
        <pt x="46" y="231" on="1"/>
        <pt x="46" y="254" on="0"/>
        <pt x="61" y="274" on="1"/>
        <pt x="479" y="274" on="1"/>
        <pt x="482" y="274" on="0"/>
        <pt x="482" y="266" on="1"/>
        <pt x="482" y="237" on="0"/>
        <pt x="469" y="223" on="1"/>
      </contour>
      <contour>
        <pt x="311" y="497" on="1"/>
        <pt x="330" y="497" on="0"/>
        <pt x="356" y="470" on="0"/>
        <pt x="356" y="450" on="1"/>
        <pt x="356" y="425" on="0"/>
        <pt x="320" y="385" on="0"/>
        <pt x="296" y="385" on="1"/>
        <pt x="277" y="385" on="0"/>
        <pt x="252" y="413" on="0"/>
        <pt x="252" y="433" on="1"/>
        <pt x="252" y="458" on="0"/>
        <pt x="287" y="497" on="0"/>
      </contour>
      <contour>
        <pt x="238" y="112" on="1"/>
        <pt x="257" y="112" on="0"/>
        <pt x="283" y="85" on="0"/>
        <pt x="283" y="65" on="1"/>
        <pt x="283" y="40" on="0"/>
        <pt x="247" y="0" on="0"/>
        <pt x="223" y="0" on="1"/>
        <pt x="204" y="0" on="0"/>
        <pt x="179" y="28" on="0"/>
        <pt x="179" y="48" on="1"/>
        <pt x="179" y="73" on="0"/>
        <pt x="214" y="112" on="0"/>
      </contour>
    </TTGlyph>
    <TTGlyph name="dollar" xMin="28" yMin="-65" xMax="470" yMax="684">
      <contour>
        <pt x="325" y="643" on="1"/>
        <pt x="253" y="643" on="0"/>
        <pt x="116" y="541" on="0"/>
        <pt x="102" y="469" on="1"/>
        <pt x="99" y="451" on="0"/>
        <pt x="97" y="419" on="0"/>
        <pt x="106" y="388" on="0"/>
        <pt x="109" y="369" on="0"/>
        <pt x="133" y="339" on="0"/>
        <pt x="138" y="330" on="0"/>
        <pt x="172" y="299" on="0"/>
        <pt x="175" y="297" on="0"/>
        <pt x="195" y="280" on="1"/>
        <pt x="199" y="277" on="0"/>
        <pt x="214" y="264" on="0"/>
        <pt x="216" y="262" on="1"/>
        <pt x="267" y="422" on="1"/>
        <pt x="220" y="475" on="0"/>
        <pt x="229" y="519" on="1"/>
        <pt x="237" y="563" on="0"/>
        <pt x="290" y="603" on="0"/>
        <pt x="321" y="603" on="1"/>
        <pt x="322" y="603" on="0"/>
        <pt x="323" y="603" on="1"/>
        <pt x="336" y="643" on="1"/>
        <pt x="331" y="643" on="0"/>
      </contour>
      <contour>
        <pt x="149" y="-65" on="1"/>
        <pt x="144" y="-65" on="0"/>
        <pt x="129" y="-61" on="0"/>
        <pt x="117" y="-53" on="0"/>
        <pt x="118" y="-50" on="1"/>
        <pt x="132" y="-6" on="1"/>
        <pt x="150" y="-8" on="0"/>
        <pt x="167" y="-9" on="1"/>
      </contour>
      <contour>
        <pt x="244" y="237" on="1"/>
        <pt x="307" y="176" on="0"/>
        <pt x="297" y="123" on="1"/>
        <pt x="288" y="75" on="0"/>
        <pt x="229" y="30" on="0"/>
        <pt x="192" y="30" on="1"/>
        <pt x="186" y="30" on="0"/>
        <pt x="179" y="31" on="1"/>
        <pt x="167" y="-9" on="1"/>
        <pt x="180" y="-10" on="0"/>
        <pt x="193" y="-10" on="1"/>
        <pt x="270" y="-10" on="0"/>
        <pt x="408" y="91" on="0"/>
        <pt x="422" y="168" on="1"/>
        <pt x="426" y="187" on="0"/>
        <pt x="428" y="219" on="0"/>
        <pt x="421" y="250" on="0"/>
        <pt x="418" y="270" on="0"/>
        <pt x="399" y="297" on="0"/>
        <pt x="394" y="308" on="0"/>
        <pt x="366" y="334" on="0"/>
        <pt x="362" y="338" on="0"/>
        <pt x="346" y="352" on="1"/>
        <pt x="329" y="365" on="1"/>
        <pt x="307" y="384" on="0"/>
        <pt x="294" y="395" on="1"/>
      </contour>
      <contour>
        <pt x="244" y="237" on="1"/>
        <pt x="179" y="31" on="1"/>
        <pt x="162" y="33" on="0"/>
        <pt x="147" y="42" on="1"/>
        <pt x="216" y="262" on="1"/>
        <pt x="233" y="248" on="0"/>
      </contour>
      <contour>
        <pt x="294" y="395" on="1"/>
        <pt x="278" y="409" on="0"/>
        <pt x="267" y="422" on="1"/>
        <pt x="323" y="603" on="1"/>
        <pt x="342" y="602" on="0"/>
        <pt x="357" y="593" on="1"/>
      </contour>
      <contour>
        <pt x="357" y="593" on="1"/>
        <pt x="386" y="576" on="0"/>
        <pt x="415" y="495" on="0"/>
        <pt x="413" y="458" on="1"/>
        <pt x="413" y="451" on="0"/>
        <pt x="438" y="451" on="1"/>
        <pt x="443" y="451" on="0"/>
        <pt x="449" y="457" on="1"/>
        <pt x="459" y="523" on="0"/>
        <pt x="470" y="616" on="1"/>
        <pt x="463" y="618" on="0"/>
        <pt x="391" y="636" on="0"/>
        <pt x="371" y="639" on="1"/>
      </contour>
      <contour>
        <pt x="371" y="639" on="1"/>
        <pt x="353" y="642" on="0"/>
        <pt x="336" y="643" on="1"/>
        <pt x="349" y="684" on="1"/>
        <pt x="353" y="685" on="0"/>
        <pt x="370" y="680" on="0"/>
        <pt x="382" y="673" on="0"/>
        <pt x="381" y="670" on="1"/>
      </contour>
      <contour>
        <pt x="147" y="42" on="1"/>
        <pt x="113" y="62" on="0"/>
        <pt x="76" y="148" on="0"/>
        <pt x="77" y="184" on="1"/>
        <pt x="77" y="192" on="0"/>
        <pt x="67" y="192" on="1"/>
        <pt x="63" y="192" on="0"/>
        <pt x="42" y="182" on="0"/>
        <pt x="38" y="178" on="1"/>
        <pt x="26" y="97" on="0"/>
        <pt x="28" y="15" on="1"/>
        <pt x="85" y="0" on="0"/>
        <pt x="132" y="-6" on="1"/>
      </contour>
    </TTGlyph>
    <TTGlyph name="dotaccent" xMin="20" yMin="490" xMax="146" yMax="628">
      <component glyphName="uni0307" x="333" y="0" flags="0x1004"/>
    </TTGlyph>
</ttFont>
